<?xml version="1.0" encoding="UTF-8"?>
<svg width="29px" height="28px" viewBox="0 0 29 28" version="1.1" xmlns="http://www.w3.org/2000/svg" xmlns:xlink="http://www.w3.org/1999/xlink">
    <title>下载</title>
    <g id="页面-1" stroke="none" stroke-width="1" fill="none" fill-rule="evenodd">
        <g id="我的" transform="translate(-55, -232)" fill-rule="nonzero">
            <g id="编组-5" transform="translate(41, 232)">
                <g id="下载" transform="translate(14, 0)">
                    <path d="M10.7,20 C10.4958328,20 10.2973818,19.9755258 10.1074209,19.9293513 C9.8285314,19.9756664 9.54205058,20 9.25,20 C6.35050506,20 4,17.6015254 4,14.6428571 C4,12.2120934 5.5865514,10.1594509 7.76062688,9.50434551 C8.89235001,6.85358963 11.4840398,5 14.5,5 C17.5159602,5 20.10765,6.85358963 21.2406619,9.50525112 C23.4134486,10.1594509 25,12.2120934 25,14.6428571 C25,17.6015254 22.6494949,20 19.75,20 C19.4579494,20 19.1714686,19.9756664 18.8923985,19.9288777 C18.7026182,19.9755258 18.5041672,20 18.3,20 L10.7,20 Z" id="形状结合" fill="#80DBB0"></path>
                    <path d="M23.4473549,5.99090849 C21.9576304,2.36658818 18.4233479,0 14.5004822,0 C10.5776165,0 7.04333394,2.36658818 5.55360949,5.99090849 C2.28641611,6.76018421 -0.016458532,9.6802078 8.8599039e-05,13.0326077 C8.8599039e-05,17.0255427 3.25200461,20.2731813 7.25008851,20.2731813 L10.0137543,20.2731813 C10.547623,20.2731813 10.9804091,19.8409526 10.9804091,19.3077715 C10.9804091,18.7745904 10.547623,18.3423617 10.0137543,18.3423617 L7.25008851,18.3423617 C4.31513597,18.3391693 1.93668412,15.9637805 1.93348758,13.0326077 C1.92039612,10.4155159 3.82860408,8.18365205 6.41876546,7.78657076 L6.99392501,7.69678764 L7.18242268,7.14650405 C8.25444276,4.02629952 11.1950064,1.9303948 14.4999989,1.9303948 C17.8042073,1.92946361 20.7439798,4.02526693 21.8166084,7.14650405 L22.0060727,7.69678764 L22.5812323,7.78657076 C25.1713937,8.18365205 27.0796016,10.4155159 27.0665101,13.0326077 C27.0665101,15.9597303 24.6808063,18.3423617 21.7499092,18.3423617 L18.8112789,18.3423617 C18.2774102,18.3423617 17.8446242,18.7745904 17.8446242,19.3077715 C17.8446242,19.8409526 18.2774102,20.2731813 18.8112789,20.2731813 L21.7499092,20.2731813 C25.7479931,20.2731813 28.9999103,17.0255427 28.9999103,13.0326077 C29.0165609,9.68049381 26.714164,6.76056776 23.4473549,5.99090849 Z M18.6624141,22.3835672 L15.4666536,24.9959662 L15.4666536,12.0671979 C15.4666536,11.5340168 15.0338675,11.1017881 14.4999989,11.1017881 C13.9661302,11.1017881 13.5333442,11.5340168 13.5333442,12.0671979 L13.5333442,24.9959662 L10.308584,22.3584665 C10.0414539,22.1399675 9.67789731,22.0803948 9.35486252,22.2021888 C9.03182774,22.3239828 8.79839142,22.6086402 8.74248676,22.9489333 C8.68658211,23.2892264 8.81670237,23.6334565 9.0838325,23.8519555 L13.8881064,27.7811735 C14.2444555,28.0729422 14.7574755,28.0729422 15.1138246,27.7811735 L19.8881322,23.8760908 C20.1641784,23.660251 20.3015737,23.3120613 20.2471867,22.9661685 C20.1927998,22.6202757 19.9551565,22.330904 19.6261549,22.2099549 C19.2971532,22.0890059 18.9283694,22.1554401 18.6624141,22.3835672 Z" id="形状" fill="#333333"></path>
                </g>
            </g>
        </g>
    </g>
</svg>