<?xml version="1.0" encoding="UTF-8"?>
<svg width="20px" height="20px" viewBox="0 0 20 20" version="1.1" xmlns="http://www.w3.org/2000/svg" xmlns:xlink="http://www.w3.org/1999/xlink">
    <title>意见反馈</title>
    <g id="页面-1" stroke="none" stroke-width="1" fill="none" fill-rule="evenodd">
        <g id="我的" transform="translate(-27, -458)" fill="#333333" fill-rule="nonzero">
            <g id="编组-10" transform="translate(15, 449)">
                <g id="意见反馈" transform="translate(12, 9)">
                    <path d="M18,2 C19.1046,2 20,2.89549999 20,4 L20,18 C20,19.1046 19.1046,20 18,20 L2,20 C0.895400015,20 0,19.1046 0,18 L0,4 C0,2.89550001 0.895399991,2 2,2 L6.53510001,2 C7.22670002,0.804399984 8.51940002,0 10,0 C11.4806,0 12.7733,0.804400007 13.4649,2 L18,2 Z M12.4264,3.20050001 L12.1664,2.75110001 C11.7217,1.98220001 10.9036,1.50010001 10,1.50010001 C9.0964,1.50010001 8.2783,1.98220001 7.83350001,2.75110001 L7.5736,3.20050001 C7.46633182,3.38588163 7.26837938,3.50002632 7.05419999,3.49999999 L2,3.49999999 C1.86739176,3.49999998 1.7402148,3.5526784 1.64644661,3.6464466 C1.55267841,3.74021479 1.5,3.86739175 1.5,4 L1.5,18 C1.5,18.1326082 1.55267842,18.2597852 1.64644661,18.3535534 C1.74021481,18.4473216 1.86739177,18.5 2,18.5 L18,18.5 C18.1326082,18.5 18.2597852,18.4473216 18.3535534,18.3535534 C18.4473216,18.2597852 18.5,18.1326082 18.5,18 L18.5,4 C18.5,3.86739175 18.4473216,3.74021479 18.3535534,3.6464466 C18.2597852,3.5526784 18.1326082,3.49999998 18,3.49999999 L12.9458,3.49999999 C12.7316206,3.50002632 12.5336682,3.38588163 12.4264,3.20050001 L12.4264,3.20050001 Z M8,9.95789999 L12,9.95789999 C12.5523,9.95789999 13,10.2937 13,10.7079 C13,11.1221 12.5523,11.4579 12,11.4579 L8,11.4579 C7.44770001,11.4579 7,11.1221 7,10.7079 C7,10.2937 7.44770001,9.95789999 8,9.95789999 L8,9.95789999 Z" id="形状"></path>
                </g>
            </g>
        </g>
    </g>
</svg>