<?xml version="1.0" encoding="UTF-8"?>
<svg width="20px" height="21px" viewBox="0 0 20 21" version="1.1" xmlns="http://www.w3.org/2000/svg" xmlns:xlink="http://www.w3.org/1999/xlink">
    <title>QQ群</title>
    <g id="页面-1" stroke="none" stroke-width="1" fill="none" fill-rule="evenodd">
        <g id="我的" transform="translate(-27, -502)" fill="#3D3D3D" fill-rule="nonzero">
            <g id="编组-10" transform="translate(15, 493)">
                <g id="QQ群" transform="translate(12, 9)">
                    <path d="M9.77896314,0.00275850462 C5.98738513,0.106202802 3.1771486,2.87988901 2.84543725,6.79973796 L2.83785134,6.89145856 L2.82681728,6.92387109 C2.78652324,7.04575867 2.75427128,7.17015911 2.73026928,7.29627055 L2.70061525,7.48247027 L2.69233971,7.49971098 C2.57367099,7.75721761 2.48326146,8.02682761 2.42269493,8.30381791 L2.37993796,8.53139536 L2.25373592,8.65345961 C1.6696205,9.23412688 1.13998573,10.065819 0.715864149,11.0540568 C-0.286855827,13.3884496 -0.34133648,15.5952611 1.23101671,16.4076435 L1.37928686,16.4766064 C1.57927917,16.5614307 1.79168477,16.6124632 2.01029702,16.6297039 L2.15373977,16.6359106 L2.14615386,16.6565995 C2.05443326,16.9186583 2.00615926,17.1945098 2.00615926,17.4807056 C2.00684888,19.4151138 4.12676719,20.6888578 6.75149362,20.6888578 L7.01562137,20.6847201 C8.15075003,20.6481698 9.18381368,20.3743872 9.97412803,19.8971642 L9.9996443,19.8792339 L10.0265398,19.8971642 C10.8775415,20.4116272 12.0099116,20.6888578 13.247795,20.6888578 C15.8718318,20.6888578 17.9924397,19.4151138 17.9924397,17.4807056 L17.9869227,17.3103674 C17.9718603,17.0875917 17.9266213,16.8678924 17.8524451,16.6572891 L17.8421007,16.6297039 C18.1593298,16.6297039 18.4717316,16.5593618 18.7648237,16.4090228 C20.342694,15.5931922 20.2875237,13.3856911 19.2820452,11.0526775 L19.1737735,10.8092386 C18.7696511,9.92858289 18.2793252,9.18516326 17.7441734,8.65345961 L17.6172818,8.5327746 L17.6152129,8.51277537 C17.5692438,8.23202379 17.4929378,7.95709098 17.3876354,7.69280699 L17.2945356,7.47902212 L17.2669504,7.29971867 C17.2430076,7.17291526 17.2107554,7.04782281 17.1704024,6.92525035 L17.1579891,6.89076893 L17.1683335,7.02662577 C16.9200672,2.9109223 13.9725946,0 9.99895468,0 L9.77896314,0.00275850462 Z M9.9996443,1.35856833 C11.6257885,1.35856833 13.0271138,1.94751115 14.0477641,2.96402369 C15.0491049,3.95915776 15.6890802,5.37082749 15.8008,7.06041756 C15.8952792,7.40523185 15.929071,7.55970866 15.9421739,7.68039367 C16.1973365,8.34933341 16.278023,8.67621735 16.2973326,9.01758351 C16.9917886,9.73410762 17.5710767,10.5292494 18.0248523,11.58645 C18.3600117,12.3636615 18.5420737,13.0843233 18.6013818,13.6498188 C18.6379321,14.0001501 18.6262084,14.29738 18.5806929,14.522199 C18.5048338,14.8994258 18.3234614,15.107004 18.1358825,15.2042416 C17.3690155,15.1801046 17.2214349,15.07735 17.0600619,14.9456309 L16.6393884,14.6021959 L16.369054,15.0704537 C16.2349244,15.3017038 16.0810222,15.520905 15.9090717,15.7256009 L15.602187,16.091104 L15.9856205,16.3779895 C16.4593954,16.7324586 16.6255958,17.1131336 16.6255958,17.4813953 C16.6255958,17.7606948 16.5159449,18.04827 16.2814712,18.313777 C16.09803,18.5220448 15.8318333,18.7199682 15.4897776,18.8834102 C14.9325576,19.1496068 14.1629321,19.3316688 13.2484846,19.3316688 C11.9430177,19.3316688 10.8699556,18.9503042 10.3189423,18.421359 L9.9996443,18.1158536 L9.68034625,18.4220487 C9.13002263,18.9496146 8.05765017,19.3316688 6.75149362,19.3316688 C5.83704609,19.3316688 5.06673096,19.1496068 4.51020068,18.8834102 C4.1681449,18.7199682 3.90194826,18.5220448 3.71781743,18.313777 C3.48334371,18.04827 3.37369276,17.7606949 3.37369276,17.4813953 C3.37369276,17.1131336 3.54058288,16.7324586 4.01366809,16.3793688 L4.39710159,16.0924833 L4.09021686,15.7256009 C3.918088,15.5208856 3.76395818,15.301689 3.62954496,15.0704537 L3.35921055,14.6015063 L2.93853711,14.9456309 C2.67165086,15.1635536 2.43717711,15.2545845 2.26614922,15.2738941 C1.80685658,15.1442439 1.61100206,14.9421828 1.50066149,14.6132299 C1.42480234,14.3870317 1.38963128,14.0904915 1.4089409,13.7380913 C1.44204307,13.1560447 1.62410502,12.4022807 1.97443634,11.5878293 C2.42821196,10.5285598 3.00681035,9.733418 3.5171355,9.35619115 C3.72126557,8.65552849 3.81367579,8.31002458 3.9681526,7.99900207 C4.05780431,7.59419008 4.09780278,7.43350662 4.13504272,7.32178679 C4.27986473,5.51220135 4.92673636,4.04880947 5.91497413,3.02540064 C6.94734813,1.95647633 8.35832825,1.35856833 9.9996443,1.35856833 Z" id="形状"></path>
                </g>
            </g>
        </g>
    </g>
</svg>