<?xml version="1.0" encoding="UTF-8"?>
<svg width="32px" height="31px" viewBox="0 0 32 31" version="1.1" xmlns="http://www.w3.org/2000/svg" xmlns:xlink="http://www.w3.org/1999/xlink">
    <title>历史记录</title>
    <g id="页面-1" stroke="none" stroke-width="1" fill="none" fill-rule="evenodd">
        <g id="画板" transform="translate(-633, -676)">
            <g id="历史记录" transform="translate(633.1, 676)">
                <rect id="矩形" x="0" y="0" width="31" height="31"></rect>
                <g id="编组-4" transform="translate(2, 2)" fill-rule="nonzero">
                    <path d="M3.6093578,14.9600612 C3.6093578,21.2515809 8.7096423,26.3518654 15.0011621,26.3518654 C21.2926819,26.3518654 26.3929664,21.2515809 26.3929664,14.9600612 C26.3929664,8.66854138 21.2926819,3.56825688 15.0011621,3.56825688 C8.7096423,3.56825688 3.6093578,8.66854138 3.6093578,14.9600612 Z" id="路径" fill="#80DBB0"></path>
                    <path d="M13.9,-4.61852778e-14 C21.5637743,-4.61852778e-14 27.8,6.23569911 27.8,13.9 C27.8,21.5648938 21.5648938,27.8 13.9,27.8 C6.23510615,27.8 -4.61852778e-14,21.5648938 -4.61852778e-14,13.9 C-4.61852778e-14,9.73372495 1.82620147,5.85287685 5.00725209,3.21539103 L4.94342508,3.03840979 L2.54929664,3.03840979 C2.03767496,3.03840979 1.6217737,2.62250853 1.6217737,2.11088685 C1.6217737,1.59926517 2.03767496,1.18336391 2.54929664,1.18336391 L7.24165138,1.18336391 C7.75327305,1.18336391 8.16917431,1.59926517 8.16917431,2.11088685 L8.16917431,7.01388379 C8.16917431,7.52550547 7.75327305,7.94140673 7.24165138,7.94140673 C6.7300297,7.94140673 6.31412844,7.52550547 6.31412844,7.01388379 L6.31412844,4.75504587 L6.14993744,4.67836787 C3.42039702,6.96340298 1.85504587,10.3103649 1.85504587,13.9 C1.85504587,20.5416505 7.25834951,25.9449541 13.9,25.9449541 C20.5416505,25.9449541 25.9449541,20.5416505 25.9449541,13.9 C25.9449541,7.25834951 20.5416505,1.85504587 13.9,1.85504587 C13.3883783,1.85504587 12.9724771,1.43914461 12.9724771,0.927522936 C12.9724771,0.415901258 13.3883783,-4.61852778e-14 13.9,-4.61852778e-14 Z" id="形状结合" fill="#000000"></path>
                    <path d="M18.1659327,16.7274006 L12.3484404,16.7274006 C11.7815902,16.7274006 11.3209174,16.2667278 11.3209174,15.6998777 L11.3209174,10.4047095 C11.3209174,9.83785933 11.7815902,9.37718654 12.3484404,9.37718654 C12.9152905,9.37718654 13.3759633,9.83785933 13.3759633,10.4047095 L13.3759633,14.6723547 L18.1659327,14.6723547 C18.7327829,14.6723547 19.1934557,15.1330275 19.1934557,15.6998777 C19.1934557,16.2667278 18.7327829,16.7274006 18.1659327,16.7274006 L18.1659327,16.7274006 Z" id="路径" fill="#2E3138"></path>
                </g>
            </g>
        </g>
    </g>
</svg>