<?xml version="1.0" encoding="UTF-8"?>
<svg width="31px" height="31px" viewBox="0 0 31 31" version="1.1" xmlns="http://www.w3.org/2000/svg" xmlns:xlink="http://www.w3.org/1999/xlink">
    <title>排行榜</title>
    <defs>
        <path d="M26.0768143,9.76369759 C23.6462596,9.31260919 21.3102263,10.9172837 20.8591379,13.3478384 C20.8286616,13.5120505 20.8074002,13.6778397 20.7954533,13.8444281 L20.1790876,22.4390884 C20.0771,23.8612127 21.0597542,25.132983 22.4615929,25.3931512 L22.5051882,25.4012421 C23.9111668,25.6621787 25.3058802,24.8944875 25.8375503,23.5670122 L29.1382997,15.3256931 C29.9811703,13.2212117 28.9584327,10.8319109 26.8539514,9.98904037 C26.6029594,9.88851499 26.3426493,9.8130341 26.0768143,9.76369759 Z" id="path-1"></path>
        <path d="M16.5,0.85 C19.7921871,0.85 22.4610321,3.51884498 22.4610321,6.81103211 C22.4610321,6.98283723 22.4536046,7.15456204 22.4387705,7.32572555 L21.2074864,21.5328496 C20.9958179,23.9751786 18.9514841,25.85 16.5,25.85 C14.0485159,25.85 12.0041821,23.9751786 11.7925136,21.5328496 L10.5612295,7.32572555 C10.2769722,4.0458332 12.7054142,1.156519 15.9853066,0.872261658 C16.1564701,0.857427487 16.3281949,0.85 16.5,0.85 Z" id="path-2"></path>
    </defs>
    <g id="页面-1" stroke="none" stroke-width="1" fill="none" fill-rule="evenodd">
        <g id="画板" transform="translate(-464, -676)">
            <g id="排行榜" transform="translate(464, 676)">
                <rect id="矩形" x="0" y="0" width="31" height="31"></rect>
                <g id="编组-2" transform="translate(0, 2)">
                    <path d="M4.92318574,7.75757184 C7.33737184,7.31252519 9.65523795,8.90882811 10.1002846,11.3230142 C10.1321572,11.4959092 10.153744,11.6705429 10.1649314,11.8459948 L10.8407201,22.4444308 C10.9315829,23.8694386 9.94264763,25.1373473 8.53840713,25.3962141 C7.12052036,25.6575965 5.72299578,24.8494232 5.24232931,23.490128 L1.6689699,13.3848877 C0.88213177,11.159758 2.04809751,8.71807557 4.27322727,7.93123744 C4.48497973,7.8563587 4.70230582,7.79829027 4.92318574,7.75757184 Z" id="矩形" fill="#61B5EF"></path>
                    <path d="M4.76908778,6.92165688 C7.64493697,6.39150428 10.406047,8.29306707 10.9361996,11.1689163 C10.9741671,11.3748738 10.999882,11.5829026 11.0132087,11.7919061 L11.6889974,22.390342 C11.8072566,24.2450095 10.5201436,25.8952104 8.69250509,26.232129 C6.86359992,26.5692812 5.06095955,25.5268338 4.44095701,23.7735048 L0.867597607,13.6682646 C-0.0757452427,11.0005491 1.32213495,8.07320799 3.98985041,7.12986514 C4.24372114,7.04009277 4.50427411,6.97047434 4.76908778,6.92165688 Z M9.26436964,11.4771122 C8.90442895,9.52458916 7.02980672,8.2335461 5.0772837,8.5934868 C4.90033753,8.6261062 4.72623832,8.67262462 4.55660413,8.73260973 C2.77406006,9.36294315 1.84000878,11.3189668 2.4703422,13.1015109 L6.0437016,23.2067511 C6.38503201,24.1720125 7.3774408,24.7459117 8.38430917,24.5602991 C9.36515163,24.3794843 10.0559092,23.4938677 9.99244273,22.4985195 L9.31665407,11.9000836 C9.30760606,11.7581832 9.29014725,11.6169446 9.26436964,11.4771122 Z" id="矩形" fill="#000000" fill-rule="nonzero"></path>
                    <g id="矩形备份-7">
                        <use fill="#D8D8D8" xlink:href="#path-1"></use>
                        <use fill="#80DBB0" xlink:href="#path-1"></use>
                    </g>
                    <path d="M20.0234089,13.1927348 C20.5601586,10.3006198 23.3398027,8.39121892 26.2319178,8.92796864 C26.552801,8.98752158 26.8670153,9.07863281 27.1699819,9.19997464 C29.7102522,10.217384 30.9447748,13.1014533 29.9273654,15.6417236 L26.6266161,23.8830427 C25.9443061,25.586636 24.1544238,26.5718397 22.3500847,26.2369711 L22.3064893,26.2288802 C20.4792057,25.8897533 19.1983251,24.2320127 19.331265,22.3782868 L19.9476307,13.7836265 C19.9618463,13.5854031 19.9871453,13.3881307 20.0234089,13.1927348 Z M21.6948668,13.5029419 C21.670178,13.6359703 21.6529541,13.7702762 21.6432759,13.9052296 L21.0269102,22.4998899 C20.9558749,23.4904128 21.6403027,24.3762126 22.6166964,24.5574222 L22.6602917,24.5655131 C23.6679097,24.7525177 24.6674544,24.202339 25.0484846,23.2509817 L28.349234,15.0096626 C29.0175657,13.3409702 28.2066132,11.4464378 26.5379209,10.7781061 C26.3389034,10.6983972 26.1324975,10.6385466 25.9217107,10.5994266 C23.9527164,10.2339995 22.0602939,11.5339476 21.6948668,13.5029419 Z" id="矩形备份-7" fill="#000000" fill-rule="nonzero"></path>
                    <g id="矩形备份-6">
                        <use fill="#D8D8D8" xlink:href="#path-2"></use>
                        <use fill="#FFBC2E" xlink:href="#path-2"></use>
                    </g>
                    <path d="M23.3110321,6.81103211 C23.3110321,7.0073354 23.3025455,7.20354692 23.2855961,7.39911711 L22.054312,21.6062412 C21.8045666,24.4879186 19.3924794,26.7 16.5,26.7 C13.6075206,26.7 11.1954334,24.4879186 10.945688,21.6062412 L9.7144039,7.39911711 C9.38961352,3.65153586 12.1643338,0.350226384 15.911915,0.0254360093 C16.1074852,0.00848659313 16.3036967,0 16.5,0 C20.2616292,0 23.3110321,3.04940295 23.3110321,6.81103211 Z M16.0586981,1.71908731 C13.2464947,1.96281161 11.1643309,4.44013053 11.4080552,7.25233399 L12.6393393,21.4594581 C12.8129309,23.4624386 14.4895113,25 16.5,25 C18.5104887,25 20.1870691,23.4624386 20.3606607,21.4594581 L21.5919448,7.25233399 C21.6046637,7.10557716 21.6110321,6.95833907 21.6110321,6.81103211 C21.6110321,3.98828702 19.3227451,1.7 16.5,1.7 C16.352693,1.7 16.205455,1.70636838 16.0586981,1.71908731 Z" id="矩形备份-6" fill="#000000" fill-rule="nonzero"></path>
                    <g id="1" transform="translate(13.584, 4.582)" fill="#000000" fill-rule="nonzero">
                        <path d="M3.648,0.696 L3.648,0.576 C3.648,0.552 3.636,0.516 3.636,0.468 C3.612,0.36 3.564,0.264 3.492,0.18 C3.396,0.096 3.312,0.048 3.216,0.024 C3.12,0.012 3.036,0 2.964,0 C2.88,0 2.808,0.024 2.736,0.072 C2.664,0.132 2.592,0.192 2.52,0.264 C2.448,0.336 2.376,0.42 2.304,0.516 L2.052,0.804 L1.704,1.188 C1.596,1.308 1.488,1.428 1.392,1.536 C1.272,1.656 1.152,1.764 1.032,1.884 L0.636,2.28 L0.528,2.364 C0.48,2.4 0.444,2.424 0.408,2.448 L0.288,2.52 L0.192,2.58 C0.06,2.676 0,2.76 0,2.832 C0,2.928 0.024,3.012 0.072,3.084 C0.12,3.156 0.192,3.216 0.276,3.264 C0.348,3.324 0.432,3.36 0.528,3.384 C0.612,3.408 0.696,3.42 0.768,3.42 C0.864,3.42 0.948,3.408 1.032,3.372 C1.116,3.348 1.236,3.252 1.38,3.096 L1.548,2.928 C1.596,2.868 1.656,2.808 1.704,2.76 L1.896,2.568 C1.956,2.52 2.016,2.46 2.088,2.388 C2.064,2.556 2.04,2.736 2.028,2.928 L1.98,3.504 C1.956,3.684 1.944,3.84 1.944,3.96 L1.932,4.164 C1.908,4.32 1.896,4.536 1.884,4.824 C1.86,5.112 1.848,5.412 1.848,5.724 L1.8,6.672 C1.788,6.984 1.788,7.224 1.788,7.416 C1.788,7.44 1.788,7.476 1.8,7.512 L1.824,7.656 L1.872,7.8 C1.884,7.848 1.896,7.872 1.92,7.884 C2.004,8.004 2.1,8.064 2.208,8.088 C2.316,8.124 2.412,8.136 2.508,8.136 C2.556,8.136 2.616,8.136 2.688,8.112 C2.748,8.1 2.808,8.076 2.88,8.04 C2.94,8.016 3,7.98 3.048,7.932 C3.084,7.884 3.108,7.836 3.108,7.764 C3.108,7.692 3.084,7.524 3.048,7.284 C3,7.044 2.976,6.732 2.976,6.348 C2.976,6.012 2.976,5.64 3,5.22 C3.012,4.812 3.036,4.38 3.084,3.936 C3.12,3.504 3.168,3.084 3.24,2.652 C3.3,2.232 3.384,1.848 3.48,1.488 C3.54,1.272 3.588,1.092 3.612,0.96 C3.636,0.828 3.648,0.744 3.648,0.696 Z" id="路径"></path>
                    </g>
                    <g id="2" transform="translate(6.5223, 13.6504) rotate(-8) translate(-6.5223, -13.6504)translate(4.4903, 10.9264)" fill="#000000" fill-rule="nonzero">
                        <path d="M4.064,5.008 C4.064,4.896 4.024,4.784 3.96,4.672 C3.888,4.56 3.784,4.496 3.648,4.496 C3.568,4.496 3.488,4.504 3.424,4.52 L3.32,4.544 L3.208,4.56 C3.128,4.576 3.056,4.576 2.984,4.576 C2.904,4.576 2.824,4.584 2.744,4.584 C2.648,4.592 2.552,4.592 2.464,4.592 L2.2,4.608 L1.744,4.64 C1.584,4.648 1.432,4.656 1.28,4.672 C1.376,4.592 1.48,4.504 1.576,4.416 C1.672,4.328 1.776,4.24 1.872,4.144 C2.048,3.976 2.232,3.808 2.408,3.632 C2.584,3.464 2.76,3.296 2.944,3.12 C3.184,2.896 3.36,2.64 3.48,2.352 C3.6,2.064 3.664,1.752 3.664,1.424 C3.664,1.216 3.616,1.024 3.528,0.848 C3.432,0.68 3.304,0.528 3.16,0.4 C3.008,0.28 2.84,0.184 2.648,0.112 C2.456,0.04 2.272,-4.54747351e-13 2.08,-4.54747351e-13 C1.84,-4.54747351e-13 1.6,0.032 1.368,0.096 C1.136,0.168 0.928,0.28 0.744,0.44 C0.68,0.488 0.624,0.552 0.56,0.624 C0.496,0.704 0.432,0.784 0.376,0.864 C0.312,0.952 0.264,1.04 0.232,1.128 C0.192,1.224 0.176,1.312 0.176,1.392 C0.176,1.504 0.216,1.6 0.304,1.68 C0.384,1.76 0.48,1.8 0.592,1.8 C0.664,1.8 0.728,1.784 0.784,1.744 C0.832,1.712 0.88,1.672 0.928,1.616 C0.96,1.584 0.984,1.544 1.016,1.504 C1.032,1.464 1.056,1.424 1.088,1.376 C1.12,1.296 1.168,1.208 1.232,1.112 C1.328,0.96 1.432,0.84 1.56,0.76 C1.688,0.68 1.856,0.64 2.064,0.64 C2.176,0.64 2.288,0.664 2.392,0.712 C2.488,0.76 2.576,0.824 2.656,0.904 C2.728,0.984 2.784,1.08 2.832,1.184 C2.872,1.296 2.896,1.408 2.896,1.52 C2.896,1.808 2.816,2.064 2.664,2.288 C2.512,2.528 2.336,2.736 2.144,2.912 L1.384,3.608 C1.136,3.84 0.88,4.056 0.608,4.264 C0.528,4.328 0.456,4.384 0.392,4.448 C0.328,4.512 0.264,4.568 0.2,4.632 C0.144,4.688 0.096,4.744 0.056,4.808 C0.016,4.872 2.27373675e-13,4.952 2.27373675e-13,5.032 C2.27373675e-13,5.176 0.048,5.28 0.152,5.344 C0.256,5.416 0.368,5.448 0.488,5.448 C0.52,5.448 0.56,5.448 0.6,5.44 C0.632,5.432 0.664,5.424 0.712,5.408 C0.752,5.4 0.792,5.392 0.824,5.384 L0.936,5.368 C1.24,5.336 1.544,5.296 1.848,5.264 C2.152,5.24 2.456,5.224 2.76,5.224 C2.928,5.224 3.096,5.24 3.272,5.264 C3.44,5.296 3.608,5.304 3.784,5.304 C3.864,5.304 3.928,5.28 3.984,5.216 C4.032,5.152 4.064,5.088 4.064,5.008 Z" id="路径"></path>
                    </g>
                    <g id="3" transform="translate(24.6772, 15.5163) rotate(14) translate(-24.6772, -15.5163)translate(22.6292, 12.7763)" fill="#000000" fill-rule="nonzero">
                        <path d="M4.096,3.608 C4.096,3.424 4.056,3.264 3.992,3.12 C3.928,2.976 3.832,2.856 3.72,2.752 C3.608,2.648 3.48,2.56 3.336,2.488 C3.184,2.424 3.032,2.368 2.872,2.32 C3.064,2.192 3.216,2.048 3.32,1.872 C3.424,1.696 3.48,1.488 3.48,1.232 C3.48,0.992 3.424,0.784 3.32,0.624 C3.216,0.472 3.08,0.352 2.92,0.256 C2.752,0.16 2.568,0.096 2.368,0.056 C2.16,0.024 1.96,0 1.768,0 C1.624,0 1.464,0.016 1.296,0.048 C1.12,0.08 0.968,0.12 0.824,0.176 C0.68,0.24 0.552,0.304 0.456,0.384 C0.36,0.472 0.312,0.568 0.312,0.672 C0.312,0.76 0.336,0.848 0.4,0.928 C0.456,1.016 0.536,1.056 0.648,1.056 C0.696,1.056 0.744,1.056 0.792,1.04 C0.84,1.024 0.888,1.008 0.936,0.984 C0.984,0.968 1.032,0.944 1.088,0.912 L1.248,0.832 C1.352,0.784 1.464,0.736 1.576,0.696 C1.68,0.664 1.792,0.64 1.92,0.64 C2.016,0.64 2.104,0.656 2.2,0.672 C2.288,0.688 2.368,0.72 2.448,0.768 C2.52,0.816 2.584,0.872 2.632,0.944 C2.672,1.016 2.696,1.104 2.696,1.208 C2.696,1.352 2.656,1.472 2.592,1.584 C2.52,1.696 2.432,1.8 2.336,1.88 C2.232,1.968 2.12,2.032 2.008,2.08 C1.896,2.136 1.792,2.176 1.704,2.192 C1.624,2.208 1.536,2.216 1.448,2.216 C1.424,2.216 1.4,2.224 1.384,2.224 L1.32,2.224 C1.232,2.224 1.152,2.24 1.08,2.256 C1.008,2.272 0.952,2.304 0.912,2.336 C0.848,2.384 0.824,2.456 0.824,2.552 C0.824,2.664 0.872,2.76 0.968,2.832 C1.056,2.912 1.152,2.952 1.264,2.952 C1.336,2.952 1.408,2.944 1.472,2.928 C1.536,2.912 1.592,2.888 1.656,2.864 L1.832,2.8 C1.896,2.784 1.96,2.776 2.024,2.776 C2.048,2.776 2.072,2.784 2.104,2.784 C2.12,2.784 2.144,2.792 2.176,2.792 C2.2,2.8 2.224,2.808 2.256,2.816 L2.336,2.832 C2.44,2.864 2.544,2.896 2.648,2.936 C2.752,2.984 2.848,3.04 2.936,3.104 C3.016,3.168 3.088,3.248 3.144,3.336 C3.192,3.432 3.216,3.536 3.216,3.648 C3.216,3.84 3.168,4.008 3.08,4.152 C2.992,4.296 2.88,4.416 2.744,4.512 C2.6,4.616 2.44,4.688 2.264,4.736 C2.088,4.784 1.92,4.808 1.752,4.808 C1.656,4.808 1.56,4.808 1.48,4.8 C1.4,4.792 1.304,4.768 1.208,4.728 C1.128,4.704 1.064,4.672 1,4.632 L0.776,4.504 C0.696,4.464 0.624,4.432 0.56,4.4 C0.488,4.368 0.424,4.352 0.368,4.352 C0.264,4.352 0.176,4.384 0.104,4.448 C0.032,4.52 1.70530257e-13,4.608 1.70530257e-13,4.712 C1.70530257e-13,4.824 0.04,4.92 0.12,5 C0.192,5.08 0.272,5.144 0.368,5.184 C0.448,5.232 0.56,5.264 0.688,5.296 C0.816,5.336 0.944,5.368 1.08,5.392 C1.216,5.424 1.352,5.44 1.48,5.456 C1.608,5.472 1.728,5.48 1.824,5.48 C2.096,5.48 2.36,5.44 2.632,5.36 C2.904,5.28 3.144,5.152 3.368,4.992 C3.576,4.84 3.752,4.648 3.896,4.416 C4.024,4.184 4.096,3.912 4.096,3.608 Z" id="路径"></path>
                    </g>
                </g>
            </g>
        </g>
    </g>
</svg>