<?xml version="1.0" encoding="UTF-8"?>
<svg width="25px" height="25px" viewBox="0 0 25 25" version="1.1" xmlns="http://www.w3.org/2000/svg" xmlns:xlink="http://www.w3.org/1999/xlink">
    <title>首页</title>
    <defs>
        <linearGradient x1="0%" y1="50%" x2="100%" y2="69.5986142%" id="linearGradient-1">
            <stop stop-color="#BCE9A1" offset="0%"></stop>
            <stop stop-color="#66E396" offset="100%"></stop>
        </linearGradient>
        <path d="M13.9675873,2.3832129 L23.7340249,11.4883626 C23.9831766,11.72041 24.0667085,12.0842218 23.9443716,12.4044993 C23.8220347,12.7247767 23.5189246,12.9358194 23.1810917,12.9359387 L22.2144827,12.9348973 L22.2144827,20.224849 C22.2144827,20.7772534 21.9987224,21.3070327 21.6146665,21.6976416 C21.2306107,22.0882505 20.7097192,22.3076923 20.1665822,22.3076923 L5.83127862,22.3076923 C5.28814164,22.3076923 4.76725013,22.0882505 4.38319428,21.6976416 C3.99913844,21.3070327 3.78337812,20.7772534 3.78337812,20.224849 L3.78337812,12.9348973 L2.81779302,12.9348973 C2.48044043,12.9343112 2.17793969,12.7234401 2.0557001,12.4036477 C1.93346051,12.0838553 2.01648318,11.7205474 2.26485989,11.4883626 L12.0302735,2.3832129 C12.5783382,1.87226237 13.4195226,1.87226237 13.9675873,2.3832129 Z" id="path-2"></path>
    </defs>
    <g id="页面-1" stroke="none" stroke-width="1" fill="none" fill-rule="evenodd">
        <g id="画板" transform="translate(-448, -518)">
            <g id="首页" transform="translate(448, 518)">
                <rect id="矩形" x="0" y="0" width="25" height="25"></rect>
                <g id="形状结合" fill-rule="nonzero">
                    <use fill="#CCCCCC" xlink:href="#path-2"></use>
                    <use fill="url(#linearGradient-1)" xlink:href="#path-2"></use>
                </g>
                <path d="M13.9675873,2.3832129 L23.7340249,11.4883626 C23.9831766,11.72041 24.0667085,12.0842218 23.9443716,12.4044993 C23.8220347,12.7247767 23.5189246,12.9358194 23.1810917,12.9359387 L22.2144827,12.9348973 L22.2144827,20.224849 C22.2144827,20.7772534 21.9987224,21.3070327 21.6146665,21.6976416 C21.2306107,22.0882505 20.7097192,22.3076923 20.1665822,22.3076923 L5.83127862,22.3076923 C5.28814164,22.3076923 4.76725013,22.0882505 4.38319428,21.6976416 C3.99913844,21.3070327 3.78337812,20.7772534 3.78337812,20.224849 L3.78337812,12.9348973 L2.81779302,12.9348973 C2.48044043,12.9343112 2.17793969,12.7234401 2.0557001,12.4036477 C1.93346051,12.0838553 2.01648318,11.7205474 2.26485989,11.4883626 L12.0302735,2.3832129 C12.5783382,1.87226237 13.4195226,1.87226237 13.9675873,2.3832129 Z M12.999,3.531 L4.522,11.434 L5.28337812,11.4348973 L5.28337812,20.224849 C5.28337812,20.3847444 5.34521731,20.5365847 5.45278854,20.6459914 C5.55552003,20.7504758 5.69133552,20.8076923 5.83127862,20.8076923 L20.1665822,20.8076923 C20.3065253,20.8076923 20.4423408,20.7504758 20.5450723,20.6459914 C20.6526435,20.5365847 20.7144827,20.3847444 20.7144827,20.224849 L20.7144827,11.4332803 L21.476,11.434 L12.999,3.531 Z" id="形状结合" fill="#000000" fill-rule="nonzero"></path>
                <rect id="矩形" fill="#000000" fill-rule="nonzero" transform="translate(13, 17.5) rotate(-90) translate(-13, -17.5)" x="12" y="14" width="2" height="7" rx="1"></rect>
            </g>
        </g>
    </g>
</svg>