<svg width="20" height="20" viewBox="0 0 20 20" fill="none" xmlns="http://www.w3.org/2000/svg">
<path d="M18.5 10.5C18.5 6.0403 14.6944 2.425 10 2.425C5.30558 2.425 1.5 6.0403 1.5 10.5C1.5 14.9597 5.30558 18.575 10 18.575V20C4.47715 20 0 15.7467 0 10.5C0 5.25329 4.47715 1 10 1C15.5228 1 20 5.25329 20 10.5C20 12.6386 19.2563 14.6123 18.001 16.2C17.6298 16.6695 18.9546 19.1287 18.5 19.525C17.9642 19.9921 15.6336 18.3809 15 18.729C13.5291 19.5373 11.8214 20 10 20V18.575C11.5507 18.575 13.0003 18.1813 14.249 17.4951L14.4209 17.4125C14.8203 17.2436 15.2031 17.2442 15.4336 17.2623C15.7178 17.2845 15.9832 17.3513 16.1904 17.4135C16.3308 17.4556 16.476 17.5067 16.6201 17.5601C16.581 17.4198 16.5452 17.2796 16.5166 17.1463C16.4756 16.9553 16.4342 16.7112 16.4346 16.4588C16.4349 16.2506 16.4596 15.7775 16.8018 15.3446L16.9961 15.0876C17.9448 13.785 18.5 12.2059 18.5 10.5ZM9.25 10.5455C9.66418 10.5455 9.99994 10.8645 10 11.258C10 11.6515 9.66421 11.9705 9.25 11.9705H5.75C5.33579 11.9705 5 11.6515 5 11.258C5.00006 10.8645 5.33582 10.5455 5.75 10.5455H9.25ZM14.25 7.53774C14.6642 7.53774 15 7.85674 15 8.25024C14.9999 8.64364 14.6641 8.96274 14.25 8.96274H5.75C5.33587 8.96274 5.00014 8.64364 5 8.25024C5 7.85674 5.33579 7.53774 5.75 7.53774H14.25Z" fill="#333333"/>
</svg>
