<?xml version="1.0" encoding="UTF-8"?>
<svg width="32px" height="31px" viewBox="0 0 32 31" version="1.1" xmlns="http://www.w3.org/2000/svg" xmlns:xlink="http://www.w3.org/1999/xlink">
    <title>在线充值</title>
    <g id="页面-1" stroke="none" stroke-width="1" fill="none" fill-rule="evenodd">
        <g id="画板" transform="translate(-705, -676)">
            <g id="在线充值" transform="translate(705.1, 676)">
                <rect id="矩形" x="0" y="0" width="31" height="31"></rect>
                <g id="编组-6" transform="translate(2, 1)">
                    <ellipse id="椭圆形" fill="#FFBC2E" cx="13.7503116" cy="19.2510546" rx="12" ry="8.5"></ellipse>
                    <path d="M12.2724231,13.0403252 C11.9995083,12.6405473 11.4556778,12.5348871 11.0529235,12.80339 C10.6501692,13.0718928 10.5385362,13.6145287 10.8025946,14.0202108 L12.2429794,16.180199 L10.9486353,16.180199 C10.4607964,16.180199 10.0653249,16.5756705 10.0653249,17.0635094 C10.0653249,17.5513482 10.4607964,17.9468197 10.9486353,17.9468197 L13.0096928,17.9468197 L13.0096928,19.1245669 L10.9486353,19.1245669 C10.4607964,19.1245669 10.0653249,19.5200384 10.0653249,20.0078772 C10.0653249,20.4957161 10.4607964,20.8911876 10.9486353,20.8911876 L13.0096928,20.8911876 L13.0096928,22.7555613 C13.0096928,23.2434001 13.4051643,23.6388717 13.8930031,23.6388717 C14.3808419,23.6388717 14.7763135,23.2434001 14.7763135,22.7555613 L14.7763135,20.8911876 L16.837371,20.8911876 C17.3252098,20.8911876 17.7206813,20.4957161 17.7206813,20.0078772 C17.7206813,19.5200384 17.3252098,19.1245669 16.837371,19.1245669 L14.7763135,19.1245669 L14.7763135,17.9468197 L16.837371,17.9468197 C17.3252098,17.9468197 17.7206813,17.5513482 17.7206813,17.0635094 C17.7206813,16.5756705 17.3252098,16.180199 16.837371,16.180199 L15.5430269,16.180199 L16.9834116,14.0202108 C17.1626431,13.7576645 17.1869742,13.41906 17.0471219,13.1335853 C16.9072696,12.8481105 16.6248072,12.6598023 16.3075028,12.6405058 C15.9901983,12.6212094 15.6869984,12.7739014 15.5135832,13.0403252 L13.8930031,15.4711952 L12.2724231,13.0403252 Z" id="路径" fill="#333333" fill-rule="nonzero"></path>
                    <path d="M7.29610099,0.140672265 C8.00062072,-0.0945558071 8.68250309,-0.0251137632 9.38716689,0.276885017 C9.43267777,0.296389678 9.47926559,0.317410208 9.52695724,0.339927211 C9.70856248,0.425669788 9.90154911,0.530662524 10.1189455,0.659552502 C10.2514535,0.738113835 10.3396409,0.792557354 10.5750538,0.939690405 L10.8515335,1.11105228 C11.3038879,1.38190425 11.594108,1.5014286 11.8386909,1.5129837 C12.0995201,1.52416449 12.3668741,1.40770189 12.7162916,1.05828415 C13.3629555,0.412942612 14.0797922,0.0710975919 14.8532471,0.0208908552 C15.4869916,-0.0198830946 16.1056492,0.132282837 16.7838193,0.441169431 C16.8585229,0.474747541 16.9352163,0.511099396 17.01543,0.550815435 C17.1427282,0.613844323 17.2769909,0.684354055 17.4261279,0.765894213 C17.4419971,0.774570628 17.4565237,0.782522735 17.4703541,0.790111735 L17.5501507,0.834178056 C17.6183009,0.872084922 17.7013538,0.918974119 17.8800842,1.01999565 C18.0727268,1.12751601 18.1607156,1.17633906 18.2380545,1.21721819 C18.6405834,1.43516197 18.9001786,1.5333641 19.0440885,1.5333641 C20.0313371,1.5333641 21.1230671,1.76462822 21.9234657,2.22387331 C22.4570866,2.52857924 22.8676201,2.93547384 23.1027719,3.44928048 C23.3695123,4.0302109 23.3848017,4.69230723 23.1503133,5.39712013 C22.9692337,5.93660958 22.6332516,6.40925106 22.1610714,6.81934029 L21.9382494,7.01286156 L22.165777,7.20082786 C24.1746247,8.86038791 25.6885531,10.8407302 26.8268187,13.6913432 C27.1589306,14.5171771 27.4174637,15.8265345 27.4841642,17.1392005 C27.563223,18.758268 27.3602515,20.2706184 26.816182,21.4947746 C25.6190578,24.1859841 23.7432928,25.9823885 21.2353786,27.0255965 C19.1804227,27.8815138 16.7953097,28.2182789 13.750116,28.2182789 C10.7041881,28.2182789 8.31991516,27.8816324 6.26347512,27.0256204 C3.75635875,25.9821179 1.88107089,24.1855037 0.685495123,21.4947955 C0.139126077,20.268278 -0.0645376235,18.7537735 0.0175036755,17.1392005 C0.0827615827,15.828718 0.34056175,14.5191397 0.671893199,13.691554 C1.86658681,10.7029859 3.45212715,8.69535746 5.6023714,6.98251333 L5.88454235,6.75774126 L5.57500335,6.57246165 C5.179166,6.33552676 4.87271949,6.01779012 4.66511863,5.60258841 C3.65166371,3.57708221 4.81963867,0.966595312 7.29610099,0.140672265 Z M8.20237542,7.18681402 L8.03283912,7.23527035 L8.01035843,7.25176844 C5.01681112,9.38993352 3.54242304,10.9684488 2.20781448,14.3055687 C1.94909335,14.9497307 1.72574984,16.0835324 1.66903623,17.2217611 C1.60035725,18.6017294 1.76982815,19.8662724 2.19573366,20.8235056 C3.21643784,23.1207816 4.77590481,24.6138806 6.89975666,25.4985527 C8.71846768,26.2567947 10.9060425,26.5659424 13.750116,26.5659424 C16.5941895,26.5659424 18.7817643,26.2567947 20.6005482,25.4985223 C22.7236065,24.6148452 24.2830606,23.1210486 25.3045285,20.8234378 C25.7296489,19.8648056 25.8997206,18.5986315 25.8311965,17.2217755 C25.7744822,16.0835324 25.5511387,14.9497308 25.2922804,14.3052266 C24.1348373,11.4091287 22.6425272,9.61036201 20.4512607,7.95306841 L20.3416547,7.87017149 L20.2129284,7.9182849 C19.9050601,8.03335533 19.5923691,8.13508539 19.2757281,8.22319113 C17.6043929,8.69312874 15.4906418,8.93052946 13.3021314,8.93052946 C12.8141368,8.93052946 12.3945235,8.85100994 12.0164973,8.69169892 C11.7055022,8.55986344 11.4522909,8.38974653 11.1717795,8.14930822 C11.0885583,8.07956173 11.0683786,8.06162427 10.9123279,7.92087254 C10.566328,7.61434845 10.4582185,7.54023432 10.191876,7.46063772 C9.86969157,7.36257826 9.48475058,7.30019245 8.93220811,7.24741229 L8.41229173,7.20406758 L8.20237542,7.18681402 Z M8.73628819,1.79766925 C8.37631309,1.6420043 8.10021037,1.6148535 7.81899809,1.70988387 C6.26763394,2.22653475 5.59280239,3.76517135 6.14513559,4.86194727 C6.29868068,5.17475364 6.72632538,5.36214851 7.63066636,5.47152309 C7.88106275,5.50120995 8.11380834,5.5220895 8.46903471,5.54873148 C8.61335301,5.56046679 8.61335301,5.56046679 8.76562726,5.57297753 C8.88383152,5.58282788 8.98561035,5.59178847 9.08726239,5.60143899 C9.6270958,5.6420775 10.156834,5.73448998 10.6738053,5.87777381 C11.2297547,6.04547342 11.6037239,6.30389028 12.113415,6.77280613 C12.1564182,6.81282128 12.2011485,6.85302834 12.2465589,6.89245903 C12.3618723,7.00089772 12.501937,7.09542698 12.6542902,7.16600947 C12.8752157,7.25098281 13.0940928,7.28630425 13.3132932,7.2765078 C15.3543298,7.27675709 17.3201303,7.05622608 18.8262409,6.63128278 C19.6213802,6.40829196 20.2715658,6.13351791 20.7485043,5.8180985 C21.1988455,5.51931476 21.4700991,5.20236754 21.5799074,4.87493933 C21.6884732,4.55067054 21.6823923,4.32006493 21.5987211,4.13817095 C21.5220398,3.96946608 21.3578237,3.80618841 21.1015973,3.6584814 C20.5814366,3.35938879 19.7680466,3.18713647 19.0440885,3.18713647 C18.5511639,3.18713647 18.0897453,3.01772263 17.4526071,2.67431598 C17.3732983,2.63151435 17.2942775,2.5877832 17.1978587,2.53358702 C17.0766251,2.46520292 17.0766251,2.46520292 16.9594647,2.39921018 C16.7621964,2.28775212 16.6876544,2.24603046 16.5848006,2.19026482 C16.4106241,2.09582921 16.2573715,2.0185235 16.1005019,1.94735823 C15.6471165,1.74141367 15.2803862,1.65099771 14.9577006,1.67137785 C14.5969113,1.69557526 14.2544503,1.8584778 13.8860165,2.22832323 C13.2238162,2.88916785 12.5152597,3.20064298 11.7590598,3.16444879 C11.1767693,3.1358834 10.666815,2.92870537 10.0050176,2.53080227 L9.78806404,2.40012337 L9.42821735,2.17547169 C9.11505945,1.98117119 8.94939987,1.88982565 8.73628819,1.79766925 Z" id="形状结合" fill="#000000" fill-rule="nonzero"></path>
                </g>
            </g>
        </g>
    </g>
</svg>