<?xml version="1.0" encoding="UTF-8"?>
<svg width="20px" height="21px" viewBox="0 0 20 21" version="1.1" xmlns="http://www.w3.org/2000/svg" xmlns:xlink="http://www.w3.org/1999/xlink">
    <title>客服</title>
    <g id="页面-1" stroke="none" stroke-width="1" fill="none" fill-rule="evenodd">
        <g id="我的" transform="translate(-27, -546)" fill="#333333" fill-rule="nonzero">
            <g id="编组-10" transform="translate(15, 537)">
                <g id="客服" transform="translate(12, 9)">
                    <path d="M10.0229885,0.0804597701 C8.2183908,0.0804597701 6.44827586,0.563218391 4.91954023,1.48275862 C4.05747126,0.528735632 2.8045977,0 1.37931034,0 C1.11494253,0 0.873563218,0.137931034 0.747126437,0.367816092 C0.620689655,0.597701149 0.632183908,0.873563218 0.770114943,1.10344828 C0.781609195,1.11494253 1.51724138,2.32183908 1.71264368,4.18390805 C1.74712644,4.55172414 2.05747126,4.82758621 2.42528736,4.82758621 L2.49425287,4.82758621 C2.88505747,4.79310345 3.17241379,4.43678161 3.13793103,4.04597701 C3.04597701,3.08045977 2.81609195,2.26436782 2.5862069,1.64367816 C3.13793103,1.82758621 3.73563218,2.18390805 4.14942529,2.83908046 L4.16091954,2.85057471 L4.16091954,2.86206897 C4.18390805,2.89655172 4.2183908,2.91954023 4.25287356,2.95402299 C4.28735632,2.98850575 4.32183908,3.03448276 4.35632184,3.05747126 C4.40229885,3.08045977 4.44827586,3.09195402 4.48275862,3.11494253 C4.52873563,3.12643678 4.56321839,3.14942529 4.6091954,3.16091954 C4.65517241,3.17241379 4.70114943,3.16091954 4.74712644,3.16091954 C4.79310345,3.16091954 4.83908046,3.17241379 4.88505747,3.16091954 C4.93103448,3.14942529 4.96551724,3.12643678 5.01149425,3.11494253 C5.05747126,3.09195402 5.10344828,3.09195402 5.13793103,3.06896552 L5.14942529,3.05747126 L5.16091954,3.05747126 C6.5862069,2.05747126 8.27586207,1.52873563 10.0229885,1.52873563 C14.7471264,1.52873563 18.5977011,5.40229885 18.5977011,10.1609195 C18.5977011,14.9195402 14.7586207,18.7931034 10.0229885,18.7931034 C5.28735632,18.7931034 1.44827586,14.9310345 1.44827586,10.1609195 C1.44827586,8.94252874 1.70114943,7.77011494 2.18390805,6.65517241 C2.34482759,6.28735632 2.18390805,5.87356322 1.81609195,5.70114943 C1.44827586,5.54022989 1.03448276,5.70114943 0.862068966,6.06896552 C0.287356322,7.35632184 0,8.73563218 0,10.1609195 C0,15.7126437 4.48275862,20.2413793 10,20.2413793 C15.5172414,20.2413793 20,15.7241379 20,10.1609195 C20,4.59770115 15.5402299,0.0804597701 10.0229885,0.0804597701 Z" id="路径"></path>
                    <path d="M13.3678161,9.09195402 C13.3678161,9.85372609 13.9853544,10.4712644 14.7471264,10.4712644 C15.5088985,10.4712644 16.1264368,9.85372609 16.1264368,9.09195402 C16.1264368,8.33018195 15.5088985,7.71264368 14.7471264,7.71264368 C13.9853544,7.71264368 13.3678161,8.33018195 13.3678161,9.09195402 Z" id="路径"></path>
                    <path d="M8.62068966,9.09195402 C8.62068966,9.58473416 8.8835847,10.0400818 9.31034482,10.2864719 C9.73710493,10.5328619 10.2628951,10.5328619 10.6896552,10.2864719 C11.1164153,10.0400818 11.3793103,9.58473416 11.3793103,9.09195402 C11.3793103,8.33018195 10.7617721,7.71264368 10,7.71264368 C9.23822793,7.71264368 8.62068966,8.33018195 8.62068966,9.09195402 L8.62068966,9.09195402 Z" id="路径"></path>
                </g>
            </g>
        </g>
    </g>
</svg>