<?xml version="1.0" encoding="UTF-8"?>
<svg width="20px" height="21px" viewBox="0 0 20 21" version="1.1" xmlns="http://www.w3.org/2000/svg" xmlns:xlink="http://www.w3.org/1999/xlink">
    <title>设置</title>
    <g id="页面-1" stroke="none" stroke-width="1" fill="none" fill-rule="evenodd">
        <g id="我的" transform="translate(-27, -414)" fill="#000000" fill-rule="nonzero">
            <g id="编组-10" transform="translate(15, 405)">
                <g id="设置" transform="translate(12, 9)">
                    <path d="M11.9468687,10.0280478 C11.9468687,8.96760522 11.0872102,8.1079467 10.0267677,8.1079467 C8.96632516,8.1079467 8.10666663,8.96760522 8.10666663,10.0280478 C8.10666663,11.0884903 8.96632516,11.9481488 10.0267677,11.9481488 C11.0872102,11.9481488 11.9468687,11.0884903 11.9468687,10.0280478 Z M13.2269361,10.0280478 C13.2269361,11.795452 11.7941719,13.2282162 10.0267677,13.2282162 C8.25936347,13.2282162 6.82659927,11.795452 6.82659927,10.0280478 C6.82659927,8.26064354 8.25936347,6.82787934 10.0267677,6.82787934 C11.7941719,6.82787934 13.2269361,8.26064354 13.2269361,10.0280478 Z" id="形状"></path>
                    <path d="M11.0943439,2.34764355 C11.0744286,1.77276842 10.6026277,1.31702897 10.0274077,1.31702897 C9.45218773,1.31702897 8.98038682,1.77276842 8.96047157,2.34764355 L8.96047157,2.4948513 C8.95653267,3.31131009 8.46892482,4.04774874 7.71880622,4.37014999 C7.66150066,4.39328452 7.60113006,4.40794596 7.53959679,4.41367228 C6.79727426,4.68864943 5.96295209,4.51121891 5.39676402,3.9579683 L5.34172112,3.90164533 C4.94617606,3.46509651 4.27163068,3.43185639 3.83508185,3.82740145 C3.39853302,4.2229465 3.36529288,4.89749188 3.76083792,5.33404072 L3.83124163,5.41084476 L3.88756459,5.46716772 C4.46120424,6.05567366 4.62751719,6.9300766 4.30998682,7.68808461 L4.31254696,7.68808461 C4.02259999,8.47764063 3.27940311,9.00965588 2.43852833,9.02959521 L2.42316753,9.03087527 L2.34636348,9.03087527 C1.7574644,9.03087527 1.28006737,9.50827231 1.28006737,10.0971714 C1.28006737,10.6860705 1.7574644,11.1634675 2.34636348,11.1634675 L2.49357123,11.1634675 C3.30757392,11.1673136 4.04233914,11.6519674 4.36630979,12.3987325 L4.42263275,12.5421001 C4.68331578,13.2787942 4.50206717,14.099627 3.95540816,14.6580514 L3.90036527,14.7143744 C3.51312815,15.1035157 3.48219283,15.7222222 3.82868149,16.1480498 L3.90036527,16.2248539 C4.31765214,16.6415277 4.99355789,16.6415277 5.41084476,16.2248539 L5.46588766,16.1685309 C6.05660913,15.5910221 6.93645342,15.424947 7.69704508,15.7473887 C8.4812957,16.0401415 9.00845063,16.7806928 9.02831514,17.6175672 L9.02831514,17.708452 C9.03029384,18.1387403 9.29009984,18.5258868 9.68754091,18.6907885 C10.084982,18.8556902 10.5425529,18.7661896 10.8485709,18.4636917 C11.0486187,18.26326 11.1609522,17.9916338 11.1609074,17.708452 L11.1609074,17.5599641 C11.1651046,16.7466918 11.6498098,16.012853 12.3961724,15.6897857 C13.1114525,15.3735472 13.9443869,15.492254 14.5428454,15.9957218 L14.6554913,16.0981272 L14.7118142,16.1557302 C15.018568,16.4585588 15.476384,16.5492154 15.8753955,16.3861424 C16.2045733,16.2495051 16.4438537,15.95761 16.513257,15.6080231 C16.5826603,15.2584363 16.4730313,14.8972724 16.2210137,14.6452507 L16.1659708,14.5889278 C15.582175,13.9922485 15.4186295,13.1011028 15.752509,12.3360092 L15.8177925,12.2016021 C16.1683639,11.5248923 16.865688,11.0988046 17.6278077,11.0956239 L17.7071719,11.0956239 C18.2715981,11.0617465 18.7119896,10.5941297 18.7119896,10.0286878 C18.7119896,9.46324584 18.2715981,8.99562905 17.7071719,8.96175164 L17.5586841,8.96175164 C16.7428526,8.95779676 16.0071734,8.47002585 15.6859455,7.72008629 C15.661586,7.66169466 15.646055,7.60000195 15.6398631,7.53703666 C15.3670687,6.7957535 15.5454478,5.96364946 16.0981272,5.39932415 L16.1544502,5.34300119 L16.2235738,5.26491708 C16.5740435,4.84176738 16.54407,4.22120475 16.1544502,3.83380176 L16.1531701,3.8325217 C15.7360308,3.41669924 15.06111,3.41669924 14.6439707,3.8325217 L14.5876477,3.88884466 C13.9887448,4.47373898 13.0944486,4.63587766 12.3283288,4.29846622 C11.5820433,3.97482482 11.0978122,3.24044102 11.0943439,2.42700773 L11.0943439,2.34764355 L11.0943439,2.34764355 Z M12.3744112,2.42188746 L12.3820916,2.53325332 C12.4222329,2.79600378 12.5949492,3.01951898 12.8390757,3.12464444 L12.845476,3.12720458 C13.1328254,3.25371515 13.46822,3.19291855 13.6928806,2.97359649 L13.738963,2.92751407 C14.5301109,2.13218198 15.7735618,2.00812619 16.7062478,2.63147597 C17.6389337,3.25482574 17.999905,4.45117847 17.5676445,5.48636873 C17.4499966,5.77158208 17.2773133,6.03082455 17.0594578,6.24928889 L17.0581777,6.24800882 L17.0133754,6.29409124 L16.9391315,6.38113582 C16.7792018,6.6023875 16.7489743,6.89198692 16.8597673,7.14149584 C16.8800512,7.19034408 16.8942389,7.24150555 16.9020095,7.29382386 C17.037631,7.53190232 17.2898142,7.67970019 17.5638043,7.68168427 L17.7071719,7.68168427 C18.9820347,7.71145933 20,8.75347736 20,10.0286878 C20,11.3038982 18.9820347,12.3459162 17.7071719,12.3756913 L17.632928,12.3756913 L17.5215621,12.3846518 C17.2588961,12.4240752 17.0352429,12.5964141 16.930171,12.8403558 L16.9276109,12.8467561 C16.8011003,13.1341054 16.8618969,13.4695 17.0812189,13.6941607 L17.1273014,13.7402431 C17.7989955,14.4121925 18.0000408,15.4224701 17.6367682,16.3003779 C17.5180071,16.5844831 17.3444558,16.8424178 17.1260213,17.0594578 L17.1285814,17.0594578 C16.2112817,17.9766997 14.7241064,17.9766997 13.8068066,17.0594578 L13.7607242,17.0146554 L13.6723995,16.9404115 C13.4511612,16.7817145 13.1625991,16.7515445 12.9133196,16.8610474 L12.9081993,16.8636075 C12.6272763,16.9842649 12.444046,17.2593615 12.4409747,17.5650844 L12.4409747,17.708452 C12.4406296,18.6575551 11.8688445,19.5130842 10.9920382,19.8764126 C10.1152318,20.239741 9.10591236,20.0393852 8.43436388,19.3686993 C7.99459055,18.9281343 7.74779536,18.3309452 7.74824777,17.708452 L7.74824777,17.6470087 L7.73800723,17.5318027 C7.69049424,17.2623861 7.50325849,17.0385809 7.24646136,16.9442517 L7.20805934,16.9276109 C6.92075354,16.800733 6.58514571,16.8615682 6.36065475,17.0812189 L6.31457232,17.1285814 C5.72371746,17.7327934 4.85371241,17.9728122 4.03663414,17.7570237 C3.21955588,17.5412352 2.58151052,16.9029438 2.3660371,16.0857824 C2.15056368,15.268621 2.39091789,14.3987085 2.99535764,13.8080867 L3.04144006,13.7620043 C3.26054062,13.5377508 3.32134189,13.2028371 3.19504815,12.9158797 L3.19248801,12.9094794 C3.07145746,12.6277113 2.7951062,12.4443145 2.48845096,12.4422548 L2.34636348,12.4422548 C1.05050271,12.4422548 0,11.3917521 0,10.0958913 C0,8.80003055 1.05050271,7.74952784 2.34636348,7.74952784 L2.40780672,7.74952784 C2.72328249,7.7427731 3.00252607,7.54374858 3.11184377,7.24774143 L3.12592451,7.20933941 C3.2354274,6.96005988 3.20525734,6.67149785 3.04656033,6.45025946 L2.97231643,6.36193481 L2.926234,6.31585239 C2.01210492,5.39826444 2.01210492,3.91422565 2.926234,2.99663771 C3.36640465,2.55553283 3.96396516,2.30764401 4.58712141,2.30764401 C5.21027766,2.30764401 5.80783817,2.55553283 6.24800882,2.99663771 L6.29281118,3.04272013 L6.37985576,3.11568397 C6.60096638,3.27578361 6.89044154,3.30648552 7.14021577,3.19632822 L7.26566237,3.15536606 L7.29510392,3.15152586 C7.53091824,3.01538919 7.67702499,2.76457259 7.67912413,2.49229116 L7.67912413,2.34764355 C7.67912413,1.05107582 8.73019995,0 10.0267677,0 C11.3233354,0 12.3744112,1.05107582 12.3744112,2.34764355 L12.3744112,2.42188746 Z" id="形状"></path>
                </g>
            </g>
        </g>
    </g>
</svg>