<svg width="20" height="20" viewBox="0 0 20 20" fill="none" xmlns="http://www.w3.org/2000/svg">
<path d="M11.6269 7.00285L10.7375 7.09854C10.226 7.15321 9.47215 7.4232 8.5529 7.94577C7.65159 8.45814 6.65825 9.1747 5.67946 10.0399C3.81673 11.6865 2.09019 13.8002 1.14455 15.9545C2.70475 15.1113 4.50841 14.2901 6.16289 13.669C7.85371 13.0343 9.53088 12.5517 10.6348 12.5517H11.6269V18.9776H10.6348V13.5723C8.81459 13.5723 4.52054 15.2515 1.38384 16.9782C0.675111 17.3683 -0.144469 16.8372 0.0217213 16.0961L0.0682232 15.9446C2.02994 10.9819 7.82291 6.38342 10.6348 6.08287V1.02244H11.6269L11.6269 7.00285ZM19.7657 9.3412C20.0781 9.72158 20.0781 10.2785 19.7657 10.6589L12.3845 19.6365C11.8248 20.3172 10.777 19.9778 10.6484 19.1491L10.6348 18.9776H11.6269L19.0081 10L11.6269 1.02244H10.6348L10.6484 0.850002C10.769 0.077001 11.6892 -0.269599 12.2663 0.240996L12.3845 0.363595L19.7657 9.3412Z" fill="black"/>
</svg>
