<?xml version="1.0" encoding="UTF-8"?>
<svg width="31px" height="31px" viewBox="0 0 31 31" version="1.1" xmlns="http://www.w3.org/2000/svg" xmlns:xlink="http://www.w3.org/1999/xlink">
    <title>今日更新</title>
    <g id="页面-1" stroke="none" stroke-width="1" fill="none" fill-rule="evenodd">
        <g id="画板" transform="translate(-544, -676)">
            <g id="今日更新" transform="translate(544, 676)">
                <rect id="矩形" x="0" y="0" width="31" height="31"></rect>
                <g id="编组-3" transform="translate(2, 2)">
                    <ellipse id="椭圆形" fill="#61B5EF" cx="14" cy="15" rx="13" ry="12"></ellipse>
                    <circle id="椭圆形" stroke="#000000" stroke-width="1.8" cx="14" cy="14" r="13.1"></circle>
                    <g id="收藏" transform="translate(6, 7)" fill="#000000" fill-rule="nonzero" stroke="#000000">
                        <path d="M6.84860277,0.618149799 C7.10450628,0.232108058 7.53684254,0 8,0 C8.46315746,0 8.89549372,0.232108058 9.15139723,0.618149799 L10.6274235,2.84358583 C10.7690801,3.04912388 10.7888114,3.31510267 10.6790337,3.53929305 C10.569256,3.76348342 10.3470533,3.91099614 10.0978294,3.92513457 C9.84860546,3.939273 9.61114534,3.81783687 9.47671702,3.60750025 L8,1.38206422 L5.87126199,4.59036663 C5.6877022,4.86704451 5.41062944,5.06835135 5.09077077,5.15743149 L1.38102001,6.19140969 L3.7742962,9.20769745 C3.98049122,9.46775939 4.08616555,9.79336384 4.07198798,10.1249473 L3.90898273,13.9721474 L7.51720056,12.6280448 C7.82817384,12.5122332 8.17044476,12.5122332 8.48141804,12.6280448 L12.0903266,13.9721474 L11.9259399,10.1249473 C11.9119576,9.79327709 12.0178801,9.46766326 12.2243224,9.20769745 L14.61898,6.19140969 L12.1435105,5.50209089 C11.9006339,5.44041117 11.7102149,5.2520241 11.6459331,5.00982321 C11.5816513,4.76762231 11.6535912,4.5096034 11.8339166,4.33560296 C12.0142421,4.16160252 12.2746641,4.09891727 12.5144165,4.17180231 L14.9891953,4.86112111 C15.4351888,4.98532872 15.7893084,5.32469339 15.9323735,5.76500029 C16.0754385,6.20530719 15.9884245,6.68800549 15.7006165,7.05064073 L13.3073403,10.0662378 L13.4710363,13.9134379 C13.4909686,14.3761614 13.2776864,14.818082 12.9030221,15.0903631 C12.5283578,15.3626441 12.042175,15.4290481 11.6082178,15.2672103 L8,13.922417 L4.39178217,15.2672103 C3.95782498,15.4290481 3.4716422,15.3626441 3.0969779,15.0903631 C2.72231361,14.818082 2.50903141,14.3761614 2.52896374,13.9134379 L2.69265969,10.0662378 L0.299383505,7.04995003 C0.0115755055,6.68731479 -0.075438473,6.20461649 0.067626545,5.76430959 C0.210691563,5.32400269 0.564811173,4.98463802 1.01080471,4.86043041 L4.71986477,3.82783361 L6.84860277,0.618840499 L6.84860277,0.618149799 Z" id="路径" stroke-width="0.2"></path>
                        <path d="M7.22434368,9.04344468 C7.12082643,8.88995784 6.94328829,8.80335595 6.75860615,8.81626109 C6.57392402,8.82916624 6.41015551,8.93961784 6.32899063,9.10600983 C6.24782575,9.27240182 6.26159538,9.46945531 6.36511263,9.62294215 L6.79610956,9.33561087 C6.65196969,9.43090665 6.50830229,9.52691516 6.36511263,9.62363285 L6.36649403,9.62501425 L6.36787543,9.62639565 L6.37063824,9.63123055 L6.37961734,9.64366316 C6.41529832,9.69389771 6.45405148,9.74187781 6.49565497,9.7873288 C6.57163199,9.87366632 6.68283472,9.98417835 6.83064457,10.0953811 C7.12764565,10.3184772 7.57936358,10.5443362 8.17750995,10.5443362 C8.77565632,10.5443362 9.22737425,10.3184772 9.52437533,10.0953811 C9.68350943,9.9756496 9.82631237,9.83563306 9.94915596,9.67888887 C9.96020716,9.66507486 9.96918626,9.65333296 9.97540256,9.64366316 L9.98438167,9.63123055 L9.98783517,9.62639565 L9.98852587,9.62501425 L9.98921657,9.62363285 C9.98921657,9.62363285 9.98990727,9.62294215 9.55891034,9.33561087 L9.98990727,9.62294215 C10.0920673,9.46846825 10.1040563,9.27122675 10.021358,9.1055166 C9.93865967,8.93980645 9.77383799,8.83080297 9.58897964,8.81956672 C9.4041213,8.80833046 9.22731067,8.89656849 9.12515062,9.05104239 C9.06022278,9.13180558 8.98551586,9.20419241 8.90274516,9.26654085 C8.73973991,9.38879478 8.50075764,9.50828592 8.17750995,9.50828592 C7.85426226,9.50828592 7.61597069,9.38879478 7.45227474,9.26654085 C7.36952258,9.20417074 7.29481819,9.13178637 7.22986928,9.05104239 L7.22434368,9.04413538 L7.22434368,9.04344468 Z" id="路径" stroke-width="0.4"></path>
                    </g>
                </g>
            </g>
        </g>
    </g>
</svg>