<?xml version="1.0" encoding="UTF-8"?>
<svg width="30px" height="29px" viewBox="0 0 30 29" version="1.1" xmlns="http://www.w3.org/2000/svg" xmlns:xlink="http://www.w3.org/1999/xlink">
    <title>我的收藏</title>
    <g id="页面-1" stroke="none" stroke-width="1" fill="none" fill-rule="evenodd">
        <g id="我的" transform="translate(-213, -231)" fill-rule="nonzero">
            <g id="编组-5" transform="translate(41, 232)">
                <g id="我的收藏" transform="translate(173, 0)">
                    <path d="M9.24180725,25.923833 C8.55197739,26.1024553 7.81841467,25.9632861 7.24193764,25.5444241 C6.6654606,25.1255621 5.75154808,24.6965364 5.70830227,23.9852693 L5.45380867,19.7810342 C5.42934224,19.3764326 5.30216514,18.9847411 5.0842839,18.6429388 L3.36939751,15.5781607 C2.98621883,14.9773764 2.89173108,14.2367346 3.11180087,13.5589906 C3.33187065,12.8812465 3.84344418,12.3373985 4.50647507,12.0763281 L8.42567724,10.5361326 C8.80334584,10.3875083 9.13724146,10.1452304 9.39478899,9.83169421 L12.0720621,6.58028351 C12.5251367,6.03022134 13.2004367,5.7115675 13.9130691,5.7115675 C14.6257015,5.7115675 15.3010015,6.03022134 15.7540761,6.58028351 L18.4303313,9.83169421 C18.6878788,10.1452304 19.0207565,10.3875083 19.3984251,10.5361326 L23.3176272,12.0763281 C23.9808343,12.337187 24.4926466,12.8809458 24.7129214,13.5587143 C24.9331962,14.2364828 24.8388523,14.9772423 24.4557228,15.5781607 L23.0152621,18.7966974 C22.7974156,19.1387369 22.6691508,19.5296391 22.6457373,19.9358109 L22.3912437,24.1390279 C22.3479979,24.8502951 21.9889968,25.504971 21.4125198,25.923833 C20.8360427,26.342695 19.2827515,26.1024553 18.5929216,25.923833 L14.5159335,24.8661573 C14.1229953,24.7643599 13.7117336,24.7643599 13.3187954,24.8661573 L9.24180725,25.923833 Z" id="路径" fill="#88E0B6"></path>
                    <path d="M14,-0.1 C14.9366304,-0.1 15.8241468,0.319006958 16.4193466,1.04220105 L19.8690317,5.23354186 C20.1861634,5.6187682 20.5963199,5.91673116 21.0607156,6.09925269 L26.1131679,8.08534986 C26.9846939,8.42801852 27.6572667,9.14254172 27.9466417,10.0331828 C28.2360166,10.9238238 28.1118565,11.8972107 27.6081754,12.6866907 L24.6885494,17.2632993 C24.420096,17.6838645 24.2633537,18.1659544 24.233146,18.6639603 L23.9055428,24.0826837 C23.8490284,25.0175237 23.377308,25.8780729 22.6196234,26.428558 C21.8619388,26.979043 20.8977366,27.1617432 19.9911924,26.9266031 L14.7366408,25.5638626 C14.2535437,25.4385284 13.7464563,25.4385284 13.2633507,25.5638648 L8.00881165,26.9266021 C7.10232728,27.1617341 6.13818938,26.9790826 5.38052005,26.4286844 C4.62285071,25.8782863 4.15108373,25.0178449 4.0944572,24.0830628 L3.76685391,18.6639585 C3.73675533,18.1659658 3.58014,17.6838783 3.31181879,17.2632821 L0.391826308,12.6866934 C-0.111856481,11.8972107 -0.236016632,10.9238238 0.0533583167,10.0331828 C0.342733266,9.14254172 1.01530612,8.42801852 1.8868391,8.08534711 L6.93928963,6.09925061 C7.40368008,5.91673116 7.81383663,5.6187682 8.13096135,5.23355034 L11.5806521,1.04220267 C12.1758532,0.319006958 13.0633696,-0.1 14,-0.1 Z M14,1.61695626 C13.5766206,1.61695626 13.1754314,1.8063142 12.9063219,2.13316307 L9.45587578,6.32450716 C8.95329058,6.93518497 8.30323659,7.40758777 7.56719167,7.69703442 L2.51472826,9.68275682 C2.12062021,9.83769965 1.81648618,10.1608349 1.68567877,10.5636093 C1.55487136,10.9663837 1.61110924,11.4065555 1.83898146,11.7635037 L4.75861036,16.3401168 C5.18415552,17.0067856 5.43262759,17.7710073 5.48051561,18.5604909 L5.80812002,23.9792345 C5.8337214,24.4018583 6.04702051,24.790888 6.38958411,25.0397385 C6.73214772,25.288589 7.16806156,25.3711709 7.57790863,25.2648611 L12.8324557,23.9021217 C13.5981157,23.7031275 14.4018378,23.7031238 15.1675487,23.9017437 L20.4221005,25.2652426 C20.8319941,25.3715578 21.2679661,25.2889319 21.6105434,25.0400028 C21.9531208,24.7910737 22.1663779,24.4019465 22.1918792,23.9792472 L22.5194832,18.5608895 C22.5671237,17.7711879 22.8154667,17.0066863 23.2410143,16.3397316 L26.1610047,11.7631462 C26.3887435,11.4062205 26.4449048,10.9661455 26.3141059,10.5634659 C26.183307,10.1607862 25.8792595,9.83771469 25.4852487,9.68274777 L20.4328265,7.69704156 C19.6966353,7.40764992 19.0464422,6.93524299 18.5437401,6.32450116 L15.0936704,2.13315367 C14.8245686,1.8063142 14.4233794,1.61695626 14,1.61695626 Z" id="形状" stroke="#000000" stroke-width="0.2" fill="#000000"></path>
                    <path d="M13.6966452,10.9548922 C13.8519549,10.8950285 13.8911391,10.9135184 13.917266,10.9452381 L15.0235913,12.2893243 L17.0278256,13.2098277 C17.0717214,13.2228969 17.1060091,13.2566409 17.120007,13.2997114 C17.1327884,13.3390389 17.1273141,13.3820214 17.1051771,13.4167423 L16.1688788,14.8845213 L15.9129943,17.0751936 C15.9141048,17.120955 15.8926088,17.163962 15.8559889,17.1905696 C15.8225388,17.2148741 15.7799739,17.2229494 15.7402792,17.212671 L14.0548788,16.7754348 L11.8921649,17.2091464 C11.8489906,17.224332 11.8014552,17.2171733 11.7648407,17.1905696 C11.7313907,17.1662652 11.7105596,17.1282776 11.7080625,17.0872065 L11.6028633,15.3493162 L10.5224898,13.4265186 C10.4946584,13.3901478 10.4867496,13.3426983 10.5007353,13.2996267 C10.5135049,13.2603006 10.5431889,13.2287439 10.5811983,13.2137774 L12.2013681,12.5770718 Z" id="路径" stroke="#060606" stroke-width="1.5"></path>
                </g>
            </g>
        </g>
    </g>
</svg>