<?xml version="1.0" encoding="UTF-8"?>
<svg width="28px" height="28px" viewBox="0 0 28 28" version="1.1" xmlns="http://www.w3.org/2000/svg" xmlns:xlink="http://www.w3.org/1999/xlink">
    <title>历史记录</title>
    <g id="页面-1" stroke="none" stroke-width="1" fill="none" fill-rule="evenodd">
        <g id="我的" transform="translate(-135, -232)" fill-rule="nonzero">
            <g id="编组-5" transform="translate(41, 232)">
                <g id="历史记录" transform="translate(94, 0)">
                    <path d="M3.6353244,16.0414472 C3.6353244,21.8404371 8.56019215,26.5414472 14.6353244,26.5414472 C20.7104566,26.5414472 25.6353244,21.8404371 25.6353244,16.0414472 C25.6353244,10.2424573 20.7104566,5.54144721 14.6353244,5.54144721 C8.56019215,5.54144721 3.6353244,10.2424573 3.6353244,16.0414472 Z" id="路径" fill="#80DBB0"></path>
                    <path d="M14,1.82964754e-13 C21.7189094,1.82964754e-13 28,6.28056025 28,14 C28,21.720037 21.720037,28 14,28 C6.27996303,28 -4.4408921e-14,21.720037 -4.4408921e-14,14 C-4.4408921e-14,9.80375174 1.83933961,5.89498388 5.04327548,3.23852334 L4.97898929,3.06026885 L2.5676369,3.06026885 C2.05233449,3.06026885 1.63344114,2.6413755 1.63344114,2.12607309 C1.63344114,1.61077068 2.05233449,1.19187732 2.5676369,1.19187732 L7.29374959,1.19187732 C7.809052,1.19187732 8.22794535,1.61077068 8.22794535,2.12607309 L8.22794535,7.06434339 C8.22794535,7.5796458 7.809052,7.99853915 7.29374959,7.99853915 C6.77844718,7.99853915 6.35955382,7.5796458 6.35955382,7.06434339 L6.35955382,4.78925483 L6.1941816,4.71202519 C3.4450042,7.0134994 1.86839153,10.3845401 1.86839153,14 C1.86839153,20.6894322 7.31056785,26.1316085 14,26.1316085 C20.6894322,26.1316085 26.1316085,20.6894322 26.1316085,14 C26.1316085,7.31056785 20.6894322,1.86839153 14,1.86839153 C13.4846976,1.86839153 13.0658042,1.44949817 13.0658042,0.934195763 C13.0658042,0.418893353 13.4846976,1.82964754e-13 14,1.82964754e-13 Z" id="形状结合" fill="#000000"></path>
                    <path d="M18.2966229,16.8477416 L12.4372781,16.8477416 C11.8663499,16.8477416 11.4023629,16.3837546 11.4023629,15.8128264 L11.4023629,10.4795635 C11.4023629,9.90863529 11.8663499,9.44464832 12.4372781,9.44464832 C13.0082063,9.44464832 13.4721933,9.90863529 13.4721933,10.4795635 L13.4721933,14.7779112 L18.2966229,14.7779112 C18.8675511,14.7779112 19.3315381,15.2418982 19.3315381,15.8128264 C19.3315381,16.3837546 18.8675511,16.8477416 18.2966229,16.8477416 L18.2966229,16.8477416 Z" id="路径" fill="#2E3138"></path>
                </g>
            </g>
        </g>
    </g>
</svg>