<?xml version="1.0" encoding="UTF-8"?>
<svg width="28px" height="28px" viewBox="0 0 28 28" version="1.1" xmlns="http://www.w3.org/2000/svg" xmlns:xlink="http://www.w3.org/1999/xlink">
    <title>日常任务</title>
    <g id="页面-1" stroke="none" stroke-width="1" fill="none" fill-rule="evenodd">
        <g id="我的" transform="translate(-293, -232)">
            <g id="编组-5" transform="translate(41, 232)">
                <g id="日常任务" transform="translate(252, 0)">
                    <path d="M10.5,8 L17.5,8 C22.7467051,8 27,12.2532949 27,17.5 L27,22 C27,24.7614237 24.7614237,27 22,27 L6,27 C3.23857625,27 1,24.7614237 1,22 L1,17.5 C1,12.2532949 5.25329488,8 10.5,8 Z" id="矩形" fill="#88E0B6"></path>
                    <rect id="矩形" stroke="#000000" stroke-width="1.8" x="0.9" y="3.05384615" width="26.2" height="24.0461538" rx="6"></rect>
                    <path d="M19.3990135,14.5934194 C19.7014613,14.2910629 20.1761212,14.2658665 20.5072957,14.5178549 L20.5927623,14.5923923 C20.7514352,14.7508888 20.8405916,14.9659621 20.8405916,15.1902347 C20.8405916,15.4145074 20.7514352,15.6295807 20.5927623,15.7880771 L13.5016162,22.8792232 C13.3430018,23.0380141 13.1279285,23.1271705 12.9036558,23.1271705 C12.6793832,23.1271705 12.4643099,23.0380141 12.3058134,22.8793412 L8.76196745,19.3332052 C8.53851556,19.1173226 8.45041862,18.8031462 8.52774982,18.507707 C8.60508102,18.2122678 8.83580584,17.9815429 9.13124505,17.9042117 C9.42668426,17.8268805 9.74086066,17.9149775 9.95302036,18.1346425 L12.6932413,20.8749275 L12.9053734,21.0870595 L13.1175054,20.8749275 Z" id="形状结合" fill="#000000" fill-rule="nonzero"></path>
                    <path d="M9.51538462,0 C10.0124409,-1.11022302e-16 10.4153846,0.402943725 10.4153846,0.9 L10.4153846,5.56153846 C10.4153846,6.05859474 10.0124409,6.46153846 9.51538462,6.46153846 C9.01832834,6.46153846 8.61538462,6.05859474 8.61538462,5.56153846 L8.61538462,0.9 C8.61538462,0.402943725 9.01832834,1.11022302e-16 9.51538462,0 Z M18.1307692,0 C18.6278255,-1.11022302e-16 19.0307692,0.402943725 19.0307692,0.9 L19.0307692,5.56153846 C19.0307692,6.05859474 18.6278255,6.46153846 18.1307692,6.46153846 C17.633713,6.46153846 17.2307692,6.05859474 17.2307692,5.56153846 L17.2307692,0.9 C17.2307692,0.402943725 17.633713,1.11022302e-16 18.1307692,0 Z" id="形状结合" fill="#000000"></path>
                    <rect id="矩形" fill="#000000" x="1.07692308" y="9.69230769" width="25.8461538" height="1.8" rx="0.9"></rect>
                </g>
            </g>
        </g>
    </g>
</svg>