<?xml version="1.0" encoding="UTF-8"?>
<svg width="25px" height="25px" viewBox="0 0 25 25" version="1.1" xmlns="http://www.w3.org/2000/svg" xmlns:xlink="http://www.w3.org/1999/xlink">
    <title>个人</title>
    <defs>
        <linearGradient x1="7.9872523%" y1="50%" x2="92.0127477%" y2="73.0011514%" id="linearGradient-1">
            <stop stop-color="#BCE9A1" offset="0%"></stop>
            <stop stop-color="#66E396" offset="100%"></stop>
        </linearGradient>
        <path d="M13.002515,16.5456521 C23.0908338,16.5456521 22.9908324,22.7911915 22.9908324,22.7911915 C23.0671971,23.3584719 22.6581006,23.8184781 22.0762746,23.8184781 L3.92875536,23.8184781 C3.34692927,23.8184781 2.91510523,23.3521082 3.01419748,22.7911915 C3.01419748,22.7911915 2.9123779,16.5456521 13.002515,16.5456521 Z M12.9997876,2 L19.3635104,2 L19.3635104,8.3637228 C19.3635104,11.8783099 16.5143747,14.7274456 12.9997876,14.7274456 C9.48520059,14.7274456 6.63606485,11.8783099 6.63606485,8.3637228 C6.63606485,4.84913574 9.48520059,2 12.9997876,2 Z" id="path-2"></path>
    </defs>
    <g id="页面-1" stroke="none" stroke-width="1" fill="none" fill-rule="evenodd">
        <g id="画板" transform="translate(-698, -521)">
            <g id="个人" transform="translate(698, 521)">
                <rect id="矩形" x="0" y="0" width="25" height="25"></rect>
                <g id="形状" fill-rule="nonzero">
                    <use fill="#CCCCCC" xlink:href="#path-2"></use>
                    <use fill="url(#linearGradient-1)" xlink:href="#path-2"></use>
                </g>
                <path d="M13.002515,16.5456521 C22.5800328,16.5456521 22.9748394,22.1747434 22.9902661,22.744778 L22.9908324,22.7911915 C23.0671971,23.3584719 22.6581006,23.8184781 22.0762746,23.8184781 L3.92875536,23.8184781 C3.34692927,23.8184781 2.91510523,23.3521082 3.01419748,22.7911915 L3.01475058,22.744778 C3.03001567,22.1747434 3.42327092,16.5456521 13.002515,16.5456521 Z M13.002515,18.0456521 C9.01926835,18.0456521 6.63938897,19.0343602 5.4007277,20.5993446 C5.00532513,21.0989153 4.75404124,21.6296058 4.61661455,22.157948 C4.60526491,22.2015822 4.5950511,22.2435211 4.58588242,22.2836248 L4.578,22.318 L21.426,22.318 L21.4190959,22.2843786 L21.3883513,22.1587168 C21.2508093,21.6301683 20.9993524,21.0992396 20.6037037,20.5994499 C19.3647361,19.0343663 16.984986,18.0456521 13.002515,18.0456521 Z M19.3635104,2 L19.3635104,8.3637228 C19.3635104,11.8783099 16.5143747,14.7274456 12.9997876,14.7274456 C9.48520059,14.7274456 6.63606485,11.8783099 6.63606485,8.3637228 C6.63606485,4.84913574 9.48520059,2 12.9997876,2 L19.3635104,2 Z M17.863,3.5 L12.9997876,3.5 C10.3136277,3.5 8.13606485,5.67756287 8.13606485,8.3637228 C8.13606485,11.0498827 10.3136277,13.2274456 12.9997876,13.2274456 C15.6859476,13.2274456 17.8635104,11.0498827 17.8635104,8.3637228 L17.863,3.5 Z" id="形状" fill="#000000" fill-rule="nonzero"></path>
                <circle id="椭圆形" fill="#000000" fill-rule="nonzero" cx="11" cy="8" r="1"></circle>
                <circle id="椭圆形备份" fill="#000000" fill-rule="nonzero" cx="15" cy="8" r="1"></circle>
            </g>
        </g>
    </g>
</svg>