<?xml version="1.0" encoding="UTF-8"?>
<svg width="28px" height="27px" viewBox="0 0 28 27" version="1.1" xmlns="http://www.w3.org/2000/svg" xmlns:xlink="http://www.w3.org/1999/xlink">
    <title>作品索引</title>
    <g id="页面-1" stroke="none" stroke-width="1" fill="none" fill-rule="evenodd">
        <g id="首页" transform="translate(-125, -354)">
            <g id="作品索引" transform="translate(125.9022, 354)">
                <path d="M2,6.4361627 L14.0978189,6.4361627 C17.4115274,6.4361627 20.0978189,9.1224542 20.0978189,12.4361627 L20.0978189,26 L20.0978189,26 L8,26 C4.6862915,26 2,23.3137085 2,20 L2,6.4361627 L2,6.4361627 Z" id="矩形" fill="#61B5EF"></path>
                <path d="M21.2424642,1 L5.82273884,1 C3.21738415,1 1.09781893,3.11837529 1.09781893,5.72372998 L1.09781893,22.2735927 C1.09781893,24.8792449 3.21738415,27 5.82273884,27 L21.2424642,27 C23.8478189,27 25.9673842,24.8792449 25.9673842,22.2735927 L25.9673842,5.72372998 C25.9673842,3.11837529 23.8478189,1 21.2424642,1 Z M7.85811642,2.84439359 L13.7554162,2.84439359 L13.7554162,11.2110984 L11.2146153,10.030984 C10.9694715,9.91717072 10.6867396,9.91662701 10.4411599,10.0294966 L7.8584139,11.2170481 L7.85811642,2.84439359 Z M24.1229906,22.2735927 C24.122007,23.8642967 22.8331676,25.1538017 21.2424642,25.1556064 L5.82273884,25.1556064 C4.23203553,25.1538017 2.94319605,23.8642967 2.94221253,22.2735927 L2.94221253,5.72372998 C2.94467127,4.1340715 4.23307949,2.84619551 5.82273884,2.84439359 L6.01372282,2.84439359 L6.01372282,12.65627 C6.01344355,12.9709608 6.17365267,13.2640703 6.43868045,13.4337483 C6.70370823,13.6034263 7.03696394,13.6262464 7.32264731,13.4942792 L10.8255077,11.8834096 L14.2891004,13.4942792 C14.574712,13.6269531 14.9082802,13.6047075 15.1737449,13.4352825 C15.4392096,13.2658574 15.5998636,12.9726802 15.5998098,12.6577574 L15.5998098,2.84439359 L21.2424642,2.84439359 C22.8321236,2.84619551 24.1205318,4.1340715 24.1229906,5.72372998 L24.1229906,22.2735927 Z" id="形状" fill="#000000" fill-rule="nonzero"></path>
            </g>
        </g>
    </g>
</svg>