<?xml version="1.0" encoding="UTF-8"?>
<svg width="20px" height="20px" viewBox="0 0 20 20" version="1.1" xmlns="http://www.w3.org/2000/svg" xmlns:xlink="http://www.w3.org/1999/xlink">
    <title>钱包 2</title>
    <g id="页面-1" stroke="none" stroke-width="1" fill="none" fill-rule="evenodd">
        <g id="我的" transform="translate(-46, -183)">
            <g id="钱包-2" transform="translate(46, 183)">
                <path d="M9.5,8 L17,8 C18.6568542,8 20,9.34314575 20,11 L20,16 C20,17.6568542 18.6568542,19 17,19 L9.5,19 C6.46243388,19 4,16.5375661 4,13.5 C4,10.4624339 6.46243388,8 9.5,8 Z" id="矩形" fill="#80DBB0"></path>
                <path d="M16.5542819,3.51865375 C16.5407957,3.46953567 16.5407957,3.4204176 16.5183187,3.37129953 L16.057541,2.38893806 C15.5877725,1.39094811 14.7538773,0.631850618 13.7042032,0.252301869 C12.6567768,-0.12501424 11.5261857,-0.0781288065 10.5192178,0.386260251 L4.94268375,2.97165702 C4.73140031,3.06989317 4.58305237,3.24403906 4.5111261,3.44497664 L4.16722859,3.44497664 C1.87008316,3.44497664 0,5.30253287 0,7.58429064 L0,15.860686 C0,18.1424438 1.87008316,20 4.16722859,20 L15.8327714,20 C18.1299168,20 20,18.1424438 20,15.860686 L20,7.582058 C19.9977523,5.54812323 18.5075298,3.86024762 16.5542819,3.51865375 Z M11.2249944,1.88882677 C11.8273769,1.60974681 12.5039335,1.58295513 13.1355361,1.81068438 C13.764891,2.03841363 14.2661272,2.49387213 14.5470892,3.08998693 L14.7134187,3.44497664 L7.86468869,3.44497664 L11.2249944,1.88882677 Z M18.3322095,14.2063 L14.7358957,14.2063 C13.358058,14.2063 12.2364576,13.0922128 12.2364576,11.7236046 C12.2364576,10.3549965 13.358058,9.24090929 14.7358957,9.24090929 L18.3322095,9.24090929 L18.3322095,14.2063 L18.3322095,14.2063 Z M14.7358957,7.58429064 C12.4387503,7.58429064 10.5686671,9.44184687 10.5686671,11.7236046 C10.5686671,14.0053624 12.4387503,15.8629186 14.7358957,15.8629186 L18.3322095,15.8629186 C18.3322095,17.2315268 17.2106091,18.345614 15.8327714,18.345614 L4.16722859,18.345614 C2.78939087,18.345614 1.66779051,17.2315268 1.66779051,15.8629186 L1.66779051,7.58429064 C1.66779051,6.2156825 2.78939087,5.10159529 4.16722859,5.10159529 L15.8327714,5.10159529 C17.2106091,5.10159529 18.3322095,6.2156825 18.3322095,7.58429064 L14.7358957,7.58429064 Z" id="形状" fill="#333333" fill-rule="nonzero"></path>
                <path d="M15.3658537,11.7073171 C15.3658537,12.8073965 16.2576442,13.699187 17.3577236,13.699187 C18.457803,13.699187 19.3495935,12.8073965 19.3495935,11.7073171 C19.3495935,10.6072377 18.457803,9.71544715 17.3577236,9.71544715 C16.2576442,9.71544715 15.3658537,10.6072377 15.3658537,11.7073171 L15.3658537,11.7073171 Z" id="路径" fill="#333333" fill-rule="nonzero"></path>
            </g>
        </g>
    </g>
</svg>