<?xml version="1.0" encoding="UTF-8"?>
<svg width="28px" height="28px" viewBox="0 0 28 28" version="1.1" xmlns="http://www.w3.org/2000/svg" xmlns:xlink="http://www.w3.org/1999/xlink">
    <title>成功</title>
    <g id="页面-1" stroke="none" stroke-width="1" fill="none" fill-rule="evenodd">
        <g id="画板备份" transform="translate(-268, -72)" fill-rule="nonzero">
            <g id="成功" transform="translate(268, 72)">
                <path d="M14,4.6629367e-16 C21.7322,4.6629367e-16 28,6.26780001 28,14 C28,21.7322 21.7322,28 14,28 C6.26780001,28 4.6629367e-16,21.7322 4.6629367e-16,14 C4.6629367e-16,6.26780001 6.26780001,4.6629367e-16 14,4.6629367e-16 Z" id="形状" fill="#54C38E"></path>
                <path d="M11.5402,18.06 L8.56799999,15.0878 C8.21649581,14.7238604 7.69597084,14.5779017 7.20648941,14.7060233 C6.71700798,14.8341449 6.33474486,15.216408 6.2066233,15.7058894 C6.07850173,16.1953709 6.22446043,16.7158958 6.58840002,17.0674 L10.549,21.028 C11.0956998,21.5745347 11.9819002,21.5745347 12.5286,21.028 L22.4266,11.1286 C22.7991883,10.7792097 22.9519259,10.2546336 22.825133,9.75984161 C22.6983401,9.26504958 22.3121422,8.87857834 21.81744,8.75143546 C21.3227378,8.62429257 20.7980538,8.77665902 20.4484,9.149 L11.5388,18.0572 L11.5402,18.06 Z" id="路径" fill="#FFFFFF"></path>
            </g>
        </g>
    </g>
</svg>