<?xml version="1.0" encoding="UTF-8"?>
<svg width="322px" height="20px" viewBox="0 0 322 20" version="1.1" xmlns="http://www.w3.org/2000/svg" xmlns:xlink="http://www.w3.org/1999/xlink">
    <title>启动页文案</title>
    <defs>
        <linearGradient x1="0%" y1="50%" x2="100%" y2="49.9131944%" id="linearGradient-1">
            <stop stop-color="#EEEEEE" offset="0%"></stop>
            <stop stop-color="#D8D8D8" stop-opacity="0" offset="100%"></stop>
        </linearGradient>
        <linearGradient x1="0%" y1="50%" x2="100%" y2="49.9131944%" id="linearGradient-2">
            <stop stop-color="#D8D8D8" stop-opacity="0" offset="0%"></stop>
            <stop stop-color="#EEEEEE" offset="100%"></stop>
        </linearGradient>
    </defs>
    <g id="页面-1" stroke="none" stroke-width="1" fill="none" fill-rule="evenodd">
        <g id="启动页" transform="translate(-27, -672)">
            <g id="启动页文案" transform="translate(27, 672)">
                <g id="畅听全网热播高能广播剧" transform="translate(63.5341, 3.312)" fill="#FFFFFF" fill-rule="nonzero">
                    <path d="M5.02591045,9.616 C5.01524378,9.94666667 4.91124378,10.1546667 4.71391045,10.24 C4.51657711,10.3253333 4.22591045,10.3733333 3.84191045,10.384 C3.67124378,10.384 3.54857711,10.3893333 3.47391045,10.4 L3.48991045,12.016 C3.48991045,12.5813333 3.47391045,13.1253333 3.44191045,13.648 C3.40991045,14.1386667 3.14857711,14.384 2.65791045,14.384 C2.46591045,14.384 2.29524378,14.3093333 2.14591045,14.16 C1.99657711,14.0106667 1.92191045,13.84 1.92191045,13.648 L1.93791045,12.32 C1.95924378,11.5306667 1.96457711,10.9386667 1.95391045,10.544 L1.61791045,10.56 C1.31924378,10.5813333 1.09524378,10.592 0.945910448,10.592 C0.647243781,10.592 0.455243781,10.4826667 0.369910448,10.264 C0.284577114,10.0453333 0.239243781,9.82666667 0.233910448,9.608 C0.228577114,9.38933333 0.225910448,9.24266667 0.225910448,9.168 C0.183243781,8.50666667 0.156577114,8.01066667 0.145910448,7.68 L0.0979104478,6.56 C0.0872437811,5.824 0.0552437811,5.07733333 0.00191044776,4.32 C-0.0194228856,3.95733333 0.137910448,3.728 0.473910448,3.632 C0.809910448,3.536 1.12191045,3.488 1.40991045,3.488 C1.69791045,3.488 1.87391045,3.488 1.93791045,3.488 L1.92191045,1.792 L1.93791045,1.696 C1.98057711,1.632 2.03391045,1.54933333 2.09791045,1.448 C2.16191045,1.34666667 2.23391045,1.272 2.31391045,1.224 C2.39391045,1.176 2.49791045,1.152 2.62591045,1.152 C2.86057711,1.152 3.05524378,1.224 3.20991045,1.368 C3.36457711,1.512 3.44191045,1.696 3.44191045,1.92 L3.44191045,3.408 C3.53791045,3.39733333 3.70857711,3.38133333 3.95391045,3.36 C4.19924378,3.33866667 4.41791045,3.328 4.60991045,3.328 C4.78057711,3.328 4.94591045,3.4 5.10591045,3.544 C5.26591045,3.688 5.34591045,3.84533333 5.34591045,4.016 C5.34591045,4.18666667 5.34057711,4.33333333 5.32991045,4.456 C5.31924378,4.57866667 5.30857711,4.68266667 5.29791045,4.768 L5.24991045,5.744 C5.23924378,5.968 5.22857711,6.24533333 5.21791045,6.576 C5.20724378,6.90666667 5.18591045,7.29066667 5.15391045,7.728 C5.13257711,8.15466667 5.11124378,8.46933333 5.08991045,8.672 L5.02591045,9.616 Z M12.6899104,7.328 C12.8392438,8.10666667 12.9139104,8.95466667 12.9139104,9.872 C12.9139104,11.0453333 12.7059104,12.0906667 12.2899104,13.008 C11.8739104,13.9253333 11.1539104,14.384 10.1299104,14.384 C9.75657711,14.384 9.46057711,14.3306667 9.24191045,14.224 C9.02324378,14.1173333 8.91391045,13.8933333 8.91391045,13.552 C8.91391045,13.3386667 8.98857711,13.1653333 9.13791045,13.032 C9.28724378,12.8986667 9.47391045,12.832 9.69791045,12.832 C9.75124378,12.832 9.79924378,12.8373333 9.84191045,12.848 C9.88457711,12.8586667 9.93257711,12.864 9.98591045,12.864 C10.2632438,12.864 10.4605771,12.832 10.5779104,12.768 L10.4819104,12.8 L10.6419104,12.736 C10.6952438,12.64 10.7592438,12.5706667 10.8339104,12.528 L10.7859104,12.608 C10.8072438,12.5866667 10.8259104,12.5626667 10.8419104,12.536 C10.8579104,12.5093333 10.8712438,12.4853333 10.8819104,12.464 L10.8979104,12.448 C10.9725771,12.32 11.0152438,12.2293333 11.0259104,12.176 L11.0259104,12.208 L11.0419104,12.16 L11.0419104,12.144 L11.0579104,12.112 C11.2819104,11.568 11.3939104,10.864 11.3939104,10 C11.3939104,9.072 11.3512438,8.34133333 11.2659104,7.808 L11.2659104,8 C11.2659104,7.78666667 11.2499104,7.57866667 11.2179104,7.376 L11.2179104,7.472 C11.1752438,7.25866667 11.1325771,7.11466667 11.0899104,7.04 C11.0365771,7.36 10.9432438,7.70133333 10.8099104,8.064 C10.6765771,8.42666667 10.5992438,8.63466667 10.5779104,8.688 C10.1619104,9.84 9.54857711,10.9413333 8.73791045,11.992 C7.92724378,13.0426667 7.03124378,13.8826667 6.04991045,14.512 C5.95391045,14.576 5.84191045,14.608 5.71391045,14.608 C5.48991045,14.608 5.29791045,14.5413333 5.13791045,14.408 C4.97791045,14.2746667 4.89791045,14.1013333 4.89791045,13.888 C4.89791045,13.76 4.93257711,13.6346667 5.00191045,13.512 C5.07124378,13.3893333 5.15924378,13.2853333 5.26591045,13.2 C5.35124378,13.1253333 5.44191045,13.0666667 5.53791045,13.024 C5.58057711,12.992 5.62857711,12.96 5.68191045,12.928 C5.73524378,12.896 5.79391045,12.8533333 5.85791045,12.8 C6.46591045,12.3306667 7.04191045,11.7333333 7.58591045,11.008 L7.58591045,11.024 C7.62857711,10.9813333 7.68991045,10.896 7.76991045,10.768 C7.84991045,10.64 7.90057711,10.56 7.92191045,10.528 C8.34857711,9.89866667 8.71124378,9.24266667 9.00991045,8.56 C9.00991045,8.56 9.00724378,8.56266667 9.00191045,8.568 C8.99657711,8.57333333 8.99391045,8.576 8.99391045,8.576 L9.00991045,8.544 L9.07391045,8.384 C9.07391045,8.39466667 9.06324378,8.42133333 9.04191045,8.464 C9.25524378,8.00533333 9.41524378,7.54133333 9.52191045,7.072 L9.13791045,7.168 C9.10591045,7.31733333 9.03124378,7.49333333 8.91391045,7.696 C8.89257711,7.728 8.80724378,7.90933333 8.65791045,8.24 C8.20991045,9.2 7.76724378,9.992 7.32991045,10.616 C6.89257711,11.24 6.40724378,11.552 5.87391045,11.552 C5.67124378,11.552 5.50591045,11.472 5.37791045,11.312 C5.24991045,11.152 5.18591045,10.9653333 5.18591045,10.752 C5.18591045,10.5706667 5.21791045,10.44 5.28191045,10.36 C5.34591045,10.28 5.42857711,10.216 5.52991045,10.168 C5.63124378,10.12 5.71391045,10.0746667 5.77791045,10.032 C5.86324378,9.98933333 5.95124378,9.912 6.04191045,9.8 C6.13257711,9.688 6.18857711,9.62133333 6.20991045,9.6 L6.17791045,9.616 C6.56191045,9.104 6.94591045,8.42133333 7.32991045,7.568 C7.29791045,7.57866667 7.17257711,7.62133333 6.95391045,7.696 C6.73524378,7.77066667 6.53524378,7.808 6.35391045,7.808 C6.14057711,7.808 5.96457711,7.728 5.82591045,7.568 C5.68724378,7.408 5.61791045,7.22666667 5.61791045,7.024 C5.61791045,6.94933333 5.64991045,6.82666667 5.71391045,6.656 C5.76724378,6.60266667 5.80457711,6.55466667 5.82591045,6.512 C5.91124378,6.45866667 6.00191045,6.38666667 6.09791045,6.296 C6.19391045,6.20533333 6.27391045,6.13333333 6.33791045,6.08 L9.50591045,3.376 C9.14324378,3.44 8.71124378,3.50933333 8.20991045,3.584 C7.70857711,3.65866667 7.32991045,3.71733333 7.07391045,3.76 L6.30591045,3.872 C6.26324378,3.88266667 6.20457711,3.896 6.12991045,3.912 C6.05524378,3.928 5.99657711,3.936 5.95391045,3.936 C5.75124378,3.936 5.57524378,3.86133333 5.42591045,3.712 C5.27657711,3.56266667 5.20191045,3.38133333 5.20191045,3.168 C5.20191045,2.99733333 5.23924378,2.86933333 5.31391045,2.784 C5.38857711,2.69866667 5.47657711,2.62666667 5.57791045,2.568 C5.67924378,2.50933333 5.74591045,2.46933333 5.77791045,2.448 L6.28991045,2.368 C6.67391045,2.31466667 7.35657711,2.208 8.33791045,2.048 C8.61524378,2.00533333 8.82324378,1.968 8.96191045,1.936 C9.75124378,1.78666667 10.3485771,1.712 10.7539104,1.712 C11.0632438,1.712 11.3405771,1.81333333 11.5859104,2.016 C11.8312438,2.21866667 11.9539104,2.46933333 11.9539104,2.768 C11.9539104,3.024 11.8845771,3.24 11.7459104,3.416 C11.6072438,3.592 11.4525771,3.74666667 11.2819104,3.88 C11.1112438,4.01333333 10.9939104,4.10666667 10.9299104,4.16 L10.5139104,4.496 C9.68191045,5.2 9.24457711,5.57333333 9.20191045,5.616 C9.27657711,5.60533333 9.48991045,5.57866667 9.84191045,5.536 C10.1939104,5.49333333 10.5245771,5.472 10.8339104,5.472 C11.2072438,5.472 11.5005771,5.53066667 11.7139104,5.648 C11.9272438,5.76533333 12.0899104,5.92266667 12.2019104,6.12 C12.3139104,6.31733333 12.4339104,6.608 12.5619104,6.992 L12.6899104,7.36 L12.6899104,7.328 Z M3.79391045,4.896 L3.63391045,4.896 L3.45791045,4.912 L3.45791045,5.776 C3.52191045,5.75466667 3.62324378,5.744 3.76191045,5.744 L3.79391045,5.024 L3.79391045,4.896 Z M1.95391045,6.24 C1.94324378,5.96266667 1.93791045,5.54666667 1.93791045,4.992 C1.85257711,5.00266667 1.72457711,5.008 1.55391045,5.008 L1.60191045,6.352 L1.95391045,6.24 Z M3.66591045,7.024 L3.45791045,7.072 L3.45791045,7.136 L3.47391045,8.912 L3.56991045,8.912 L3.66591045,7.024 Z M1.95391045,7.552 L1.64991045,7.648 C1.64991045,7.76533333 1.66057711,7.94133333 1.68191045,8.176 C1.68191045,8.25066667 1.68991045,8.37866667 1.70591045,8.56 C1.72191045,8.74133333 1.72457711,8.90666667 1.71391045,9.056 C1.76724378,9.04533333 1.84724378,9.04 1.95391045,9.04 L1.95391045,7.552 Z M6.08191045,9.744 C6.10324378,9.69066667 6.13524378,9.648 6.17791045,9.616 L6.08191045,9.744 Z" id="形状"></path>
                    <path d="M28.3219104,15.104 C28.1085771,15.104 27.9192438,15.0213333 27.7539104,14.856 C27.5885771,14.6906667 27.5059104,14.5013333 27.5059104,14.288 L27.5059104,5.904 L27.1379104,5.952 C26.5619104,5.99466667 26.1885771,6.05333333 26.0179104,6.128 L26.0179104,11.184 C26.0179104,11.4186667 25.9432438,11.608 25.7939104,11.752 C25.6445771,11.896 25.4525771,11.968 25.2179104,11.968 C25.0045771,11.968 24.8205771,11.8906667 24.6659104,11.736 C24.5112438,11.5813333 24.4339104,11.3973333 24.4339104,11.184 L24.4339104,4.48 C24.4339104,3.72266667 24.6579104,3.12266667 25.1059104,2.68 C25.5539104,2.23733333 26.1725771,1.86133333 26.9619104,1.552 C27.2072438,1.456 27.3619104,1.392 27.4259104,1.36 C28.6099104,0.88 29.2552438,0.64 29.3619104,0.64 C29.5859104,0.64 29.7805771,0.72 29.9459104,0.88 C30.1112438,1.04 30.1939104,1.232 30.1939104,1.456 C30.1939104,1.808 29.9965771,2.064 29.6019104,2.224 L28.4979104,2.656 C28.4019104,2.688 28.1512438,2.79466667 27.7459104,2.976 L27.4099104,3.12 C27.0899104,3.23733333 26.8472438,3.344 26.6819104,3.44 C26.5165771,3.536 26.3725771,3.672 26.2499104,3.848 C26.1272438,4.024 26.0499104,4.256 26.0179104,4.544 C26.1139104,4.512 26.7779104,4.392 28.0099104,4.184 C29.2419104,3.976 29.9432438,3.872 30.1139104,3.872 C30.3379104,3.872 30.5299104,3.95466667 30.6899104,4.12 C30.8499104,4.28533333 30.9299104,4.48 30.9299104,4.704 C30.9299104,5.04533333 30.7805771,5.272 30.4819104,5.384 C30.1832438,5.496 29.8952438,5.56266667 29.6179104,5.584 C29.3405771,5.60533333 29.1645771,5.62133333 29.0899104,5.632 L29.0899104,14.288 C29.0899104,14.5013333 29.0152438,14.6906667 28.8659104,14.856 C28.7165771,15.0213333 28.5352438,15.104 28.3219104,15.104 Z M20.2579104,10.384 C20.0232438,10.384 19.8392438,10.3333333 19.7059104,10.232 C19.5725771,10.1306667 19.4739104,10.0213333 19.4099104,9.904 C19.3459104,9.78666667 19.2499104,9.56266667 19.1219104,9.232 L18.0659104,6.672 C18.0125771,6.53333333 17.9859104,6.39466667 17.9859104,6.256 C17.9859104,5.95733333 18.0979104,5.68 18.3219104,5.424 C18.4819104,5.24266667 18.6685771,5.128 18.8819104,5.08 C19.0952438,5.032 19.3059104,5.008 19.5139104,5.008 C19.7219104,5.008 19.8685771,5.008 19.9539104,5.008 C20.0819104,5.008 20.2739104,4.99733333 20.5299104,4.976 C20.7432438,4.96533333 21.0019104,4.95466667 21.3059104,4.944 C21.6099104,4.93333333 21.9699104,4.928 22.3859104,4.928 C22.8125771,4.928 23.1645771,5.04 23.4419104,5.264 C23.7192438,5.488 23.8579104,5.808 23.8579104,6.224 L23.8259104,6.272 C23.8365771,6.54933333 23.8152438,6.896 23.7619104,7.312 L23.7139104,7.824 C23.6499104,8.58133333 23.5805771,9.08266667 23.5059104,9.328 C23.4312438,9.57333333 23.2792438,9.744 23.0499104,9.84 C22.8205771,9.936 22.3379104,10.048 21.6019104,10.176 C21.5379104,10.1866667 21.4152438,10.2133333 21.2339104,10.256 C20.8072438,10.3413333 20.4819104,10.384 20.2579104,10.384 Z M22.1779104,6.528 L21.4739104,6.56 C20.7059104,6.60266667 20.1245771,6.61866667 19.7299104,6.608 C19.7725771,6.704 19.8179104,6.8 19.8659104,6.896 C19.9139104,6.992 19.9539104,7.07733333 19.9859104,7.152 C20.0285771,7.248 20.1352438,7.48266667 20.3059104,7.856 C20.4765771,8.22933333 20.5779104,8.528 20.6099104,8.752 C20.8445771,8.70933333 21.0205771,8.68266667 21.1379104,8.672 C21.5645771,8.608 21.8685771,8.544 22.0499104,8.48 L22.2259104,6.528 L22.1779104,6.528 Z" id="形状"></path>
                    <path d="M41.0899104,14.224 L38.2419104,14.224 C38.0072438,14.224 37.8232438,14.1466667 37.6899104,13.992 C37.5565771,13.8373333 37.4899104,13.6373333 37.4899104,13.392 C37.4899104,13.2106667 37.5699104,13.056 37.7299104,12.928 C37.8899104,12.8 38.0605771,12.736 38.2419104,12.736 L41.8739104,12.736 C41.9059104,12.3626667 41.9219104,11.984 41.9219104,11.6 L41.9059104,10.944 C41.5539104,10.9653333 41.0259104,10.976 40.3219104,10.976 C40.1192438,10.976 39.9405771,10.8986667 39.7859104,10.744 C39.6312438,10.5893333 39.5539104,10.4106667 39.5539104,10.208 C39.5539104,9.96266667 39.6232438,9.78666667 39.7619104,9.68 C39.9005771,9.57333333 40.0499104,9.512 40.2099104,9.496 C40.3699104,9.48 40.6045771,9.472 40.9139104,9.472 L41.9059104,9.456 L41.9219104,9.328 L41.9219104,7.936 L40.7539104,7.92 L40.0819104,7.936 C39.7192438,7.936 39.4285771,7.88266667 39.2099104,7.776 C38.9912438,7.66933333 38.8819104,7.46133333 38.8819104,7.152 C38.8819104,7.00266667 38.9245771,6.85866667 39.0099104,6.72 C38.2845771,7.08266667 37.7192438,7.264 37.3139104,7.264 C37.0899104,7.264 36.9059104,7.18933333 36.7619104,7.04 C36.6179104,6.89066667 36.5459104,6.704 36.5459104,6.48 C36.5459104,6.256 36.6232438,6.09333333 36.7779104,5.992 C36.9325771,5.89066667 37.1592438,5.80266667 37.4579104,5.728 C37.6925771,5.664 37.8525771,5.61066667 37.9379104,5.568 C38.2792438,5.376 38.5672438,5.20533333 38.8019104,5.056 L39.3459104,4.736 L39.2819104,4.816 C39.6445771,4.51733333 40.1165771,4.05066667 40.6979104,3.416 C41.2792438,2.78133333 41.7085771,2.272 41.9859104,1.888 C42.0712438,1.77066667 42.1619104,1.68266667 42.2579104,1.624 C42.3539104,1.56533333 42.4712438,1.536 42.6099104,1.536 C42.8232438,1.536 43.0072438,1.61066667 43.1619104,1.76 C43.3165771,1.90933333 43.3939104,2.08533333 43.3939104,2.288 C43.3939104,2.32 43.3832438,2.37866667 43.3619104,2.464 C44.0979104,3.11466667 44.7725771,3.66666667 45.3859104,4.12 C45.9992438,4.57333333 46.6365771,4.93866667 47.2979104,5.216 L47.2819104,5.216 C47.3565771,5.23733333 47.5032438,5.27733333 47.7219104,5.336 C47.9405771,5.39466667 48.1085771,5.48533333 48.2259104,5.608 C48.3432438,5.73066667 48.4019104,5.89866667 48.4019104,6.112 C48.4019104,6.336 48.3325771,6.51466667 48.1939104,6.648 C48.0552438,6.78133333 47.8739104,6.848 47.6499104,6.848 C46.6899104,6.848 44.9725771,5.79733333 42.4979104,3.696 C41.5592438,4.848 40.5779104,5.75466667 39.5539104,6.416 C39.7352438,6.40533333 40.0125771,6.4 40.3859104,6.4 C40.9619104,6.4 41.5379104,6.416 42.1139104,6.448 C42.6899104,6.46933333 43.1165771,6.48 43.3939104,6.48 L45.3299104,6.48 C45.8205771,6.48 46.0659104,6.76266667 46.0659104,7.328 C46.0659104,7.56266667 45.9885771,7.728 45.8339104,7.824 C45.6792438,7.92 45.5272438,7.97333333 45.3779104,7.984 C45.2285771,7.99466667 44.9779104,8 44.6259104,8 L43.4099104,7.984 L43.4099104,8.72 C43.4099104,9.05066667 43.4045771,9.296 43.3939104,9.456 L45.1859104,9.456 C45.4099104,9.456 45.5939104,9.53066667 45.7379104,9.68 C45.8819104,9.82933333 45.9539104,10.016 45.9539104,10.24 C45.9539104,10.432 45.8765771,10.5973333 45.7219104,10.736 C45.5672438,10.8746667 45.3885771,10.944 45.1859104,10.944 L43.3779104,10.944 L43.3779104,11.888 C43.3779104,12.432 43.3725771,12.72 43.3619104,12.752 L46.6899104,12.752 C46.8925771,12.752 47.0685771,12.8266667 47.2179104,12.976 C47.3672438,13.1253333 47.4419104,13.3013333 47.4419104,13.504 C47.4419104,13.7173333 47.3699104,13.8933333 47.2259104,14.032 C47.0819104,14.1706667 46.9032438,14.24 46.6899104,14.24 L43.5379104,14.24 L41.0899104,14.224 Z" id="路径"></path>
                    <path d="M65.6979104,1.472 C66.0179104,1.80266667 66.2525771,2.696 66.4019104,4.152 C66.5512438,5.608 66.6259104,6.85333333 66.6259104,7.888 C66.6259104,8.93333333 66.5859104,10.1333333 66.5059104,11.488 C66.4259104,12.8426667 66.2845771,13.7066667 66.0819104,14.08 C65.9539104,14.304 65.8205771,14.4746667 65.6819104,14.592 C65.5432438,14.7093333 65.3619104,14.768 65.1379104,14.768 C65.0525771,14.768 64.9219104,14.7333333 64.7459104,14.664 C64.5699104,14.5946667 64.4232438,14.528 64.3059104,14.464 L63.2659104,13.904 C63.1379104,13.8293333 63.0365771,13.728 62.9619104,13.6 C62.8872438,13.472 62.8499104,13.3333333 62.8499104,13.184 C62.8499104,12.928 62.9325771,12.72 63.0979104,12.56 C63.2632438,12.4 63.4739104,12.32 63.7299104,12.32 C63.8579104,12.32 63.9832438,12.3493333 64.1059104,12.408 C64.2285771,12.4666667 64.3432438,12.5333333 64.4499104,12.608 C64.5565771,12.6826667 64.6312438,12.736 64.6739104,12.768 C64.6845771,12.7146667 64.6925771,12.6506667 64.6979104,12.576 C64.7032438,12.5013333 64.7112438,12.4426667 64.7219104,12.4 L64.6899104,12.624 C64.8499104,11.1626667 64.9299104,9.72266667 64.9299104,8.304 C64.9299104,7.38666667 64.8899104,6.32533333 64.8099104,5.12 C64.7299104,3.91466667 64.6045771,3.11466667 64.4339104,2.72 L64.2739104,2.72 C62.4925771,2.72 60.4339104,2.90133333 58.0979104,3.264 L57.5699104,3.328 C56.8125771,3.41333333 56.3059104,3.49866667 56.0499104,3.584 C56.0179104,3.89333333 56.0019104,4.368 56.0019104,5.008 L56.0019104,5.728 C56.0019104,6.976 56.0392438,8.48 56.1139104,10.24 C56.1352438,10.688 56.1565771,11.024 56.1779104,11.248 C56.2205771,11.9093333 56.2419104,12.4106667 56.2419104,12.752 C56.2419104,12.9653333 56.1539104,13.1493333 55.9779104,13.304 C55.8019104,13.4586667 55.6072438,13.536 55.3939104,13.536 C55.0099104,13.536 54.7672438,13.3813333 54.6659104,13.072 C54.5645771,12.7626667 54.5112438,12.4533333 54.5059104,12.144 C54.5005771,11.8346667 54.4979104,11.632 54.4979104,11.536 L54.4019104,9.824 C54.3272438,8.23466667 54.2899104,6.864 54.2899104,5.712 L54.2899104,4.736 C54.2899104,4.30933333 54.3032438,3.94133333 54.3299104,3.632 C54.3565771,3.32266667 54.4072438,3.03466667 54.4819104,2.768 C54.5245771,2.61866667 54.6179104,2.46133333 54.7619104,2.296 C54.9059104,2.13066667 55.0472438,2.04266667 55.1859104,2.032 C55.6019104,1.968 56.1992438,1.86666667 56.9779104,1.728 C57.1699104,1.696 57.3405771,1.66666667 57.4899104,1.64 C57.6392438,1.61333333 57.7725771,1.58933333 57.8899104,1.568 C58.1885771,1.52533333 58.5939104,1.472 59.1059104,1.408 C59.5539104,1.36533333 59.8899104,1.328 60.1139104,1.296 C61.5645771,1.09333333 62.8445771,0.992 63.9539104,0.992 C64.3272438,0.992 64.6632438,1.024 64.9619104,1.088 C65.2605771,1.152 65.5059104,1.28 65.6979104,1.472 Z M59.4259104,7.04 C59.5005771,7.09333333 59.6472438,7.192 59.8659104,7.336 C60.0845771,7.48 60.2632438,7.63466667 60.4019104,7.8 C60.5405771,7.96533333 60.6099104,8.13866667 60.6099104,8.32 C60.6099104,8.43733333 60.5805771,8.54933333 60.5219104,8.656 C60.4632438,8.76266667 60.4232438,8.84266667 60.4019104,8.896 C60.2419104,9.01333333 60.1192438,9.09066667 60.0339104,9.128 C59.9485771,9.16533333 59.8152438,9.184 59.6339104,9.184 C59.5379104,9.184 59.4205771,9.13866667 59.2819104,9.048 C59.1432438,8.95733333 59.0072438,8.856 58.8739104,8.744 C58.7405771,8.632 58.6419104,8.55466667 58.5779104,8.512 L57.9379104,9.712 C57.8632438,9.85066667 57.7592438,9.95733333 57.6259104,10.032 C57.4925771,10.1066667 57.3459104,10.144 57.1859104,10.144 C56.9619104,10.144 56.7645771,10.0586667 56.5939104,9.888 C56.4232438,9.71733333 56.3379104,9.52 56.3379104,9.296 C56.3379104,9.06133333 56.4765771,8.72 56.7539104,8.272 C57.0312438,7.824 57.1912438,7.56266667 57.2339104,7.488 C57.1699104,7.43466667 57.0419104,7.344 56.8499104,7.216 C56.6579104,7.088 56.5032438,6.952 56.3859104,6.808 C56.2685771,6.664 56.2099104,6.50666667 56.2099104,6.336 C56.2099104,6.08 56.2979104,5.86933333 56.4739104,5.704 C56.6499104,5.53866667 56.8659104,5.456 57.1219104,5.456 C57.2499104,5.456 57.3752438,5.49333333 57.4979104,5.568 C57.6205771,5.64266667 57.7325771,5.72533333 57.8339104,5.816 C57.9352438,5.90666667 58.0072438,5.968 58.0499104,6 C58.1032438,5.91466667 58.1859104,5.76266667 58.2979104,5.544 C58.4099104,5.32533333 58.5379104,5.152 58.6819104,5.024 C58.8259104,4.896 58.9939104,4.832 59.1859104,4.832 C59.4312438,4.832 59.6392438,4.91466667 59.8099104,5.08 C59.9805771,5.24533333 60.0659104,5.44533333 60.0659104,5.68 C60.0659104,5.84 60.0125771,6.024 59.9059104,6.232 C59.7992438,6.44 59.6979104,6.61866667 59.6019104,6.768 C59.5059104,6.91733333 59.4472438,7.008 59.4259104,7.04 Z M63.7459104,9.696 C63.5539104,9.696 63.4072438,9.65066667 63.3059104,9.56 C63.2045771,9.46933333 63.1005771,9.33866667 62.9939104,9.168 C62.8872438,8.99733333 62.7965771,8.87466667 62.7219104,8.8 C62.6792438,8.87466667 62.6019104,9.01866667 62.4899104,9.232 C62.3779104,9.44533333 62.2472438,9.61333333 62.0979104,9.736 C61.9485771,9.85866667 61.7832438,9.92 61.6019104,9.92 C61.4845771,9.92 61.3512438,9.888 61.2019104,9.824 C61.0525771,9.76 60.9619104,9.68 60.9299104,9.584 C60.8765771,9.53066667 60.8312438,9.45066667 60.7939104,9.344 C60.7565771,9.23733333 60.7379104,9.136 60.7379104,9.04 C60.7379104,8.90133333 60.7992438,8.72 60.9219104,8.496 C61.0445771,8.272 61.1725771,8.056 61.3059104,7.848 C61.4392438,7.64 61.5272438,7.49866667 61.5699104,7.424 C61.5165771,7.37066667 61.3965771,7.25333333 61.2099104,7.072 C61.0232438,6.89066667 60.8712438,6.70666667 60.7539104,6.52 C60.6365771,6.33333333 60.5779104,6.16 60.5779104,6 C60.5779104,5.76533333 60.6525771,5.56266667 60.8019104,5.392 C60.9512438,5.22133333 61.1432438,5.136 61.3779104,5.136 C61.5485771,5.136 61.6845771,5.168 61.7859104,5.232 C61.8872438,5.296 61.9832438,5.38133333 62.0739104,5.488 C62.1645771,5.59466667 62.2365771,5.68 62.2899104,5.744 C62.3965771,5.85066667 62.4552438,5.91466667 62.4659104,5.936 C62.4979104,5.89333333 62.5645771,5.78666667 62.6659104,5.616 C62.7672438,5.44533333 62.8819104,5.32266667 63.0099104,5.248 C63.1379104,5.17333333 63.2872438,5.136 63.4579104,5.136 C63.6819104,5.136 63.8712438,5.224 64.0259104,5.4 C64.1805771,5.576 64.2579104,5.78133333 64.2579104,6.016 C64.2579104,6.176 64.2179104,6.33333333 64.1379104,6.488 C64.0579104,6.64266667 63.9672438,6.79466667 63.8659104,6.944 C63.7645771,7.09333333 63.6872438,7.20533333 63.6339104,7.28 C63.7192438,7.35466667 63.8765771,7.536 64.1059104,7.824 C64.3352438,8.112 64.4605771,8.288 64.4819104,8.352 C64.5245771,8.39466667 64.5592438,8.46933333 64.5859104,8.576 C64.6125771,8.68266667 64.6259104,8.768 64.6259104,8.832 C64.6259104,9.06666667 64.5379104,9.26933333 64.3619104,9.44 C64.1859104,9.61066667 63.9805771,9.696 63.7459104,9.696 Z" id="形状"></path>
                    <path d="M76.9299104,10.112 C76.9299104,9.93066667 76.9645771,9.792 77.0339104,9.696 C77.1032438,9.6 77.2072438,9.49866667 77.3459104,9.392 C77.5059104,9.264 77.6072438,9.168 77.6499104,9.104 C77.7672438,8.95466667 77.8632438,8.80266667 77.9379104,8.648 C78.0125771,8.49333333 78.0925771,8.29866667 78.1779104,8.064 C78.1032438,8.01066667 77.9859104,7.92266667 77.8259104,7.8 C77.6659104,7.67733333 77.5485771,7.552 77.4739104,7.424 C77.3992438,7.296 77.3619104,7.14133333 77.3619104,6.96 C77.3619104,6.71466667 77.4525771,6.50666667 77.6339104,6.336 C77.8152438,6.16533333 78.0285771,6.08 78.2739104,6.08 C78.4019104,6.08 78.5405771,6.11733333 78.6899104,6.192 C78.8819104,5.34933333 78.9725771,4.87466667 78.9619104,4.768 C78.1939104,4.71466667 77.8099104,4.448 77.8099104,3.968 C77.8099104,3.60533333 77.9485771,3.33866667 78.2259104,3.168 C78.5032438,2.99733333 78.8285771,2.928 79.2019104,2.96 C79.2125771,2.87466667 79.2232438,2.768 79.2339104,2.64 C79.2445771,2.512 79.2499104,2.41066667 79.2499104,2.336 C79.2605771,1.96266667 79.2872438,1.65866667 79.3299104,1.424 C79.3725771,1.18933333 79.4632438,0.986666667 79.6019104,0.816 C79.7405771,0.645333333 79.9485771,0.56 80.2259104,0.56 C80.4712438,0.56 80.6845771,0.653333333 80.8659104,0.84 C81.0472438,1.02666667 81.1379104,1.24266667 81.1379104,1.488 C81.1379104,1.75466667 81.1165771,2.04266667 81.0739104,2.352 C81.0312438,2.66133333 81.0045771,2.848 80.9939104,2.912 C81.2605771,2.88 81.6072438,2.93333333 82.0339104,3.072 C82.5245771,3.232 82.8499104,3.47466667 83.0099104,3.8 C83.1699104,4.12533333 83.2499104,4.58666667 83.2499104,5.184 C83.2499104,5.51466667 83.2285771,6 83.1859104,6.64 C83.1325771,7.17333333 83.1059104,7.65866667 83.1059104,8.096 C83.1059104,8.24533333 83.1112438,8.44 83.1219104,8.68 C83.1325771,8.92 83.1539104,9.06666667 83.1859104,9.12 L83.5059104,8.928 C83.6125771,8.864 83.7299104,8.75733333 83.8579104,8.608 C83.9645771,8.49066667 84.0605771,8.40533333 84.1459104,8.352 C84.2312438,8.29866667 84.3592438,8.272 84.5299104,8.272 C84.7645771,8.272 84.9725771,8.36 85.1539104,8.536 C85.3352438,8.712 85.4259104,8.91733333 85.4259104,9.152 C85.4259104,9.42933333 85.2845771,9.712 85.0019104,10 C84.7192438,10.288 84.3859104,10.528 84.0019104,10.72 C83.6179104,10.912 83.2925771,11.008 83.0259104,11.008 C82.3432438,11.008 81.8739104,10.7146667 81.6179104,10.128 C81.3619104,9.54133333 81.2552438,8.87466667 81.2979104,8.128 L81.3619104,7.024 C81.4259104,6.17066667 81.4579104,5.52533333 81.4579104,5.088 C81.4579104,4.94933333 81.4525771,4.84266667 81.4419104,4.768 L81.4419104,4.848 L81.4259104,4.768 L81.3939104,4.752 L81.4099104,4.752 C81.3672438,4.74133333 81.3139104,4.736 81.2499104,4.736 L81.1379104,4.72 L81.1539104,4.72 C81.0685771,4.70933333 80.9459104,4.704 80.7859104,4.704 C80.6365771,5.78133333 80.4605771,6.68266667 80.2579104,7.408 C80.2899104,7.42933333 80.3885771,7.50133333 80.5539104,7.624 C80.7192438,7.74666667 80.8312438,7.87466667 80.8899104,8.008 C80.9485771,8.14133333 80.9779104,8.304 80.9779104,8.496 C80.9779104,8.73066667 80.8845771,8.928 80.6979104,9.088 C80.5112438,9.248 80.3005771,9.328 80.0659104,9.328 C80.0019104,9.328 79.9325771,9.31466667 79.8579104,9.288 C79.7832438,9.26133333 79.7192438,9.24266667 79.6659104,9.232 C79.4632438,9.66933333 79.1965771,10.0773333 78.8659104,10.456 C78.5352438,10.8346667 78.1832438,11.024 77.8099104,11.024 C77.5752438,11.024 77.3699104,10.9306667 77.1939104,10.744 C77.0179104,10.5573333 76.9299104,10.3466667 76.9299104,10.112 Z M74.7059104,11.28 C74.4499104,11.28 74.1645771,11.192 73.8499104,11.016 C73.5352438,10.84 73.2685771,10.616 73.0499104,10.344 C72.8312438,10.072 72.7219104,9.81333333 72.7219104,9.568 C72.7219104,9.33333333 72.8152438,9.13066667 73.0019104,8.96 C73.1885771,8.78933333 73.3992438,8.704 73.6339104,8.704 C73.7725771,8.704 73.8792438,8.72266667 73.9539104,8.76 C74.0285771,8.79733333 74.1352438,8.86933333 74.2739104,8.976 C74.2952438,8.54933333 74.3059104,8.23466667 74.3059104,8.032 C74.2205771,8.05333333 74.0499104,8.12266667 73.7939104,8.24 C73.4952438,8.4 73.2552438,8.48 73.0739104,8.48 C72.8392438,8.48 72.6259104,8.39733333 72.4339104,8.232 C72.2419104,8.06666667 72.1459104,7.86666667 72.1459104,7.632 C72.1459104,7.33333333 72.2045771,7.12533333 72.3219104,7.008 C72.4392438,6.89066667 72.6205771,6.78933333 72.8659104,6.704 C73.0365771,6.64 73.1645771,6.58133333 73.2499104,6.528 L73.1859104,6.576 L74.3059104,6.08 L74.3059104,5.232 L73.7459104,5.296 C73.2979104,5.36 72.9565771,5.392 72.7219104,5.392 C72.4872438,5.392 72.2792438,5.30133333 72.0979104,5.12 C71.9165771,4.93866667 71.8259104,4.73066667 71.8259104,4.496 C71.8259104,4.13333333 71.9432438,3.89333333 72.1779104,3.776 C72.4125771,3.65866667 72.7539104,3.57866667 73.2019104,3.536 L74.2579104,3.44 L74.2419104,2.992 C74.2205771,2.58666667 74.2099104,2.28266667 74.2099104,2.08 C74.2099104,1.80266667 74.3005771,1.584 74.4819104,1.424 C74.6632438,1.264 74.8925771,1.184 75.1699104,1.184 C75.5325771,1.184 75.7725771,1.32266667 75.8899104,1.6 C76.0072438,1.87733333 76.0659104,2.24 76.0659104,2.688 L76.0659104,3.264 C76.1192438,3.25333333 76.1965771,3.24 76.2979104,3.224 C76.3992438,3.208 76.4819104,3.2 76.5459104,3.2 C76.8125771,3.2 77.0259104,3.296 77.1859104,3.488 C77.3459104,3.68 77.4259104,3.904 77.4259104,4.16 C77.4259104,4.48 77.3085771,4.69866667 77.0739104,4.816 C76.8392438,4.93333333 76.5245771,5.01333333 76.1299104,5.056 L76.1299104,5.568 C76.3005771,5.61066667 76.4392438,5.72 76.5459104,5.896 C76.6525771,6.072 76.7059104,6.25066667 76.7059104,6.432 C76.7059104,6.61333333 76.6525771,6.776 76.5459104,6.92 C76.4392438,7.064 76.3005771,7.17333333 76.1299104,7.248 C76.1299104,8.10133333 76.1085771,8.74133333 76.0659104,9.168 C76.0232438,9.648 75.9752438,10.0186667 75.9219104,10.28 C75.8685771,10.5413333 75.7485771,10.7733333 75.5619104,10.976 C75.3752438,11.1786667 75.0899104,11.28 74.7059104,11.28 Z M81.8899104,12.368 C81.8899104,12.1226667 81.9859104,11.9093333 82.1779104,11.728 C82.3699104,11.5466667 82.5885771,11.456 82.8339104,11.456 C82.9725771,11.456 83.1165771,11.504 83.2659104,11.6 L85.4739104,13.2 C85.6339104,13.3173333 85.7485771,13.4293333 85.8179104,13.536 C85.8872438,13.6426667 85.9219104,13.792 85.9219104,13.984 C85.9219104,14.2613333 85.8312438,14.48 85.6499104,14.64 C85.4685771,14.8 85.2392438,14.88 84.9619104,14.88 C84.8232438,14.88 84.6792438,14.8293333 84.5299104,14.728 C84.3805771,14.6266667 84.2952438,14.5706667 84.2739104,14.56 L82.3379104,13.152 C82.1992438,13.056 82.0899104,12.9386667 82.0099104,12.8 C81.9299104,12.6613333 81.8899104,12.5173333 81.8899104,12.368 Z M71.9379104,14.944 C71.6605771,14.944 71.4365771,14.8533333 71.2659104,14.672 C71.0952438,14.4906667 71.0099104,14.2613333 71.0099104,13.984 C71.0099104,13.856 71.0259104,13.7546667 71.0579104,13.68 C71.0899104,13.6053333 71.1592438,13.4986667 71.2659104,13.36 L72.2739104,11.984 C72.4979104,11.6853333 72.7592438,11.536 73.0579104,11.536 C73.2819104,11.536 73.4872438,11.6213333 73.6739104,11.792 C73.8605771,11.9626667 73.9539104,12.16 73.9539104,12.384 C73.9539104,12.4586667 73.9432438,12.5546667 73.9219104,12.672 C73.9005771,12.7893333 73.8739104,12.864 73.8419104,12.896 L72.6899104,14.464 C72.5725771,14.6133333 72.4579104,14.7306667 72.3459104,14.816 C72.2339104,14.9013333 72.0979104,14.944 71.9379104,14.944 Z M80.9779104,14.928 C80.8072438,14.928 80.6792438,14.9013333 80.5939104,14.848 C80.5085771,14.7946667 80.4285771,14.728 80.3539104,14.648 C80.2792438,14.568 80.2259104,14.512 80.1939104,14.48 L79.1219104,13.312 C78.9405771,13.1093333 78.8499104,12.8906667 78.8499104,12.656 C78.8499104,12.4106667 78.9379104,12.1973333 79.1139104,12.016 C79.2899104,11.8346667 79.5005771,11.744 79.7459104,11.744 C79.9379104,11.744 80.0845771,11.776 80.1859104,11.84 C80.2872438,11.904 80.4125771,12.0213333 80.5619104,12.192 L81.6339104,13.376 C81.8152438,13.5786667 81.9059104,13.8026667 81.9059104,14.048 C81.9059104,14.2826667 81.8125771,14.488 81.6259104,14.664 C81.4392438,14.84 81.2232438,14.928 80.9779104,14.928 Z M77.2339104,15.216 C77.0632438,15.216 76.9245771,15.1813333 76.8179104,15.112 C76.7112438,15.0426667 76.5779104,14.928 76.4179104,14.768 L75.2819104,13.648 C75.0899104,13.456 74.9939104,13.232 74.9939104,12.976 C74.9939104,12.752 75.0925771,12.5493333 75.2899104,12.368 C75.4872438,12.1866667 75.6979104,12.096 75.9219104,12.096 C76.1779104,12.096 76.3912438,12.1813333 76.5619104,12.352 L77.8739104,13.664 C78.0445771,13.8346667 78.1299104,14.0533333 78.1299104,14.32 C78.1299104,14.5653333 78.0419104,14.776 77.8659104,14.952 C77.6899104,15.128 77.4792438,15.216 77.2339104,15.216 Z" id="形状"></path>
                    <path d="M93.2019104,14.896 C93.0099104,14.896 92.8445771,14.8213333 92.7059104,14.672 C92.5672438,14.5226667 92.4285771,14.3253333 92.2899104,14.08 L91.3299104,12.464 C91.2765771,12.3893333 91.1859104,12.2506667 91.0579104,12.048 C90.9299104,11.8453333 90.8205771,11.656 90.7299104,11.48 C90.6392438,11.304 90.5939104,11.1573333 90.5939104,11.04 C90.5939104,10.7946667 90.6739104,10.5946667 90.8339104,10.44 C90.9939104,10.2853333 91.1965771,10.208 91.4419104,10.208 C91.6445771,10.208 91.8125771,10.2773333 91.9459104,10.416 C92.0792438,10.5546667 92.1885771,10.696 92.2739104,10.84 C92.3592438,10.984 92.4125771,11.0773333 92.4339104,11.12 L92.4339104,9.232 L92.0979104,9.376 C91.5539104,9.61066667 91.2285771,9.728 91.1219104,9.728 C90.8765771,9.728 90.6685771,9.65066667 90.4979104,9.496 C90.3272438,9.34133333 90.2419104,9.14666667 90.2419104,8.912 C90.2419104,8.73066667 90.2925771,8.57866667 90.3939104,8.456 C90.4952438,8.33333333 90.6072438,8.24266667 90.7299104,8.184 C90.8525771,8.12533333 91.0419104,8.04266667 91.2979104,7.936 C91.4685771,7.86133333 91.7352438,7.76 92.0979104,7.632 L92.4339104,7.504 L92.4339104,6.16 C92.2845771,6.18133333 92.1725771,6.20266667 92.0979104,6.224 C91.7245771,6.27733333 91.4952438,6.304 91.4099104,6.304 C91.1965771,6.304 91.0072438,6.224 90.8419104,6.064 C90.6765771,5.904 90.5939104,5.72266667 90.5939104,5.52 C90.5939104,5.33866667 90.6472438,5.168 90.7539104,5.008 C90.8605771,4.848 91.0045771,4.752 91.1859104,4.72 L92.4339104,4.528 L92.4339104,1.664 C92.4339104,1.42933333 92.5112438,1.23733333 92.6659104,1.088 C92.8205771,0.938666667 93.0152438,0.864 93.2499104,0.864 C93.4845771,0.864 93.6765771,0.938666667 93.8259104,1.088 C93.9752438,1.23733333 94.0499104,1.42933333 94.0499104,1.664 L94.0499104,4.304 C94.0819104,4.304 94.1272438,4.296 94.1859104,4.28 C94.2445771,4.264 94.3005771,4.256 94.3539104,4.256 C94.5459104,4.256 94.7139104,4.312 94.8579104,4.424 C95.0019104,4.536 95.0899104,4.68266667 95.1219104,4.864 L95.1699104,4.944 L95.1699104,5.008 C95.3832438,4.83733333 95.6872438,4.752 96.0819104,4.752 L96.4499104,4.768 C96.2579104,4.74666667 96.1032438,4.65333333 95.9859104,4.488 C95.8685771,4.32266667 95.8099104,4.13866667 95.8099104,3.936 C95.8099104,3.73333333 95.8952438,3.55733333 96.0659104,3.408 C96.2365771,3.25866667 96.4232438,3.184 96.6259104,3.184 C96.8499104,3.184 97.0419104,3.264 97.2019104,3.424 C97.3619104,3.584 97.4419104,3.776 97.4419104,4 C97.4419104,4.192 97.3885771,4.35466667 97.2819104,4.488 C97.1752438,4.62133333 97.0312438,4.71466667 96.8499104,4.768 L97.5699104,4.736 C97.5592438,4.512 97.5565771,4.31733333 97.5619104,4.152 C97.5672438,3.98666667 97.5699104,3.84533333 97.5699104,3.728 C97.5805771,3.57866667 97.5859104,3.35466667 97.5859104,3.056 L97.4739104,3.056 L96.9619104,3.072 C96.5139104,3.09333333 96.1725771,3.104 95.9379104,3.104 C95.7139104,3.104 95.5325771,3.02133333 95.3939104,2.856 C95.2552438,2.69066667 95.1859104,2.496 95.1859104,2.272 C95.1859104,1.96266667 95.2819104,1.76266667 95.4739104,1.672 C95.6659104,1.58133333 95.8712438,1.53066667 96.0899104,1.52 C96.3085771,1.50933333 96.4552438,1.49866667 96.5299104,1.488 L96.9299104,1.456 C97.1112438,1.43466667 97.3725771,1.41333333 97.7139104,1.392 C98.8872438,1.328 99.7672438,1.27466667 100.35391,1.232 C100.57791,1.22133333 100.772577,1.30933333 100.93791,1.496 C101.103244,1.68266667 101.18591,1.888 101.18591,2.112 C101.18591,2.69866667 100.535244,2.97066667 99.2339104,2.928 C99.2445771,3.216 99.2392438,3.65333333 99.2179104,4.24 L99.2019104,4.672 C99.3512438,4.672 99.4632438,4.66666667 99.5379104,4.656 C99.7619104,4.656 99.9272438,4.65066667 100.03391,4.64 C99.8632438,4.59733333 99.7299104,4.49333333 99.6339104,4.328 C99.5379104,4.16266667 99.4899104,3.98933333 99.4899104,3.808 C99.4899104,3.62666667 99.5165771,3.49866667 99.5699104,3.424 C99.6232438,3.34933333 99.6979104,3.28533333 99.7939104,3.232 C99.8899104,3.17866667 99.9539104,3.12533333 99.9859104,3.072 C100.135244,2.99733333 100.268577,2.96 100.38591,2.96 C100.620577,2.96 100.81791,3.04266667 100.97791,3.208 C101.13791,3.37333333 101.21791,3.57333333 101.21791,3.808 C101.21791,4 101.156577,4.16 101.03391,4.288 C100.911244,4.416 100.748577,4.53333333 100.54591,4.64 L101.56991,4.56 C101.79391,4.54933333 101.98591,4.62666667 102.14591,4.792 C102.30591,4.95733333 102.38591,5.152 102.38591,5.376 C102.38591,5.61066667 102.311244,5.79733333 102.16191,5.936 C102.012577,6.07466667 101.815244,6.15466667 101.56991,6.176 C101.484577,6.18666667 101.36191,6.2 101.20191,6.216 C101.04191,6.232 100.903244,6.23466667 100.78591,6.224 C100.88191,6.33066667 100.967244,6.45333333 101.04191,6.592 C101.116577,6.73066667 101.15391,6.85866667 101.15391,6.976 C101.15391,7.2 101.07391,7.38666667 100.91391,7.536 C100.75391,7.68533333 100.56191,7.76 100.33791,7.76 C100.124577,7.76 99.9512438,7.70133333 99.8179104,7.584 C99.6845771,7.46666667 99.5325771,7.28533333 99.3619104,7.04 L99.1539104,6.768 C99.1539104,7.29066667 99.1485771,7.68 99.1379104,7.936 L100.25791,7.808 C101.132577,7.70133333 101.703244,7.648 101.96991,7.648 C102.140577,7.648 102.300577,7.73066667 102.44991,7.896 C102.599244,8.06133333 102.67391,8.22933333 102.67391,8.4 C102.67391,8.77333333 102.588577,9.632 102.41791,10.976 C102.343244,11.584 102.30591,11.92 102.30591,11.984 L102.12991,13.808 C102.108577,14.0426667 102.028577,14.2373333 101.88991,14.392 C101.751244,14.5466667 101.564577,14.624 101.32991,14.624 L100.68991,14.624 L99.2019104,14.656 C97.8792438,14.6773333 96.8979104,14.6986667 96.2579104,14.72 C95.9699104,14.7306667 95.7725771,14.632 95.6659104,14.424 C95.5592438,14.216 95.4685771,13.92 95.3939104,13.536 L94.8979104,10.992 L94.7699104,10.416 C94.6312438,9.78666667 94.5619104,9.36533333 94.5619104,9.152 C94.5619104,8.82133333 94.6872438,8.60266667 94.9379104,8.496 C95.1885771,8.38933333 95.4392438,8.33066667 95.6899104,8.32 C95.9405771,8.30933333 96.0979104,8.29866667 96.1619104,8.288 L97.5219104,8.16 L97.5219104,7.328 C97.4579104,7.40266667 97.3672438,7.51466667 97.2499104,7.664 C97.1325771,7.81333333 97.0152438,7.92266667 96.8979104,7.992 C96.7805771,8.06133333 96.6365771,8.096 96.4659104,8.096 C96.2419104,8.096 96.0552438,8.01866667 95.9059104,7.864 C95.7565771,7.70933333 95.6819104,7.52 95.6819104,7.296 C95.6819104,7.136 95.7139104,7.00266667 95.7779104,6.896 C95.8419104,6.78933333 95.9219104,6.69066667 96.0179104,6.6 C96.1139104,6.50933333 96.1779104,6.448 96.2099104,6.416 L95.6819104,6.432 C95.4685771,6.432 95.2899104,6.35466667 95.1459104,6.2 C95.0019104,6.04533333 94.9192438,5.86133333 94.8979104,5.648 C94.8232438,5.73333333 94.7352438,5.792 94.6339104,5.824 C94.5325771,5.856 94.4259104,5.87733333 94.3139104,5.888 C94.2019104,5.89866667 94.1139104,5.90933333 94.0499104,5.92 L94.0499104,6.848 C94.1139104,6.82666667 94.2152438,6.78133333 94.3539104,6.712 C94.4925771,6.64266667 94.6152438,6.608 94.7219104,6.608 C94.9672438,6.608 95.1725771,6.68533333 95.3379104,6.84 C95.5032438,6.99466667 95.5859104,7.19466667 95.5859104,7.44 C95.5859104,7.696 95.4792438,7.896 95.2659104,8.04 C95.0525771,8.184 94.7592438,8.32533333 94.3859104,8.464 C94.1725771,8.53866667 94.0605771,8.58133333 94.0499104,8.592 L94.0499104,14.064 C94.0499104,14.3093333 93.9699104,14.5093333 93.8099104,14.664 C93.6499104,14.8186667 93.4472438,14.896 93.2019104,14.896 Z M99.5539104,9.504 C99.5645771,9.6 99.5752438,9.72 99.5859104,9.864 C99.5965771,10.008 99.6019104,10.1813333 99.6019104,10.384 L100.88191,10.208 C100.903244,9.90933333 100.935244,9.62666667 100.97791,9.36 L99.5539104,9.504 Z M97.9379104,9.712 C97.6712438,9.73333333 97.2605771,9.776 96.7059104,9.84 L96.3379104,9.888 L96.4979104,10.752 L96.5779104,10.752 L97.9859104,10.576 L97.9379104,9.712 Z M99.7299104,12.832 C99.7299104,12.864 99.7192438,12.8906667 99.6979104,12.912 C99.6979104,12.9653333 99.6925771,13.0026667 99.6819104,13.024 L100.60991,12.992 L100.70591,11.856 C100.57791,11.8666667 100.236577,11.9093333 99.6819104,11.984 L99.7299104,12.832 Z M98.1459104,13.056 C98.0925771,12.9493333 98.0685771,12.808 98.0739104,12.632 C98.0792438,12.456 98.0765771,12.3146667 98.0659104,12.208 L98.0499104,12.208 L96.8179104,12.352 L96.9459104,13.088 L98.1459104,13.056 Z" id="形状"></path>
                    <path d="M110.67391,3.872 C110.428577,3.872 110.22591,3.784 110.06591,3.608 C109.90591,3.432 109.82591,3.22133333 109.82591,2.976 C109.82591,2.784 109.87391,2.61333333 109.96991,2.464 C110.06591,2.31466667 110.199244,2.21866667 110.36991,2.176 C110.46591,2.112 110.844577,2.03733333 111.50591,1.952 C112.167244,1.86666667 112.663244,1.81333333 112.99391,1.792 C112.919244,1.71733333 112.83391,1.632 112.73791,1.536 C112.64191,1.44 112.567244,1.34933333 112.51391,1.264 C112.460577,1.17866667 112.43391,1.06133333 112.43391,0.912 C112.43391,0.613333333 112.52991,0.386666667 112.72191,0.232 C112.91391,0.0773333333 113.159244,0 113.45791,0 C113.628577,0 113.812577,0.0933333333 114.00991,0.28 C114.207244,0.466666667 114.383244,0.685333333 114.53791,0.936 C114.692577,1.18666667 114.791244,1.39733333 114.83391,1.568 L115.39391,1.472 C115.468577,1.46133333 115.64991,1.43466667 115.93791,1.392 C116.22591,1.34933333 116.48191,1.328 116.70591,1.328 C116.92991,1.328 117.124577,1.42133333 117.28991,1.608 C117.455244,1.79466667 117.53791,2 117.53791,2.224 C117.53791,2.56533333 117.356577,2.848 116.99391,3.072 C116.83391,3.11466667 116.583244,3.15733333 116.24191,3.2 C116.156577,3.2 116.04991,3.21066667 115.92191,3.232 L112.72191,3.616 L112.03391,3.712 C111.436577,3.81866667 110.983244,3.872 110.67391,3.872 Z M112.91391,7.008 C112.540577,7.008 112.24991,6.89333333 112.04191,6.664 C111.83391,6.43466667 111.72991,6.13866667 111.72991,5.776 L111.74591,5.408 C111.756577,5.33333333 111.76191,5.22133333 111.76191,5.072 C111.772577,4.72 111.916577,4.44266667 112.19391,4.24 C112.471244,4.03733333 112.78591,3.936 113.13791,3.936 L113.61791,3.952 C113.831244,3.97333333 113.991244,3.984 114.09791,3.984 C114.663244,3.99466667 115.079244,4.02666667 115.34591,4.08 C115.612577,4.13333333 115.828577,4.27466667 115.99391,4.504 C116.159244,4.73333333 116.24191,5.09866667 116.24191,5.6 C116.24191,6.03733333 116.119244,6.35733333 115.87391,6.56 C115.628577,6.76266667 115.28191,6.87466667 114.83391,6.896 L114.11391,6.944 C113.580577,6.98666667 113.180577,7.008 112.91391,7.008 Z M115.04191,5.664 C115.020577,5.6 115.012577,5.52 115.01791,5.424 C115.023244,5.328 115.02591,5.264 115.02591,5.232 L114.99391,5.2 L115.02591,5.2 L115.00991,5.136 L114.99391,5.2 C114.99391,5.2 114.991244,5.2 114.98591,5.2 C114.980577,5.2 114.97791,5.2 114.97791,5.2 C114.81791,5.168 114.647244,5.152 114.46591,5.152 C114.30591,5.152 114.188577,5.15733333 114.11391,5.168 C114.060577,5.168 113.99391,5.17066667 113.91391,5.176 C113.83391,5.18133333 113.740577,5.17866667 113.63391,5.168 C113.56991,5.15733333 113.471244,5.144 113.33791,5.128 C113.204577,5.112 113.08991,5.10933333 112.99391,5.12 C112.940577,5.19466667 112.91391,5.32266667 112.91391,5.504 L112.92991,5.808 L113.20191,5.808 L113.77791,5.76 C114.332577,5.71733333 114.73791,5.70133333 114.99391,5.712 L115.02591,5.696 L115.04191,5.664 Z M115.88991,14.448 C115.88991,14.2026667 115.97791,13.9893333 116.15391,13.808 C116.32991,13.6266667 116.54591,13.536 116.80191,13.536 C116.940577,13.536 117.07391,13.5626667 117.20191,13.616 C117.32991,13.6693333 117.48991,13.7546667 117.68191,13.872 L117.66591,13.312 C117.66591,12.8853333 117.687244,12.256 117.72991,11.424 C117.772577,10.592 117.79391,9.97333333 117.79391,9.568 L117.79391,9.504 L117.77791,9.472 L117.77791,9.44 L117.74591,9.36 C117.68191,9.296 117.60191,9.232 117.50591,9.168 L117.52191,9.168 L117.48991,9.152 L117.08991,9.152 C116.364577,9.152 115.29791,9.184 113.88991,9.248 L112.04991,9.312 C111.98591,9.312 111.88991,9.31466667 111.76191,9.32 C111.63391,9.32533333 111.524577,9.34133333 111.43391,9.368 C111.343244,9.39466667 111.260577,9.44533333 111.18591,9.52 C111.143244,9.59466667 111.124577,9.69066667 111.12991,9.808 C111.135244,9.92533333 111.13791,10 111.13791,10.032 C111.13791,10.0853333 111.143244,10.136 111.15391,10.184 C111.164577,10.232 111.16991,10.2826667 111.16991,10.336 L111.21791,11.216 C111.228577,11.3973333 111.247244,11.7093333 111.27391,12.152 C111.300577,12.5946667 111.335244,12.992 111.37791,13.344 C111.388577,13.44 111.40991,13.6346667 111.44191,13.928 C111.47391,14.2213333 111.48991,14.4906667 111.48991,14.736 C111.48991,14.96 111.396577,15.16 111.20991,15.336 C111.023244,15.512 110.81791,15.6 110.59391,15.6 C110.359244,15.6 110.14591,15.5146667 109.95391,15.344 C109.879244,15.28 109.82591,15.208 109.79391,15.128 C109.76191,15.048 109.740577,14.9653333 109.72991,14.88 C109.719244,14.7946667 109.708577,14.736 109.69791,14.704 C109.644577,14.4373333 109.596577,13.8986667 109.55391,13.088 C109.55391,12.896 109.543244,12.672 109.52191,12.416 L109.48991,12.096 C109.479244,11.968 109.452577,11.6506667 109.40991,11.144 C109.367244,10.6373333 109.34591,10.1653333 109.34591,9.728 C109.34591,9.42933333 109.38591,9.184 109.46591,8.992 C109.54591,8.8 109.687244,8.56 109.88991,8.272 C109.964577,8.176 110.063244,8.09066667 110.18591,8.016 C110.308577,7.94133333 110.380577,7.89333333 110.40191,7.872 C110.62591,7.72266667 110.879244,7.624 111.16191,7.576 C111.444577,7.528 111.767244,7.504 112.12991,7.504 L113.04191,7.504 L113.88991,7.488 C114.508577,7.46666667 114.967244,7.44533333 115.26591,7.424 C116.183244,7.38133333 116.876577,7.36 117.34591,7.36 C118.071244,7.36 118.631244,7.58933333 119.02591,8.048 C119.420577,8.50666667 119.607244,9.09866667 119.58591,9.824 L119.53791,12.224 C119.527244,12.672 119.500577,13.3173333 119.45791,14.16 C119.447244,14.6186667 119.287244,14.9973333 118.97791,15.296 C118.668577,15.5946667 118.279244,15.744 117.80991,15.744 C117.628577,15.744 117.47391,15.7226667 117.34591,15.68 C117.21791,15.6373333 117.031244,15.552 116.78591,15.424 C116.743244,15.4026667 116.628577,15.3466667 116.44191,15.256 C116.255244,15.1653333 116.116577,15.0533333 116.02591,14.92 C115.935244,14.7866667 115.88991,14.6293333 115.88991,14.448 Z M111.88991,11.136 C111.88991,10.752 112.01791,10.4986667 112.27391,10.376 C112.52991,10.2533333 112.86591,10.192 113.28191,10.192 L113.84191,10.208 L115.85791,10.208 C116.14591,10.208 116.420577,10.3173333 116.68191,10.536 C116.943244,10.7546667 117.07391,11.0026667 117.07391,11.28 C117.07391,11.4293333 117.047244,11.5573333 116.99391,11.664 C116.940577,11.7706667 116.876577,11.8746667 116.80191,11.976 C116.727244,12.0773333 116.67391,12.1546667 116.64191,12.208 L116.41791,12.56 C116.19391,12.9226667 115.983244,13.1973333 115.78591,13.384 C115.588577,13.5706667 115.324577,13.664 114.99391,13.664 C114.236577,13.664 113.695244,13.6213333 113.36991,13.536 C113.044577,13.4506667 112.804577,13.288 112.64991,13.048 C112.495244,12.808 112.295244,12.3626667 112.04991,11.712 L111.93791,11.408 L111.90591,11.392 L111.88991,11.136 Z M113.61791,11.696 C113.703244,11.888 113.751244,12.0106667 113.76191,12.064 C113.772577,12.064 113.77791,12.0746667 113.77791,12.096 C113.895244,12.1066667 114.076577,12.12 114.32191,12.136 C114.567244,12.152 114.75391,12.16 114.88191,12.16 L115.20191,11.712 L113.88991,11.696 L113.61791,11.696 Z" id="形状"></path>
                    <path d="M131.12191,5.936 C130.73791,5.936 130.460577,5.72266667 130.28991,5.296 C129.799244,5.40266667 129.268577,5.48 128.69791,5.528 C128.127244,5.576 127.783244,5.60533333 127.66591,5.616 L126.83391,5.696 L126.81791,5.664 L126.80191,5.696 C126.588577,5.696 126.396577,5.59733333 126.22591,5.4 C126.055244,5.20266667 125.96991,4.99733333 125.96991,4.784 C125.96991,4.66666667 125.996577,4.54933333 126.04991,4.432 C126.103244,4.31466667 126.135244,4.24533333 126.14591,4.224 L127.68191,1.024 C127.724577,0.938666667 127.82591,0.858666667 127.98591,0.784 C128.14591,0.709333333 128.279244,0.672 128.38591,0.672 C128.631244,0.672 128.839244,0.757333333 129.00991,0.928 C129.180577,1.09866667 129.26591,1.30666667 129.26591,1.552 C129.26591,1.65866667 129.12191,2.048 128.83391,2.72 C128.54591,3.392 128.364577,3.75466667 128.28991,3.808 L128.30591,3.808 L128.83391,3.744 C129.143244,3.70133333 129.36191,3.67466667 129.48991,3.664 C129.404577,3.49333333 129.36191,3.34933333 129.36191,3.232 C129.36191,2.98666667 129.44991,2.77866667 129.62591,2.608 C129.80191,2.43733333 130.007244,2.352 130.24191,2.352 C130.380577,2.352 130.52191,2.38933333 130.66591,2.464 C130.80991,2.53866667 130.919244,2.63466667 130.99391,2.752 C131.111244,2.98666667 131.29791,3.368 131.55391,3.896 C131.80991,4.424 131.93791,4.71466667 131.93791,4.768 C131.980577,4.82133333 132.00191,4.912 132.00191,5.04 C132.00191,5.27466667 131.91391,5.48266667 131.73791,5.664 C131.56191,5.84533333 131.356577,5.936 131.12191,5.936 Z M134.43391,7.024 C133.868577,7.024 133.439244,6.92 133.14591,6.712 C132.852577,6.504 132.65791,6.21866667 132.56191,5.856 C132.46591,5.49333333 132.41791,5.02933333 132.41791,4.464 C132.41791,4.112 132.444577,3.67733333 132.49791,3.16 C132.551244,2.64266667 132.620577,2.256 132.70591,2 C132.759244,1.82933333 132.86591,1.69066667 133.02591,1.584 C133.18591,1.47733333 133.356577,1.424 133.53791,1.424 C133.783244,1.424 133.991244,1.50933333 134.16191,1.68 C134.332577,1.85066667 134.41791,2.05866667 134.41791,2.304 C134.41791,2.38933333 134.407244,2.47733333 134.38591,2.568 C134.364577,2.65866667 134.348577,2.74133333 134.33791,2.816 L134.27391,3.232 C134.327244,3.2 134.535244,3.056 134.89791,2.8 C135.18591,2.576 135.42591,2.40533333 135.61791,2.288 C135.80991,2.17066667 135.98591,2.112 136.14591,2.112 C136.36991,2.112 136.567244,2.20533333 136.73791,2.392 C136.908577,2.57866667 136.99391,2.784 136.99391,3.008 C136.99391,3.168 136.959244,3.304 136.88991,3.416 C136.820577,3.528 136.716577,3.64266667 136.57791,3.76 C136.268577,4.00533333 135.839244,4.30133333 135.28991,4.648 C134.740577,4.99466667 134.375244,5.152 134.19391,5.12 C134.19391,5.17333333 134.215244,5.216 134.25791,5.248 C134.396577,5.26933333 134.556577,5.27733333 134.73791,5.272 C134.919244,5.26666667 135.04191,5.264 135.10591,5.264 C135.23391,5.264 135.564577,5.23733333 136.09791,5.184 C136.44991,5.13066667 136.759244,5.104 137.02591,5.104 C137.24991,5.104 137.452577,5.192 137.63391,5.368 C137.815244,5.544 137.90591,5.744 137.90591,5.968 L137.88991,5.984 L137.90591,6 C137.90591,6.256 137.81791,6.45866667 137.64191,6.608 C137.46591,6.75733333 137.24991,6.84266667 136.99391,6.864 L136.32191,6.928 C135.788577,6.992 135.383244,7.024 135.10591,7.024 L134.43391,7.024 Z M131.21791,15.104 C131.004577,15.104 130.583244,14.9333333 129.95391,14.592 L129.61791,14.432 C129.415244,14.1866667 129.31391,13.9626667 129.31391,13.76 C129.31391,13.5253333 129.399244,13.3146667 129.56991,13.128 C129.740577,12.9413333 129.93791,12.848 130.16191,12.848 C130.19391,12.848 130.252577,12.8586667 130.33791,12.88 L130.33791,12.608 L130.14591,12.608 L130.12991,12.624 L130.11391,12.608 C129.591244,12.608 128.94591,12.656 128.17791,12.752 L127.64991,12.8 L127.64991,13.296 C127.64991,13.6693333 127.59391,13.968 127.48191,14.192 C127.36991,14.416 127.132577,14.528 126.76991,14.528 C126.51391,14.528 126.284577,14.4053333 126.08191,14.16 C125.95391,14.0106667 125.88991,13.696 125.88991,13.216 L125.88991,11.984 C125.88991,10.8853333 125.87391,10.064 125.84191,9.52 L125.87391,9.52 L125.84191,9.504 L125.84191,7.328 C125.84191,7.02933333 125.948577,6.82133333 126.16191,6.704 C126.375244,6.58666667 126.647244,6.51733333 126.97791,6.496 L131.28191,6.256 C131.612577,6.24533333 131.83391,6.37333333 131.94591,6.64 C132.05791,6.90666667 132.11391,7.248 132.11391,7.664 L132.09791,8.224 L132.09791,10.848 L132.11391,10.88 L132.09791,10.88 C132.119244,10.9013333 132.127244,10.9813333 132.12191,11.12 C132.116577,11.2586667 132.11391,11.3333333 132.11391,11.344 L132.09791,11.36 C132.108577,11.3706667 132.11391,11.8346667 132.11391,12.752 L132.11391,14.288 C132.11391,14.5226667 132.023244,14.7173333 131.84191,14.872 C131.660577,15.0266667 131.452577,15.104 131.21791,15.104 Z M132.60991,10.56 C132.60991,10.1866667 132.62591,9.75733333 132.65791,9.272 C132.68991,8.78666667 132.73791,8.40533333 132.80191,8.128 C132.844577,7.936 132.95391,7.77866667 133.12991,7.656 C133.30591,7.53333333 133.495244,7.472 133.69791,7.472 C133.900577,7.472 134.092577,7.55733333 134.27391,7.728 C134.455244,7.89866667 134.54591,8.08533333 134.54591,8.288 C134.54591,8.42666667 134.540577,8.544 134.52991,8.64 C134.519244,8.736 134.508577,8.816 134.49791,8.88 C134.455244,9.15733333 134.43391,9.36 134.43391,9.488 L134.44991,9.488 C134.48191,9.46666667 134.764577,9.33066667 135.29791,9.08 C135.831244,8.82933333 136.156577,8.71466667 136.27391,8.736 L136.27391,8.752 L136.28991,8.736 C136.524577,8.736 136.727244,8.82933333 136.89791,9.016 C137.068577,9.20266667 137.15391,9.41333333 137.15391,9.648 C137.15391,9.872 137.092577,10.04 136.96991,10.152 C136.847244,10.264 136.663244,10.3786667 136.41791,10.496 L134.35391,11.456 C134.35391,12.0213333 134.396577,12.4586667 134.48191,12.768 C134.67391,12.8213333 134.868577,12.856 135.06591,12.872 C135.263244,12.888 135.50591,12.896 135.79391,12.896 C136.220577,12.896 136.732577,12.8586667 137.32991,12.784 L137.32991,12.672 L137.31391,12.304 C137.292577,12.1333333 137.28191,12.0106667 137.28191,11.936 C137.28191,11.6906667 137.375244,11.4853333 137.56191,11.32 C137.748577,11.1546667 137.964577,11.072 138.20991,11.072 C138.604577,11.072 138.84991,11.2293333 138.94591,11.544 C139.04191,11.8586667 139.08991,12.2666667 139.08991,12.768 C139.08991,13.3013333 138.999244,13.6933333 138.81791,13.944 C138.636577,14.1946667 138.40191,14.3573333 138.11391,14.432 C137.82591,14.5066667 137.40991,14.5653333 136.86591,14.608 C136.76991,14.608 136.615244,14.6186667 136.40191,14.64 L136.40191,14.624 L136.38591,14.64 C136.268577,14.6293333 136.16191,14.6266667 136.06591,14.632 C135.96991,14.6373333 135.88991,14.64 135.82591,14.64 C135.740577,14.6506667 135.61791,14.656 135.45791,14.656 L135.42591,14.64 L135.40991,14.656 C135.399244,14.656 135.26591,14.6346667 135.00991,14.592 C134.508577,14.5493333 134.12991,14.4853333 133.87391,14.4 C133.383244,14.2293333 133.04991,13.9066667 132.87391,13.432 C132.69791,12.9573333 132.60991,12.4053333 132.60991,11.776 L132.60991,10.56 Z M127.60191,8.752 C127.751244,8.73066667 127.863244,8.72 127.93791,8.72 C128.80191,8.61333333 129.447244,8.57066667 129.87391,8.592 L130.32191,8.608 L130.32191,8.064 L127.60191,8.224 L127.60191,8.752 Z M128.83391,10.96 C129.05791,10.9386667 129.284577,10.9226667 129.51391,10.912 C129.743244,10.9013333 129.911244,10.8853333 130.01791,10.864 L130.01791,10.88 L130.03391,10.864 L130.30591,10.864 L130.33791,10.848 L130.33791,10.368 L130.11391,10.352 L129.74591,10.352 C129.532577,10.352 129.415244,10.3573333 129.39391,10.368 L129.39391,10.352 L127.63391,10.512 L127.63391,11.072 L128.83391,10.96 Z" id="形状"></path>
                    <path d="M151.72991,3.008 C151.53791,3.008 151.372577,2.96266667 151.23391,2.872 C151.095244,2.78133333 150.967244,2.66933333 150.84991,2.536 C150.732577,2.40266667 150.64191,2.304 150.57791,2.24 C150.535244,2.19733333 150.43391,2.09866667 150.27391,1.944 C150.11391,1.78933333 149.988577,1.62933333 149.89791,1.464 C149.807244,1.29866667 149.76191,1.13066667 149.76191,0.96 C149.76191,0.714666667 149.84991,0.493333333 150.02591,0.296 C150.20191,0.0986666667 150.412577,0 150.65791,0 C150.860577,0 151.02591,0.0373333333 151.15391,0.112 C151.28191,0.186666667 151.40991,0.309333333 151.53791,0.48 C151.580577,0.544 151.71391,0.688 151.93791,0.912 C152.023244,0.976 152.09791,1.05066667 152.16191,1.136 C152.204577,1.17866667 152.28191,1.25333333 152.39391,1.36 C152.50591,1.46666667 152.58591,1.576 152.63391,1.688 C152.68191,1.8 152.70591,1.93066667 152.70591,2.08 C152.70591,2.336 152.607244,2.55466667 152.40991,2.736 C152.212577,2.91733333 151.98591,3.008 151.72991,3.008 Z M144.25791,14.864 C144.25791,14.64 144.300577,14.4666667 144.38591,14.344 C144.471244,14.2213333 144.60991,14.0853333 144.80191,13.936 C144.940577,13.8293333 145.068577,13.712 145.18591,13.584 C145.28191,13.4666667 145.40991,13.2213333 145.56991,12.848 C145.708577,12.5173333 145.836577,12.1066667 145.95391,11.616 C146.071244,11.1253333 146.14591,10.6986667 146.17791,10.336 L146.27391,9.392 C146.391244,8.47466667 146.44991,7.72266667 146.44991,7.136 C146.44991,6.82666667 146.471244,6.464 146.51391,6.048 C146.556577,5.632 146.60991,5.30666667 146.67391,5.072 C146.812577,4.54933333 147.068577,4.192 147.44191,4 C147.72991,3.85066667 148.135244,3.73333333 148.65791,3.648 C149.244577,3.552 149.852577,3.488 150.48191,3.456 C151.111244,3.424 151.84191,3.408 152.67391,3.408 C153.260577,3.408 153.69791,3.41333333 153.98591,3.424 L155.76191,3.472 C156.04991,3.48266667 156.279244,3.584 156.44991,3.776 C156.620577,3.968 156.70591,4.208 156.70591,4.496 C156.70591,4.74133333 156.60991,4.952 156.41791,5.128 C156.22591,5.304 156.007244,5.392 155.76191,5.392 C155.463244,5.392 155.015244,5.38133333 154.41791,5.36 C153.820577,5.33866667 153.372577,5.328 153.07391,5.328 C150.727244,5.328 149.212577,5.424 148.52991,5.616 L148.52991,5.632 C148.519244,5.65333333 148.508577,5.71466667 148.49791,5.816 C148.487244,5.91733333 148.476577,5.984 148.46591,6.016 C148.444577,6.208 148.396577,6.768 148.32191,7.696 C148.22591,9.02933333 148.111244,10.1733333 147.97791,11.128 C147.844577,12.0826667 147.596577,12.9866667 147.23391,13.84 C146.871244,14.6933333 146.359244,15.296 145.69791,15.648 C145.548577,15.7333333 145.388577,15.776 145.21791,15.776 C144.972577,15.776 144.751244,15.6853333 144.55391,15.504 C144.356577,15.3226667 144.25791,15.1093333 144.25791,14.864 Z" id="形状"></path>
                    <path d="M165.20191,14.896 C165.00991,14.896 164.844577,14.8213333 164.70591,14.672 C164.567244,14.5226667 164.428577,14.3253333 164.28991,14.08 L163.32991,12.464 C163.276577,12.3893333 163.18591,12.2506667 163.05791,12.048 C162.92991,11.8453333 162.820577,11.656 162.72991,11.48 C162.639244,11.304 162.59391,11.1573333 162.59391,11.04 C162.59391,10.7946667 162.67391,10.5946667 162.83391,10.44 C162.99391,10.2853333 163.196577,10.208 163.44191,10.208 C163.644577,10.208 163.812577,10.2773333 163.94591,10.416 C164.079244,10.5546667 164.188577,10.696 164.27391,10.84 C164.359244,10.984 164.412577,11.0773333 164.43391,11.12 L164.43391,9.232 L164.09791,9.376 C163.55391,9.61066667 163.228577,9.728 163.12191,9.728 C162.876577,9.728 162.668577,9.65066667 162.49791,9.496 C162.327244,9.34133333 162.24191,9.14666667 162.24191,8.912 C162.24191,8.73066667 162.292577,8.57866667 162.39391,8.456 C162.495244,8.33333333 162.607244,8.24266667 162.72991,8.184 C162.852577,8.12533333 163.04191,8.04266667 163.29791,7.936 C163.468577,7.86133333 163.735244,7.76 164.09791,7.632 L164.43391,7.504 L164.43391,6.16 C164.284577,6.18133333 164.172577,6.20266667 164.09791,6.224 C163.724577,6.27733333 163.495244,6.304 163.40991,6.304 C163.196577,6.304 163.007244,6.224 162.84191,6.064 C162.676577,5.904 162.59391,5.72266667 162.59391,5.52 C162.59391,5.33866667 162.647244,5.168 162.75391,5.008 C162.860577,4.848 163.004577,4.752 163.18591,4.72 L164.43391,4.528 L164.43391,1.664 C164.43391,1.42933333 164.511244,1.23733333 164.66591,1.088 C164.820577,0.938666667 165.015244,0.864 165.24991,0.864 C165.484577,0.864 165.676577,0.938666667 165.82591,1.088 C165.975244,1.23733333 166.04991,1.42933333 166.04991,1.664 L166.04991,4.304 C166.08191,4.304 166.127244,4.296 166.18591,4.28 C166.244577,4.264 166.300577,4.256 166.35391,4.256 C166.54591,4.256 166.71391,4.312 166.85791,4.424 C167.00191,4.536 167.08991,4.68266667 167.12191,4.864 L167.16991,4.944 L167.16991,5.008 C167.383244,4.83733333 167.687244,4.752 168.08191,4.752 L168.44991,4.768 C168.25791,4.74666667 168.103244,4.65333333 167.98591,4.488 C167.868577,4.32266667 167.80991,4.13866667 167.80991,3.936 C167.80991,3.73333333 167.895244,3.55733333 168.06591,3.408 C168.236577,3.25866667 168.423244,3.184 168.62591,3.184 C168.84991,3.184 169.04191,3.264 169.20191,3.424 C169.36191,3.584 169.44191,3.776 169.44191,4 C169.44191,4.192 169.388577,4.35466667 169.28191,4.488 C169.175244,4.62133333 169.031244,4.71466667 168.84991,4.768 L169.56991,4.736 C169.559244,4.512 169.556577,4.31733333 169.56191,4.152 C169.567244,3.98666667 169.56991,3.84533333 169.56991,3.728 C169.580577,3.57866667 169.58591,3.35466667 169.58591,3.056 L169.47391,3.056 L168.96191,3.072 C168.51391,3.09333333 168.172577,3.104 167.93791,3.104 C167.71391,3.104 167.532577,3.02133333 167.39391,2.856 C167.255244,2.69066667 167.18591,2.496 167.18591,2.272 C167.18591,1.96266667 167.28191,1.76266667 167.47391,1.672 C167.66591,1.58133333 167.871244,1.53066667 168.08991,1.52 C168.308577,1.50933333 168.455244,1.49866667 168.52991,1.488 L168.92991,1.456 C169.111244,1.43466667 169.372577,1.41333333 169.71391,1.392 C170.887244,1.328 171.767244,1.27466667 172.35391,1.232 C172.57791,1.22133333 172.772577,1.30933333 172.93791,1.496 C173.103244,1.68266667 173.18591,1.888 173.18591,2.112 C173.18591,2.69866667 172.535244,2.97066667 171.23391,2.928 C171.244577,3.216 171.239244,3.65333333 171.21791,4.24 L171.20191,4.672 C171.351244,4.672 171.463244,4.66666667 171.53791,4.656 C171.76191,4.656 171.927244,4.65066667 172.03391,4.64 C171.863244,4.59733333 171.72991,4.49333333 171.63391,4.328 C171.53791,4.16266667 171.48991,3.98933333 171.48991,3.808 C171.48991,3.62666667 171.516577,3.49866667 171.56991,3.424 C171.623244,3.34933333 171.69791,3.28533333 171.79391,3.232 C171.88991,3.17866667 171.95391,3.12533333 171.98591,3.072 C172.135244,2.99733333 172.268577,2.96 172.38591,2.96 C172.620577,2.96 172.81791,3.04266667 172.97791,3.208 C173.13791,3.37333333 173.21791,3.57333333 173.21791,3.808 C173.21791,4 173.156577,4.16 173.03391,4.288 C172.911244,4.416 172.748577,4.53333333 172.54591,4.64 L173.56991,4.56 C173.79391,4.54933333 173.98591,4.62666667 174.14591,4.792 C174.30591,4.95733333 174.38591,5.152 174.38591,5.376 C174.38591,5.61066667 174.311244,5.79733333 174.16191,5.936 C174.012577,6.07466667 173.815244,6.15466667 173.56991,6.176 C173.484577,6.18666667 173.36191,6.2 173.20191,6.216 C173.04191,6.232 172.903244,6.23466667 172.78591,6.224 C172.88191,6.33066667 172.967244,6.45333333 173.04191,6.592 C173.116577,6.73066667 173.15391,6.85866667 173.15391,6.976 C173.15391,7.2 173.07391,7.38666667 172.91391,7.536 C172.75391,7.68533333 172.56191,7.76 172.33791,7.76 C172.124577,7.76 171.951244,7.70133333 171.81791,7.584 C171.684577,7.46666667 171.532577,7.28533333 171.36191,7.04 L171.15391,6.768 C171.15391,7.29066667 171.148577,7.68 171.13791,7.936 L172.25791,7.808 C173.132577,7.70133333 173.703244,7.648 173.96991,7.648 C174.140577,7.648 174.300577,7.73066667 174.44991,7.896 C174.599244,8.06133333 174.67391,8.22933333 174.67391,8.4 C174.67391,8.77333333 174.588577,9.632 174.41791,10.976 C174.343244,11.584 174.30591,11.92 174.30591,11.984 L174.12991,13.808 C174.108577,14.0426667 174.028577,14.2373333 173.88991,14.392 C173.751244,14.5466667 173.564577,14.624 173.32991,14.624 L172.68991,14.624 L171.20191,14.656 C169.879244,14.6773333 168.89791,14.6986667 168.25791,14.72 C167.96991,14.7306667 167.772577,14.632 167.66591,14.424 C167.559244,14.216 167.468577,13.92 167.39391,13.536 L166.89791,10.992 L166.76991,10.416 C166.631244,9.78666667 166.56191,9.36533333 166.56191,9.152 C166.56191,8.82133333 166.687244,8.60266667 166.93791,8.496 C167.188577,8.38933333 167.439244,8.33066667 167.68991,8.32 C167.940577,8.30933333 168.09791,8.29866667 168.16191,8.288 L169.52191,8.16 L169.52191,7.328 C169.45791,7.40266667 169.367244,7.51466667 169.24991,7.664 C169.132577,7.81333333 169.015244,7.92266667 168.89791,7.992 C168.780577,8.06133333 168.636577,8.096 168.46591,8.096 C168.24191,8.096 168.055244,8.01866667 167.90591,7.864 C167.756577,7.70933333 167.68191,7.52 167.68191,7.296 C167.68191,7.136 167.71391,7.00266667 167.77791,6.896 C167.84191,6.78933333 167.92191,6.69066667 168.01791,6.6 C168.11391,6.50933333 168.17791,6.448 168.20991,6.416 L167.68191,6.432 C167.468577,6.432 167.28991,6.35466667 167.14591,6.2 C167.00191,6.04533333 166.919244,5.86133333 166.89791,5.648 C166.823244,5.73333333 166.735244,5.792 166.63391,5.824 C166.532577,5.856 166.42591,5.87733333 166.31391,5.888 C166.20191,5.89866667 166.11391,5.90933333 166.04991,5.92 L166.04991,6.848 C166.11391,6.82666667 166.215244,6.78133333 166.35391,6.712 C166.492577,6.64266667 166.615244,6.608 166.72191,6.608 C166.967244,6.608 167.172577,6.68533333 167.33791,6.84 C167.503244,6.99466667 167.58591,7.19466667 167.58591,7.44 C167.58591,7.696 167.479244,7.896 167.26591,8.04 C167.052577,8.184 166.759244,8.32533333 166.38591,8.464 C166.172577,8.53866667 166.060577,8.58133333 166.04991,8.592 L166.04991,14.064 C166.04991,14.3093333 165.96991,14.5093333 165.80991,14.664 C165.64991,14.8186667 165.447244,14.896 165.20191,14.896 Z M171.55391,9.504 C171.564577,9.6 171.575244,9.72 171.58591,9.864 C171.596577,10.008 171.60191,10.1813333 171.60191,10.384 L172.88191,10.208 C172.903244,9.90933333 172.935244,9.62666667 172.97791,9.36 L171.55391,9.504 Z M169.93791,9.712 C169.671244,9.73333333 169.260577,9.776 168.70591,9.84 L168.33791,9.888 L168.49791,10.752 L168.57791,10.752 L169.98591,10.576 L169.93791,9.712 Z M171.72991,12.832 C171.72991,12.864 171.719244,12.8906667 171.69791,12.912 C171.69791,12.9653333 171.692577,13.0026667 171.68191,13.024 L172.60991,12.992 L172.70591,11.856 C172.57791,11.8666667 172.236577,11.9093333 171.68191,11.984 L171.72991,12.832 Z M170.14591,13.056 C170.092577,12.9493333 170.068577,12.808 170.07391,12.632 C170.079244,12.456 170.076577,12.3146667 170.06591,12.208 L170.04991,12.208 L168.81791,12.352 L168.94591,13.088 L170.14591,13.056 Z" id="形状"></path>
                    <path d="M184.59391,5.952 C184.30591,5.952 183.895244,5.94133333 183.36191,5.92 L182.75391,5.904 C182.551244,9.89333333 182.03391,12.4213333 181.20191,13.488 C180.94591,13.8293333 180.663244,14.0853333 180.35391,14.256 C180.215244,14.3306667 180.08191,14.368 179.95391,14.368 C179.740577,14.368 179.55391,14.288 179.39391,14.128 C179.23391,13.968 179.15391,13.7813333 179.15391,13.568 C179.15391,13.3973333 179.188577,13.264 179.25791,13.168 C179.327244,13.072 179.431244,12.9706667 179.56991,12.864 C179.740577,12.736 179.852577,12.64 179.90591,12.576 C180.00191,12.4586667 180.08991,12.3013333 180.16991,12.104 C180.24991,11.9066667 180.316577,11.7173333 180.36991,11.536 C180.636577,10.6933333 180.823244,9.80533333 180.92991,8.872 C181.036577,7.93866667 181.12191,6.832 181.18591,5.552 C181.207244,5.104 181.21791,4.76266667 181.21791,4.528 C181.239244,3.73866667 181.271244,3.14666667 181.31391,2.752 C181.335244,2.464 181.388577,2.24533333 181.47391,2.096 C181.559244,1.95733333 181.687244,1.84533333 181.85791,1.76 C182.11391,1.632 182.63391,1.53866667 183.41791,1.48 C184.20191,1.42133333 184.876577,1.392 185.44191,1.392 C186.08191,1.392 186.615244,1.424 187.04191,1.488 C187.39391,1.54133333 187.655244,1.656 187.82591,1.832 C187.996577,2.008 188.103244,2.21866667 188.14591,2.464 C188.188577,2.70933333 188.20991,3.03466667 188.20991,3.44 C188.20991,3.57866667 188.172577,3.86133333 188.09791,4.288 C188.012577,4.736 187.88191,5.07733333 187.70591,5.312 C187.52991,5.54666667 187.23391,5.70666667 186.81791,5.792 C186.284577,5.89866667 185.543244,5.952 184.59391,5.952 Z M193.74591,7.84 C193.74591,10.7626667 193.628577,12.6293333 193.39391,13.44 C193.32991,13.6533333 193.215244,13.832 193.04991,13.976 C192.884577,14.12 192.695244,14.192 192.48191,14.192 C192.19391,14.192 191.911244,14.1013333 191.63391,13.92 C191.367244,13.7386667 191.060577,13.448 190.71391,13.048 C190.367244,12.648 190.19391,12.3306667 190.19391,12.096 C190.19391,11.8506667 190.27391,11.648 190.43391,11.488 C190.59391,11.328 190.796577,11.248 191.04191,11.248 C191.212577,11.248 191.356577,11.304 191.47391,11.416 C191.591244,11.528 191.69791,11.656 191.79391,11.8 C191.88991,11.944 191.964577,12.0533333 192.01791,12.128 L191.87391,11.968 C191.90591,12.0426667 191.95391,12.1013333 192.01791,12.144 C192.103244,11.12 192.14591,9.76 192.14591,8.064 L192.14591,6.432 C192.14591,5.96266667 192.135244,5.25866667 192.11391,4.32 C192.092577,3.38133333 192.08191,2.67733333 192.08191,2.208 C192.08191,2.016 192.16191,1.84533333 192.32191,1.696 C192.48191,1.54666667 192.663244,1.472 192.86591,1.472 C192.983244,1.472 193.08191,1.488 193.16191,1.52 C193.24191,1.552 193.340577,1.60533333 193.45791,1.68 C193.511244,1.712 193.56191,1.79733333 193.60991,1.936 C193.65791,2.07466667 193.68191,2.18133333 193.68191,2.256 C193.68191,2.75733333 193.692577,3.49866667 193.71391,4.48 C193.735244,5.97333333 193.74591,7.09333333 193.74591,7.84 Z M182.88191,3.136 C182.88191,3.30666667 182.871244,3.54133333 182.84991,3.84 C182.828577,4.05333333 182.81791,4.21333333 182.81791,4.32 C182.924577,4.30933333 183.084577,4.31466667 183.29791,4.336 L183.66591,4.352 L184.44991,4.352 C185.271244,4.352 185.884577,4.33066667 186.28991,4.288 L186.14591,4.304 C186.199244,4.29333333 186.255244,4.27733333 186.31391,4.256 C186.372577,4.23466667 186.43391,4.21866667 186.49791,4.208 C186.572577,4.016 186.60991,3.68 186.60991,3.2 L186.60991,3.024 C186.22591,3.00266667 185.932577,2.992 185.72991,2.992 C184.64191,2.992 183.692577,3.04 182.88191,3.136 Z M190.73791,9.008 C190.73791,9.232 190.663244,9.42133333 190.51391,9.576 C190.364577,9.73066667 190.17791,9.808 189.95391,9.808 C189.740577,9.808 189.55391,9.728 189.39391,9.568 C189.23391,9.408 189.15391,9.22133333 189.15391,9.008 L189.15391,5.84 C189.15391,5.62666667 189.23391,5.44266667 189.39391,5.288 C189.55391,5.13333333 189.740577,5.056 189.95391,5.056 C190.17791,5.056 190.364577,5.13066667 190.51391,5.28 C190.663244,5.42933333 190.73791,5.616 190.73791,5.84 L190.73791,9.008 Z M187.02591,9.392 C187.431244,9.392 187.756577,9.42933333 188.00191,9.504 C188.247244,9.57866667 188.436577,9.73333333 188.56991,9.968 C188.703244,10.2026667 188.76991,10.5546667 188.76991,11.024 C188.76991,11.7493333 188.700577,12.44 188.56191,13.096 C188.423244,13.752 188.135244,14.1226667 187.69791,14.208 C187.292577,14.2826667 186.711244,14.32 185.95391,14.32 C185.783244,14.32 185.516577,14.3093333 185.15391,14.288 L184.75391,14.272 C184.700577,14.272 184.540577,14.2666667 184.27391,14.256 C184.007244,14.2453333 183.751244,14.2133333 183.50591,14.16 C183.164577,14.0853333 182.93791,13.8053333 182.82591,13.32 C182.71391,12.8346667 182.65791,12.3253333 182.65791,11.792 C182.65791,11.44 182.70591,11.0346667 182.80191,10.576 C182.89791,10.1173333 183.10591,9.81866667 183.42591,9.68 C183.74591,9.54133333 184.188577,9.472 184.75391,9.472 L184.80191,8.816 C184.19391,8.86933333 183.80991,8.896 183.64991,8.896 C183.447244,8.896 183.268577,8.81333333 183.11391,8.648 C182.959244,8.48266667 182.88191,8.29866667 182.88191,8.096 C182.88191,7.73333333 183.031244,7.50133333 183.32991,7.4 C183.628577,7.29866667 184.023244,7.248 184.51391,7.248 C184.695244,7.248 184.81791,7.24266667 184.88191,7.232 C184.91391,6.82666667 184.98591,6.52 185.09791,6.312 C185.20991,6.104 185.44191,6 185.79391,6 C185.868577,6 185.959244,6.02666667 186.06591,6.08 C186.172577,6.13333333 186.24191,6.192 186.27391,6.256 C186.43391,6.37333333 186.51391,6.55466667 186.51391,6.8 C186.51391,6.87466667 186.503244,6.98666667 186.48191,7.136 C186.567244,7.136 186.716577,7.12533333 186.92991,7.104 C187.228577,7.08266667 187.452577,7.072 187.60191,7.072 C187.79391,7.072 187.96991,7.15733333 188.12991,7.328 C188.28991,7.49866667 188.36991,7.68 188.36991,7.872 C188.36991,8.24533333 188.20991,8.48266667 187.88991,8.584 C187.56991,8.68533333 187.263244,8.736 186.96991,8.736 C186.676577,8.736 186.492577,8.736 186.41791,8.736 L186.35391,9.408 L187.02591,9.392 Z M187.16991,11.024 C187.127244,11.0133333 187.063244,11.008 186.97791,11.008 C185.783244,11.008 184.89791,11.0346667 184.32191,11.088 C184.279244,11.3333333 184.25791,11.6053333 184.25791,11.904 C184.25791,11.9893333 184.268577,12.1066667 184.28991,12.256 C184.311244,12.448 184.316577,12.5866667 184.30591,12.672 C184.615244,12.6613333 184.96191,12.672 185.34591,12.704 C185.687244,12.7253333 185.948577,12.736 186.12991,12.736 C186.343244,12.736 186.64191,12.7146667 187.02591,12.672 C187.12191,12.1493333 187.16991,11.712 187.16991,11.36 L187.16991,11.024 Z" id="形状"></path>
                </g>
                <g id="编组-4" transform="translate(0, 10)">
                    <rect id="矩形" fill="url(#linearGradient-1)" x="274" y="0" width="48" height="2" rx="1"></rect>
                    <rect id="矩形备份-6" fill="url(#linearGradient-2)" x="0" y="0" width="48" height="2" rx="1"></rect>
                </g>
            </g>
        </g>
    </g>
</svg>