<?xml version="1.0" encoding="UTF-8"?>
<svg width="26px" height="26px" viewBox="0 0 26 26" version="1.1" xmlns="http://www.w3.org/2000/svg" xmlns:xlink="http://www.w3.org/1999/xlink">
    <title>已收藏</title>
    <g id="页面-1" stroke="none" stroke-width="1" fill="none" fill-rule="evenodd">
        <g id="画板" transform="translate(-309, -214)" fill-rule="nonzero">
            <g id="已收藏" transform="translate(309, 214)">
                <g id="收藏" transform="translate(1, 1)">
                    <path d="M6.84317458,23.9133739 C6.09098518,24.1162584 5.29095561,23.958657 4.66225108,23.483744 C4.03354654,23.0088311 3.64208019,22.2663964 3.59509283,21.4598271 L3.31429008,16.629787 C3.2876118,16.1707952 3.14879371,15.7264631 2.91096113,15.3388023 L0.408111656,11.2596962 C-0.00983802342,10.5784884 -0.112864564,9.73859827 0.127255149,8.97010561 C0.367374863,8.20161296 0.925467407,7.5850842 1.64864877,7.28941138 L5.97931613,5.51920777 C6.3909348,5.35098256 6.75448253,5.07635495 7.03557645,4.72129812 L9.99245537,0.985553442 C10.4863458,0.361541572 11.2227958,0 12,0 C12.7772042,0 13.5136542,0.361541572 14.0075446,0.985553442 L16.9644236,4.72129812 C17.2455175,5.07635495 17.6090652,5.35098256 18.0206839,5.51920777 L22.3513512,7.28941138 C23.0745326,7.5850842 23.6326251,8.20161296 23.8727449,8.97010561 C24.1128646,9.73859827 24.009838,10.5784884 23.5918883,11.2596962 L21.0893639,15.3388023 C20.8514167,15.7264304 20.712486,16.1707648 20.6857099,16.629787 L20.4049072,21.4594892 C20.3580123,22.2661191 19.9665845,23.0086469 19.3378673,23.4836347 C18.7091501,23.9586226 17.9090672,24.1162661 17.1568254,23.9133739 L12.6529314,22.6987669 C12.2247318,22.5832485 11.7752682,22.5832485 11.3470686,22.6987669 L6.84317458,23.9133739 L6.84317458,23.9133739 Z" id="形状" fill="#88E0B6"></path>
                    <path d="M11.6735885,15.4487459 C11.8876539,15.3910061 12.1123461,15.3910061 12.3264115,15.4487459 L13.8277095,15.8538402 C13.9530919,15.8876568 14.086448,15.8613759 14.1912363,15.7821988 C14.2960246,15.7030216 14.3612561,15.5792515 14.3690565,15.4448031 L14.4626574,13.835015 C14.4759765,13.6054366 14.5454057,13.3831881 14.6643761,13.1892974 L15.4986592,11.8295953 C15.5683201,11.7160681 15.5854988,11.5760929 15.5454898,11.4480122 C15.5054808,11.3199314 15.412478,11.2171717 15.2919572,11.1678812 L13.8484014,10.577926 C13.6425861,10.4937975 13.4608117,10.3564638 13.3202712,10.1789148 L12.3345366,8.93366659 C12.2522208,8.8297054 12.1295042,8.76947611 12,8.76947611 C11.8704958,8.76947611 11.7477792,8.8297054 11.6654634,8.93366659 L10.6796204,10.1789148 C10.5391102,10.3564484 10.3573746,10.4937808 10.1515986,10.577926 L8.70804281,11.1678812 C8.58748906,11.2171653 8.49445988,11.3199453 8.45444823,11.4480562 C8.41443658,11.5761671 8.43163875,11.7161731 8.50134079,11.829708 L9.33551562,13.18941 C9.45448922,13.383224 9.52395454,13.6053912 9.53734259,13.8349024 L9.63094351,15.4448031 C9.63877473,15.5792313 9.70401912,15.7029704 9.80880321,15.7821226 C9.9135873,15.8612747 10.0469256,15.8875416 10.1722905,15.8537275 L11.6735885,15.4488585 L11.6735885,15.4487459 Z M10.2810582,16.2899136 C10.0303284,16.3575418 9.76365187,16.305008 9.55408369,16.1467037 C9.34451551,15.9883994 9.21402673,15.7409211 9.19836428,15.4720647 L9.10476336,13.8620513 C9.0958706,13.7090541 9.0495979,13.5609434 8.97032038,13.4317231 L8.13603722,12.0720211 C7.99672066,11.8449518 7.96237848,11.5649884 8.04241838,11.3088242 C8.12245829,11.05266 8.30848914,10.8471504 8.54954959,10.7485928 L9.99310538,10.1585249 C10.1303116,10.1024499 10.2514942,10.0109073 10.3451921,9.89255504 L11.3308185,8.64730681 C11.4954486,8.43930285 11.7409319,8.318789 12,8.318789 C12.2590681,8.318789 12.5045514,8.43930285 12.6691815,8.64730681 L13.6548079,9.89255504 C13.7485058,10.0109073 13.8696884,10.1024499 14.0068946,10.1585249 L15.4504504,10.7485928 C15.6915109,10.8471504 15.8775417,11.05266 15.9575816,11.3088242 C16.0376215,11.5649884 16.0032793,11.8449518 15.8639628,12.0720211 L15.029788,13.4317231 C14.9504722,13.5609325 14.904162,13.7090439 14.8952366,13.8620513 L14.8016357,15.4719521 C14.7860041,15.7408287 14.6555282,15.9883379 14.4459558,16.1466672 C14.2363834,16.3049965 13.9696891,16.3575444 13.7189418,16.2899136 L12.2176438,15.8850446 C12.0749106,15.8465385 11.9250894,15.8465385 11.7823562,15.8850446 L10.2810582,16.2899136 L10.2810582,16.2899136 Z" id="形状" stroke="#000000" fill="#FFFFFF"></path>
                </g>
            </g>
        </g>
    </g>
</svg>