<?xml version="1.0" encoding="UTF-8"?>
<svg width="26px" height="26px" viewBox="0 0 26 26" version="1.1" xmlns="http://www.w3.org/2000/svg" xmlns:xlink="http://www.w3.org/1999/xlink">
    <title>评论</title>
    <g id="页面-1" stroke="none" stroke-width="1" fill="none" fill-rule="evenodd">
        <g id="画板" transform="translate(-267, -214)" fill-rule="nonzero">
            <g id="评论" transform="translate(267, 214)">
                <g id="评论" transform="translate(1, 1)">
                    <path d="M11.3265528,24.0131417 L9.70123037,22.532846 C9.20423997,22.0802017 8.56962581,21.807592 7.89917822,21.7587425 L4.91707317,21.5414634 L4.91707317,21.5414634 C2.10731707,21.1902439 0,18.8487805 0,16.0390244 L0,5.9707317 C0,3.2195122 2.04878048,0.878048783 4.80000001,0.468292688 C7.20000002,0.117073184 9.60000002,0 12,0 C14.4,0 16.8,0.175609752 19.2,0.468292688 C21.9512195,0.878048783 24,3.2195122 24,5.9707317 L24,16.0390244 C24,18.9658536 21.6336745,20.8668405 18.7902439,21.6 C18.3134346,21.7229421 17.4419025,21.7974697 16.1756477,21.8235829 L16.1756478,21.8235867 C15.4498207,21.8385998 14.7540608,22.1163045 14.2173812,22.6052066 L12.6733612,24.0130473 C12.2917471,24.3607081 11.7082156,24.360749 11.3265528,24.0131417 Z" id="形状" fill="#FFFFFF"></path>
                    <path d="M14.9268293,14.3414634 C14.4585366,14.3414634 14.0487805,13.9317073 14.0487805,13.4634146 C14.0487805,12.9951219 14.4585366,12.5853658 14.9268293,12.5853658 L15.9804878,12.5853658 C16.4487805,12.5853658 16.8585366,12.9951219 16.8585366,13.4634146 C16.8585366,13.9317073 16.5073171,14.3414634 15.9804878,14.3414634 L14.9268293,14.3414634 Z" id="路径" fill="#000000"></path>
                    <path d="M6.73170733,14.3414634 C6.26341464,14.3414634 5.85365854,13.9317073 5.85365854,13.4634146 C5.85365854,12.9951219 6.26341464,12.5853658 6.73170733,12.5853658 L10.7707317,12.5853658 C11.2390244,12.5853658 11.6487805,12.9951219 11.6487805,13.4634146 C11.6487805,13.9317073 11.2390244,14.3414634 10.7707317,14.3414634 L6.73170733,14.3414634 Z" id="路径" fill="#000000"></path>
                    <path d="M6.73170733,9.07317074 C6.26341464,9.07317074 5.85365854,8.66341464 5.85365854,8.19512196 C5.85365854,7.72682927 6.26341464,7.31707317 6.73170733,7.31707317 L16.097561,7.31707317 C16.5658537,7.31707317 16.9756098,7.72682927 16.9756098,8.19512196 C16.9756098,8.66341464 16.5658537,9.07317074 16.097561,9.07317074 L6.73170733,9.07317074 Z" id="路径" fill="#000000"></path>
                </g>
            </g>
        </g>
    </g>
</svg>