<?xml version="1.0" encoding="UTF-8"?>
<svg width="18px" height="18px" viewBox="0 0 18 18" version="1.1" xmlns="http://www.w3.org/2000/svg" xmlns:xlink="http://www.w3.org/1999/xlink">
    <title>关闭弹幕</title>
    <g id="页面-1" stroke="none" stroke-width="1" fill="none" fill-rule="evenodd">
        <g id="作品播放副状态" transform="translate(-31, -496)">
            <g id="弹幕" transform="translate(25, 490)">
                <g id="关闭弹幕" transform="translate(6, 6)">
                    <path d="M13,0 C15.7614237,0 18,2.23857625 18,5 L18.0007255,11.6722296 C17.7155851,11.319672 17.3782673,11.0110542 17.0005166,10.7581204 L17,5 C17,2.790861 15.209139,1 13,1 L5,1 C2.790861,1 1,2.790861 1,5 L1,13 C1,15.209139 2.790861,17 5,17 L10.7581204,17.0005166 C11.0110542,17.3782673 11.319672,17.7155851 11.6722296,18.0007255 L5,18 C2.23857625,18 0,15.7614237 0,13 L0,5 C0,2.23857625 2.23857625,0 5,0 L13,0 Z M6.336,4.108 C6.552,4.108 6.772,4.136 6.996,4.192 C7.196,4.264 7.356,4.372 7.476,4.516 C7.612,4.636 7.68,4.828 7.68,5.092 C7.68,5.748 7.568,6.532 7.344,7.444 C7.44,7.54 7.488,7.62 7.488,7.684 C7.488,7.996 7.308,8.152 6.948,8.152 L6.24,8.092 C6.104,8.092 5.904,8.104 5.64,8.128 C5.448,8.144 5.2,8.188 4.896,8.26 C4.72,9.132 4.632,9.752 4.632,10.12 C4.632,10.2 4.672,10.24 4.752,10.24 C4.808,10.24 4.9,10.232 5.028,10.216 C5.188,10.2 5.372,10.176 5.58,10.144 C6.06,10.064 6.38,10.024 6.54,10.024 C6.724,10.024 6.9,10.072 7.068,10.168 C7.316,10.352 7.444,10.596 7.452,10.9 C7.452,11.596 7.432,12.256 7.392,12.88 L7.284,13.864 C7.244,14.184 7.2,14.452 7.152,14.668 C7.024,14.908 6.868,15.028 6.684,15.028 C6.444,15.028 6.236,14.964 6.06,14.836 C5.9,14.708 5.82,14.564 5.82,14.404 C5.82,14.356 5.884,14.316 6.012,14.284 C6.236,13.764 6.348,12.724 6.348,11.164 C6.348,10.98 6.272,10.888 6.12,10.888 C6.008,10.888 5.692,10.94 5.172,11.044 C4.74,11.132 4.428,11.176 4.236,11.176 C3.988,11.176 3.816,11.064 3.72,10.84 C3.68,10.76 3.66,10.632 3.66,10.456 C3.66,10.168 3.76,9.324 3.96,7.924 L3.96,7.54 C3.96,7.412 4.012,7.324 4.116,7.276 C4.212,7.22 4.32,7.192 4.44,7.192 C4.536,7.192 4.644,7.244 4.764,7.348 L5.328,7.288 C5.48,7.28 5.644,7.264 5.82,7.24 L6.3,7.168 C6.516,6.448 6.624,5.788 6.624,5.188 C6.624,5.036 6.516,4.96 6.3,4.96 C5.94,4.96 5.544,5.012 5.112,5.116 C4.672,5.252 4.396,5.352 4.284,5.416 C4.172,5.496 4.076,5.536 3.996,5.536 C3.732,5.44 3.592,5.16 3.576,4.696 L3.636,4.624 C4.684,4.28 5.584,4.108 6.336,4.108 Z M12.372,3.82 C12.492,3.82 12.6,3.856 12.696,3.928 C12.8,4.032 12.864,4.128 12.888,4.216 L12.912,4.372 C12.912,4.452 12.888,4.516 12.84,4.564 L12.672,4.708 C12.416,4.988 12.232,5.288 12.12,5.608 C12.096,5.656 12.084,5.688 12.084,5.704 L12.492,5.692 C12.692,5.692 12.904,5.736 13.128,5.824 C13.344,5.92 13.512,6.028 13.632,6.148 C13.752,6.276 13.812,6.432 13.812,6.616 C13.812,7.24 13.792,7.884 13.752,8.548 C13.696,9.1 13.648,9.504 13.608,9.76 C13.648,9.824 13.668,9.868 13.668,9.892 C13.668,9.97107143 13.6535271,10.03567 13.6245813,10.0857956 C13.4636111,10.1168479 13.306026,10.1570863 13.1520059,10.2053815 C13.0828016,10.2016141 13.0104706,10.1924118 12.936,10.18 C12.808,10.156 12.68,10.144 12.552,10.144 L11.46,10.192 L11.4407406,11.1998315 C11.0929495,11.5223855 10.7962322,11.8992419 10.56407,12.3169191 L10.584,12.316 C9.96,12.388 9.416,12.472 8.952,12.568 L8.772,12.628 L8.64,12.652 C8.552,12.684 8.464,12.7 8.376,12.7 C8.24,12.7 8.12,12.608 8.016,12.424 C7.896,12.24 7.836,12.092 7.836,11.98 C7.836,11.908 7.872,11.868 7.944,11.86 C8.648,11.74 9.244,11.66 9.732,11.62 L10.584,11.536 L10.584,10.264 L10.092,10.336 L9.684,10.42 C9.588,10.46 9.524,10.48 9.492,10.48 C9.46,10.544 9.416,10.604 9.36,10.66 C9.272,10.748 9.164,10.792 9.036,10.792 C8.868,10.792 8.74,10.74 8.652,10.636 C8.588,10.596 8.544,10.524 8.52,10.42 C8.36,9.54 8.28,8.236 8.28,6.508 C8.28,6.412 8.272,6.332 8.256,6.268 C8.248,6.244 8.244,6.216 8.244,6.184 L8.244,6.112 C8.244,6.048 8.276,5.996 8.34,5.956 C8.42,5.916 8.516,5.896 8.628,5.896 C8.74,5.896 8.888,5.936 9.072,6.016 C9.096,6.04 9.116,6.052 9.132,6.052 L9.948,5.908 C9.892,5.812 9.844,5.712 9.804,5.608 C9.652,5.336 9.536,5.152 9.456,5.056 L9.192,4.78 C9.064,4.724 9,4.64 9,4.528 C9,4.376 9.052,4.236 9.156,4.108 C9.236,3.98 9.372,3.916 9.564,3.916 C9.756,3.948 9.996,4.224 10.284,4.744 C10.548,5.248 10.692,5.604 10.716,5.812 L11.268,5.752 L11.268,5.728 C11.268,5.632 11.308,5.46 11.388,5.212 C11.564,4.772 11.732,4.416 11.892,4.144 C11.98,4 12.06,3.908 12.132,3.868 C12.164,3.852 12.2,3.84 12.24,3.832 C12.288,3.824 12.332,3.82 12.372,3.82 Z M10.584,8.416 L9.972,8.476 L9.3,8.572 C9.3,8.732 9.308,8.892 9.324,9.052 L9.396,9.688 C9.428,9.688 9.46,9.684 9.492,9.676 L9.78,9.64 C9.916,9.616 10.036,9.6 10.14,9.592 L10.248,9.58 C10.288,9.58 10.328,9.576 10.368,9.568 L10.584,9.544 L10.584,8.416 Z M12.78,8.26 C12.348,8.268 11.916,8.292 11.484,8.332 L11.472,9.46 C11.872,9.436 12.132,9.412 12.252,9.388 L12.636,9.328 L12.744,8.62 L12.78,8.26 Z M10.464,6.628 C10.128,6.684 9.804,6.756 9.492,6.844 L9.264,6.916 L9.264,7.408 C9.264,7.568 9.268,7.708 9.276,7.828 L9.408,7.828 C9.56,7.828 9.884,7.8 10.38,7.744 C10.412,7.744 10.444,7.74 10.476,7.732 L10.572,7.72 L10.56,7.312 L10.5,6.844 C10.476,6.748 10.464,6.676 10.464,6.628 Z M12.288,6.472 C12.128,6.472 11.912,6.48 11.64,6.496 L11.616,6.568 C11.568,6.712 11.532,6.9 11.508,7.132 L11.484,7.636 L11.592,7.624 C11.904,7.592 12.148,7.564 12.324,7.54 C12.436,7.532 12.548,7.508 12.66,7.468 L12.84,7.444 C12.84,7.356 12.844,7.228 12.852,7.06 L12.852,6.688 C12.844,6.544 12.656,6.472 12.288,6.472 Z" id="形状结合" fill="#FFFFFF" fill-rule="nonzero"></path>
                    <circle id="椭圆形" fill="#FF0000" cx="14.5" cy="14.5" r="3.5"></circle>
                    <g id="关闭" transform="translate(11.6708, 11.6716)" fill="#000000" stroke="#000000" stroke-width="0.2">
                        <path d="M2.82842712,0.828427125 C2.97250141,0.828427125 3.08929669,0.945222407 3.08929669,1.08929669 L3.08929669,2.56755756 L4.56755756,2.56755756 C4.71163184,2.56755756 4.82842712,2.68435284 4.82842712,2.82842712 C4.82842712,2.97250141 4.71163184,3.08929669 4.56755756,3.08929669 L3.08912278,3.08929669 L3.08929669,4.56755756 C3.08929669,4.71163184 2.97250141,4.82842712 2.82842712,4.82842712 C2.68435284,4.82842712 2.56755756,4.71163184 2.56755756,4.56755756 L2.56738365,3.08929669 L1.08929669,3.08929669 C0.945222407,3.08929669 0.828427125,2.97250141 0.828427125,2.82842712 C0.828427125,2.68435284 0.945222407,2.56755756 1.08929669,2.56755756 L2.56755756,2.56755756 L2.56755756,1.08929669 C2.56755756,0.945222407 2.68435284,0.828427125 2.82842712,0.828427125 Z" id="路径" transform="translate(2.8284, 2.8284) rotate(45) translate(-2.8284, -2.8284)"></path>
                    </g>
                </g>
            </g>
        </g>
    </g>
</svg>