<?xml version="1.0" encoding="UTF-8"?>
<svg width="22px" height="21px" viewBox="0 0 22 21" version="1.1" xmlns="http://www.w3.org/2000/svg" xmlns:xlink="http://www.w3.org/1999/xlink">
    <title>前进</title>
    <g id="页面-1" stroke="none" stroke-width="1" fill="none" fill-rule="evenodd">
        <g id="作品播放" transform="translate(-25, -702)" fill="#FFFFFF" fill-rule="nonzero">
            <g id="编组-11" transform="translate(25, 677)">
                <g id="前进" transform="translate(0, 25)">
                    <path d="M18.0291335,8.20514652 C17.0892131,4.14465017 13.2556421,1.43297433 9.11391138,1.89896563 C4.97218069,2.36495693 1.83701345,5.86069423 1.82287333,10.0285331 C1.82246033,13.1836529 3.63118799,16.05954 6.47518235,17.4257307 C9.31917671,18.7919213 12.6946158,18.4063907 15.1572996,16.4340903 C15.5500408,16.1188904 16.1239404,16.1817499 16.4391404,16.5744911 C16.7543403,16.9672322 16.6914808,17.5411319 16.2987396,17.8563318 C12.7786445,20.6757274 7.80951101,20.7985472 4.15442771,18.1564974 C0.499344414,15.5144476 -0.942490419,10.757507 0.630655986,6.53077405 C2.20380239,2.30404111 6.40491544,-0.352652539 10.8979647,0.0379485688 C15.391014,0.428549677 19.0706506,3.77035256 19.8908113,8.20514652 L21.0887763,8.20514652 C21.4247824,8.20532009 21.7334571,8.39029718 21.8920523,8.68651955 C22.0506476,8.98274193 22.0334526,9.3421872 21.8473051,9.62191792 L19.903575,12.5375131 C19.7344803,12.7911053 19.4498444,12.9434212 19.1450461,12.9434212 C18.8402479,12.9434212 18.555612,12.7911053 18.3865173,12.5375131 L16.4427872,9.62191792 C16.2566397,9.34218721 16.2394447,8.98274193 16.39804,8.68651956 C16.5566352,8.39029719 16.8653099,8.2053201 17.201316,8.20514652 L18.0291335,8.20514652 Z" id="路径" transform="translate(11, 10.0288) scale(-1, 1) translate(-11, -10.0288)"></path>
                    <g id="15" transform="translate(6.78, 6.54)">
                        <path d="M1.92,0 C1.68,0.25 1.38,0.48 1.02,0.7 C0.66,0.9 0.32,1.04 0,1.12 L0,2.28 C0.66,2.09 1.2,1.8 1.63,1.41 L1.63,7.14 L2.8,7.14 L2.8,0 L1.92,0 Z" id="路径"></path>
                        <path d="M4.62,0 L4.23,4.02 L5.32,4.02 C5.46,3.77 5.65,3.59 5.9,3.47 C6.12,3.36 6.39,3.31 6.7,3.31 C7.16,3.31 7.52,3.44 7.76,3.72 C8,3.99 8.13,4.37 8.13,4.85 C8.13,5.29 7.98,5.64 7.7,5.9 C7.41,6.16 7.05,6.29 6.63,6.29 C6.24,6.29 5.93,6.2 5.71,6.04 C5.45,5.85 5.3,5.56 5.25,5.17 L4.1,5.17 C4.15,5.83 4.43,6.36 4.95,6.75 C5.41,7.1 5.97,7.28 6.62,7.28 C7.33,7.28 7.94,7.07 8.46,6.65 C9.02,6.18 9.3,5.58 9.3,4.84 C9.3,4.07 9.08,3.46 8.66,3.02 C8.24,2.58 7.69,2.36 7.02,2.36 C6.7,2.36 6.41,2.41 6.15,2.51 C5.86,2.61 5.61,2.77 5.39,2.99 L5.36,2.99 L5.56,1.03 L8.97,1.03 L8.97,0 L4.62,0 Z" id="路径"></path>
                    </g>
                </g>
            </g>
        </g>
    </g>
</svg>