<?xml version="1.0" encoding="UTF-8"?>
<svg width="71px" height="71px" viewBox="0 0 71 71" version="1.1" xmlns="http://www.w3.org/2000/svg" xmlns:xlink="http://www.w3.org/1999/xlink">
    <title>编组 10备份</title>
    <g id="页面-1" stroke="none" stroke-width="1" fill="none" fill-rule="evenodd">
        <g id="画板" transform="translate(-390, -386)">
            <g id="编组-10备份" transform="translate(390, 386)">
                <rect id="矩形" fill="#FFFFFF" x="0" y="0" width="71" height="71" rx="35.5"></rect>
                <g id="编组" transform="translate(25, 26)" fill="#000000">
                    <path d="M2.5,0 C3.88071187,-4.4408921e-16 5,1.11928813 5,2.5 L5,17.5 C5,18.8807119 3.88071187,20 2.5,20 C1.11928813,20 0,18.8807119 0,17.5 L0,2.5 C0,1.11928813 1.11928813,0 2.5,0 Z" id="矩形"></path>
                    <path d="M18.5,0 C19.8807119,-4.4408921e-16 21,1.11928813 21,2.5 L21,17.5 C21,18.8807119 19.8807119,20 18.5,20 C17.1192881,20 16,18.8807119 16,17.5 L16,2.5 C16,1.11928813 17.1192881,0 18.5,0 Z" id="矩形备份-2"></path>
                </g>
            </g>
        </g>
    </g>
</svg>