<?xml version="1.0" encoding="UTF-8"?>
<svg width="53px" height="53px" viewBox="0 0 53 53" version="1.1" xmlns="http://www.w3.org/2000/svg" xmlns:xlink="http://www.w3.org/1999/xlink">
    <title>编组 17</title>
    <defs>
        <rect id="path-1" x="0" y="0" width="53" height="53"></rect>
        <linearGradient x1="0%" y1="50%" x2="100%" y2="73.0011514%" id="linearGradient-3">
            <stop stop-color="#BCE9A1" offset="0%"></stop>
            <stop stop-color="#66E396" offset="100%"></stop>
        </linearGradient>
        <rect id="path-4" x="0" y="0" width="53" height="53" rx="26.5"></rect>
        <path d="M7.14873474,0.292943864 C7.14873474,0.292943864 7.14873474,0.292943864 7.14873474,0.292943864 C8.89280826,0.639194065 10.4974013,1.60463476 11.9625138,3.18926594 L11.9625138,19.6416759 C11.35326,18.2282364 10.1053051,17.2398482 8.21864918,16.6765114 C6.99362236,16.3107305 5.4198387,16.1768978 4.75309677,15.9382565 C4.75309677,15.9382565 4.75309677,15.9382565 4.75309677,15.9382565 C3.70758894,15.5640468 3.00991856,14.573323 3.00991856,13.4628639 L3.00990826,3.69086644 C3.00990826,1.77762046 4.56090058,0.226628134 6.47414657,0.226628134 C6.70063648,0.226628134 6.92658052,0.248839676 7.14873474,0.292943864 Z" id="path-5"></path>
        <filter x="-296.0%" y="-123.6%" width="692.0%" height="368.7%" filterUnits="objectBoundingBox" id="filter-6">
            <feOffset dx="0" dy="2" in="SourceAlpha" result="shadowOffsetOuter1"></feOffset>
            <feGaussianBlur stdDeviation="8.5" in="shadowOffsetOuter1" result="shadowBlurOuter1"></feGaussianBlur>
            <feColorMatrix values="0 0 0 0 0.715023759   0 0 0 0 0.325784057   0 0 0 0 0.00456682596  0 0 0 0.140964748 0" type="matrix" in="shadowBlurOuter1"></feColorMatrix>
        </filter>
        <path d="M16.0241482,0.292943864 C16.0241482,0.292943864 16.0241482,0.292943864 16.0241482,0.292943864 C17.7682217,0.639194065 19.3728147,1.60463476 20.8379272,3.18926594 L20.8379272,19.6416759 C20.2286734,18.2282364 18.9807185,17.2398482 17.0940626,16.6765114 C15.8690358,16.3107305 14.2952522,16.1768978 13.6285102,15.9382565 C13.6285102,15.9382565 13.6285102,15.9382565 13.6285102,15.9382565 C12.5830024,15.5640468 11.885332,14.573323 11.885332,13.4628639 L11.8853217,3.69086644 C11.8853217,1.77762046 13.436314,0.226628134 15.34956,0.226628134 C15.5760499,0.226628134 15.801994,0.248839676 16.0241482,0.292943864 Z" id="path-7"></path>
        <filter x="-296.0%" y="-123.6%" width="692.0%" height="368.7%" filterUnits="objectBoundingBox" id="filter-8">
            <feOffset dx="0" dy="2" in="SourceAlpha" result="shadowOffsetOuter1"></feOffset>
            <feGaussianBlur stdDeviation="8.5" in="shadowOffsetOuter1" result="shadowBlurOuter1"></feGaussianBlur>
            <feColorMatrix values="0 0 0 0 0.715023759   0 0 0 0 0.325784057   0 0 0 0 0.00456682596  0 0 0 0.140964748 0" type="matrix" in="shadowBlurOuter1"></feColorMatrix>
        </filter>
        <radialGradient cx="50%" cy="50%" fx="50%" fy="50%" r="50%" gradientTransform="translate(0.5, 0.5), scale(0.9659, 1), rotate(90), translate(-0.5, -0.5)" id="radialGradient-9">
            <stop stop-color="#EF4639" offset="0%"></stop>
            <stop stop-color="#FA983B" offset="100%"></stop>
        </radialGradient>
        <path d="M1.10957344,0.117628111 C0.499346818,-0.187123366 0,0.121034886 0,0.802389815 L0,5.75769839 C0,6.43905332 0.499346818,6.74721157 1.10957344,6.44246009 L6.33395076,3.83395469 C6.94417738,3.52920321 6.94417738,3.03057529 6.33395076,2.72597866 L1.10957344,0.117628111 Z" id="path-10"></path>
    </defs>
    <g id="页面-1" stroke="none" stroke-width="1" fill="none" fill-rule="evenodd">
        <g id="画板" transform="translate(-575, -505)">
            <g id="编组-17" transform="translate(575, 505)">
                <mask id="mask-2" fill="white">
                    <use xlink:href="#path-1"></use>
                </mask>
                <g id="矩形"></g>
                <g id="编组-8" mask="url(#mask-2)">
                    <g id="矩形">
                        <use fill="#D8D8D8" xlink:href="#path-4"></use>
                        <rect stroke="#000000" stroke-width="1.5" stroke-linejoin="square" fill="url(#linearGradient-3)" x="0.75" y="0.75" width="51.5" height="51.5" rx="25.75"></rect>
                    </g>
                    <g id="编组-6" transform="translate(9, 11)">
                        <rect id="矩形" fill="#000000" x="0" y="17.5964719" width="5.20948181" height="7.47020033" rx="2.6047409"></rect>
                        <g id="编组" transform="translate(5.5182, 12.1555)">
                            <path d="M6.1634245,2.80165655 C6.1634245,2.80165655 6.1634245,2.80165655 6.1634245,2.80165655 C8.23652232,3.14843115 10.1438262,4.11533402 11.8853363,5.70236516 L11.8853363,19.6802646 C11.161145,19.1286842 9.67776003,18.570799 7.43518126,18.0066091 C5.97904973,17.6402742 4.10836744,17.5062388 3.31584279,17.2672361 C3.31584279,17.2672361 3.31584279,17.2672361 3.31584279,17.2672361 C2.07541562,16.8931588 1.18658878,15.8030815 1.0698852,14.512743 L0.486752233,8.06492813 C0.243494086,5.37533304 2.22664201,2.99778574 4.91623709,2.75452759 C5.33227266,2.71689961 5.75141512,2.73273824 6.1634245,2.80165655 Z" id="矩形" fill="#42403F" opacity="0.501042684"></path>
                            <path d="M18.1259383,2.80165655 C18.1259383,2.80165655 18.1259383,2.80165655 18.1259383,2.80165655 C20.1990361,3.14843115 22.10634,4.11533402 23.8478501,5.70236516 L23.8478501,19.6802646 C23.1236588,19.1286842 21.6402738,18.570799 19.397695,18.0066091 C17.9415635,17.6402742 16.0708812,17.5062388 15.2783566,17.2672361 C15.2783566,17.2672361 15.2783566,17.2672361 15.2783566,17.2672361 C14.0379294,16.8931588 13.1491026,15.8030815 13.032399,14.512743 L12.449266,8.06492813 C12.2060079,5.37533304 14.1891558,2.99778574 16.8787509,2.75452759 C17.2947864,2.71689961 17.7139289,2.73273824 18.1259383,2.80165655 Z" id="矩形" fill="#42403F" opacity="0.501042684" transform="translate(17.9052, 11.0943) scale(-1, 1) translate(-17.9052, -11.0943)"></path>
                            <g id="矩形">
                                <use fill="black" fill-opacity="1" filter="url(#filter-6)" xlink:href="#path-5"></use>
                                <use fill="#404040" fill-rule="evenodd" xlink:href="#path-5"></use>
                            </g>
                            <g id="矩形" transform="translate(16.3616, 9.8208) scale(-1, 1) translate(-16.3616, -9.8208)">
                                <use fill="black" fill-opacity="1" filter="url(#filter-8)" xlink:href="#path-7"></use>
                                <use fill="#000000" fill-rule="evenodd" xlink:href="#path-7"></use>
                            </g>
                        </g>
                        <path d="M17.4421169,0 C26.0734689,0 33.0705623,6.99709335 33.0705623,15.6284454 L33.0705623,18.4840132 C33.0705623,20.0962943 32.8264208,21.6515532 32.3730906,23.114837 C31.9900593,22.6901495 31.5592184,22.3096323 31.0895808,21.9807266 C31.3751696,20.8627063 31.5270121,19.6910921 31.5270121,18.4840132 L31.5270121,15.6284454 C31.5270121,7.84957257 25.2209897,1.54355017 17.4421169,1.54355017 C9.66324401,1.54355017 3.35722161,7.84957257 3.35722161,15.6284454 L3.35722161,18.4840132 C3.35722161,19.8045367 3.5389465,21.0826161 3.8787523,22.2946073 C3.423904,22.66209 3.01125251,23.0815796 2.65071668,23.5437135 C2.10831427,21.9575984 1.81367144,20.2552146 1.81367144,18.4840132 L1.81367144,15.6284454 C1.81367144,6.99709335 8.8107648,0 17.4421169,0 Z" id="形状结合" fill="#000000" fill-rule="nonzero"></path>
                        <g id="编组-2" transform="translate(11.2293, 5.5568)" fill="#000000">
                            <rect id="矩形" x="0" y="1.23484013" width="1.15766262" height="3.43439912" rx="0.578831312"></rect>
                            <rect id="矩形备份-3" x="2.93274531" y="1.92943771" width="1.15766262" height="2.04520397" rx="0.578831312"></rect>
                            <rect id="矩形备份-4" x="8.75964719" y="1.92943771" width="1.15766262" height="2.04520397" rx="0.578831312"></rect>
                            <rect id="矩形备份-5" x="11.6538037" y="1.23484013" width="1.15766262" height="3.43439912" rx="0.578831312"></rect>
                            <rect id="矩形备份-2" x="5.82690187" y="0" width="1.15766262" height="5.86549063" rx="0.578831312"></rect>
                        </g>
                        <rect id="矩形备份" fill="#000000" x="29.7905182" y="17.5964719" width="5.20948181" height="7.47020033" rx="2.6047409"></rect>
                        <g id="编组" transform="translate(14.7409, 17.5965)" fill-rule="nonzero">
                            <g id="路径">
                                <use fill="url(#radialGradient-9)" xlink:href="#path-10"></use>
                                <use fill="#FFDA48" xlink:href="#path-10"></use>
                            </g>
                        </g>
                    </g>
                </g>
            </g>
        </g>
    </g>
</svg>