<?xml version="1.0" encoding="UTF-8"?>
<svg width="24px" height="24px" viewBox="0 0 24 24" version="1.1" xmlns="http://www.w3.org/2000/svg" xmlns:xlink="http://www.w3.org/1999/xlink">
    <title>分 享</title>
    <g id="页面-1" stroke="none" stroke-width="1" fill="none" fill-rule="evenodd">
        <g id="作品播放" transform="translate(-335, -54)" fill="#FFFFFF" fill-rule="nonzero">
            <g id="分-享" transform="translate(335, 54)">
                <path d="M12,0 C12.5625,0 13.0205357,0.455357143 13.0205357,1.02053571 C13.0205357,1.58571429 12.5651786,2.04107143 12,2.04107143 C6.49821429,2.04107143 2.03839286,6.50089286 2.03839286,12.0026786 C2.03839286,17.5044643 6.49821429,21.9616071 12,21.9616071 C17.5017857,21.9616071 21.9616071,17.5017857 21.9616071,12 C21.9616071,11.4375 22.4169643,10.9794643 22.9821429,10.9794643 C23.5473214,10.9794643 24,11.4375 24,12 C24,18.6267857 18.6267857,24 12,24 C5.37321429,24 0,18.6267857 0,12 C0,5.37321429 5.37321429,0 12,0 L12,0 Z M18.1767857,5.10267857 C17.7964286,4.70892857 17.8017857,4.08482143 18.1901786,3.69910714 C18.5785714,3.31071429 19.2026786,3.30803571 19.6017857,3.69375 L21.3589286,5.45089286 C21.8892857,5.98125 21.8892857,6.83839286 21.3589286,7.36875 L19.6017857,9.12589286 C19.2107143,9.51696429 18.5758929,9.51696429 18.1848214,9.12589286 C17.79375,8.73482143 17.79375,8.1 18.1848214,7.70892857 L18.4821429,7.41160714 L17.1883929,7.41160714 C13.6714286,7.41160714 12.4767857,8.90892857 12.4767857,13.4383929 C12.4767857,13.9928571 12.0294643,14.4401786 11.475,14.4401786 C10.9205357,14.4401786 10.4732143,13.9928571 10.4732143,13.4383929 C10.4732143,7.8375 12.5169643,5.40803571 17.1883929,5.40803571 L18.4821429,5.40803571 L18.1767857,5.10267857 L18.1767857,5.10267857 Z" id="形状"></path>
            </g>
        </g>
    </g>
</svg>