<?xml version="1.0" encoding="UTF-8"?>
<svg width="26px" height="27px" viewBox="0 0 26 27" version="1.1" xmlns="http://www.w3.org/2000/svg" xmlns:xlink="http://www.w3.org/1999/xlink">
    <title>倍数</title>
    <g id="页面-1" stroke="none" stroke-width="1" fill="none" fill-rule="evenodd">
        <g id="画板" transform="translate(-399, -213)" fill="#FFFFFF" fill-rule="nonzero">
            <g id="倍数" transform="translate(399, 213.9393)">
                <g id="视频倍数-填充" transform="translate(1, 1)">
                    <path d="M8,0 L16,0 C20.418278,0 24,3.581722 24,8 L24,13.8272268 C24,18.2455048 20.418278,21.8272268 16,21.8272268 L8,21.8272268 C3.581722,21.8272268 0,18.2455048 0,13.8272268 L0,8 C0,3.581722 3.581722,8.8817842e-16 8,0 Z M16.874,5.15211982 C17.63,5.15211982 18.206,5.87462569 18.206,8.36727089 C18.206,10.8719579 17.63,11.6426308 16.874,11.6426308 C16.106,11.6426308 15.53,10.8719579 15.53,8.36727089 C15.53,5.87462567 16.106,5.15211982 16.874,5.15211982 Z" id="形状"></path>
                    <path d="M10.2,17.0591662 C10.3866539,17.0591662 10.5707314,17.1028844 10.7376,17.1868089 L14.2532,19.4530689 C14.6591779,19.6572506 14.9155197,20.0739082 14.9155197,20.5296027 C14.9155197,20.9852971 14.6591779,21.4019548 14.2532,21.6061364 L10.7376,23.8723965 C10.3656161,24.0594462 9.92362199,24.0397869 9.56958871,23.8204449 C9.21555543,23.6011028 9,23.2133845 9,22.7958627 L9,18.2633426 C9,17.5982943 9.53725831,17.0591662 10.2,17.0591662 Z" id="路径" stroke="#000000"></path>
                </g>
            </g>
        </g>
    </g>
</svg>