<?xml version="1.0" encoding="UTF-8"?>
<svg width="53px" height="17px" viewBox="0 0 53 17" version="1.1" xmlns="http://www.w3.org/2000/svg" xmlns:xlink="http://www.w3.org/1999/xlink">
    <title>会员标签</title>
    <g id="页面-1" stroke="none" stroke-width="1" fill="none" fill-rule="evenodd">
        <g id="作品播放" transform="translate(-121, -57)">
            <g id="编组-16" transform="translate(41, 53)">
                <g id="会员标签" transform="translate(80, 4)">
                    <rect id="矩形" fill="#B9EFD5" x="0" y="0" width="53" height="17" rx="8.5"></rect>
                    <rect id="矩形" stroke="#000000" fill="#88E0B6" x="0.5" y="0.5" width="16" height="16" rx="8"></rect>
                    <g id="会员-(1)" transform="translate(4, 4)">
                        <path d="M0.833333333,4.09090909 L1.16330302,3.84701087 C3.5672428,2.07013055 6.87538625,2.17094445 9.16666667,4.09090909 L9.16666667,4.09090909 L9.16666667,4.09090909 L5.20603224,9 L0.833333333,4.09090909 Z" id="矩形" fill="#FFBC2E"></path>
                        <path d="M9.77423379,2.91497976 L7.81648599,0.41902834 C7.62071122,0.163967611 7.30035249,0 6.97999376,0 L3.02890276,0 C2.70854403,0 2.40598301,0.145748988 2.19241052,0.41902834 L0.234662729,2.91497976 C-0.103493708,3.3340081 -0.0678982932,3.9534413 0.288055851,4.35425101 L4.25694456,8.65384615 L4.31033768,8.70850202 C4.50611246,8.89068826 4.77307806,9 5.04004367,9 L5.07563909,9 C5.3604024,8.98178138 5.62736801,8.87246964 5.82314279,8.65384615 L9.70304296,4.37246964 C10.0767948,3.9534413 10.0945925,3.3340081 9.77423379,2.91497976 Z M9.18690945,3.86234818 L5.30700928,8.1437247 C5.23581845,8.21659919 5.14682992,8.25303644 5.05784138,8.25303644 C4.96885284,8.25303644 4.87986431,8.21659919 4.80867348,8.16194332 L0.821987067,3.84412955 C0.697403116,3.71659919 0.697403116,3.51619433 0.804189359,3.37044534 L2.74413944,0.874493927 C2.81533027,0.78340081 2.92211652,0.728744939 3.02890276,0.728744939 L6.97999376,0.728744939 C7.08678,0.728744939 7.19356624,0.78340081 7.26475707,0.874493927 L9.22250486,3.37044534 C9.3114934,3.51619433 9.3114934,3.71659919 9.18690945,3.86234818 Z" id="形状" fill="#000000" fill-rule="nonzero"></path>
                        <path d="M6.87547214,4.26505978 L5.02666548,6.53302551 L3.12452786,4.22419553 C2.98231196,4.06073854 2.76898812,4.04030642 2.60899523,4.20376341 C2.46677934,4.34678828 2.46677934,4.61240588 2.59121825,4.77586287 L4.51113285,7.10512497 L4.54668683,7.14598922 C4.83111862,7.45247108 5.2755433,7.43203895 5.55997509,7.10512497 L7.40878175,4.796295 C7.53322066,4.63283801 7.53322066,4.3672204 7.39100477,4.22419553 C7.23101188,4.08117067 7.01768804,4.10160279 6.87547214,4.26505978 Z" id="路径" fill="#000000" fill-rule="nonzero"></path>
                    </g>
                    <g id="VIP剧" transform="translate(19.36, 3.844)" fill="#000000" fill-rule="nonzero">
                        <path d="M6.576,1.404 C6.576,1.332 6.552,1.248 6.504,1.176 C6.444,1.116 6.384,1.056 6.312,1.008 C6.228,0.96 6.144,0.924 6.072,0.9 C5.976,0.876 5.904,0.864 5.832,0.864 C5.628,0.864 5.448,0.912 5.304,1.008 C5.148,1.104 5.076,1.224 5.076,1.368 L5.076,1.608 C5.076,1.704 5.064,1.776 5.064,1.824 C5.04,1.944 5.028,2.052 5.016,2.148 L4.968,2.424 L4.608,3.864 C4.464,4.404 4.308,4.932 4.152,5.436 C3.996,5.952 3.84,6.42 3.672,6.84 C3.504,7.272 3.336,7.596 3.192,7.812 C3.12,7.728 3.048,7.608 2.976,7.44 C2.904,7.272 2.832,7.092 2.76,6.876 C2.688,6.672 2.628,6.456 2.568,6.216 C2.496,5.988 2.424,5.76 2.376,5.52 C2.232,5.016 2.112,4.512 2.016,3.984 C1.908,3.468 1.812,3.012 1.728,2.604 L1.608,2.016 C1.572,1.824 1.512,1.632 1.428,1.44 C1.308,1.2 1.104,1.08 0.816,1.08 C0.744,1.08 0.672,1.092 0.576,1.104 C0.48,1.128 0.396,1.164 0.312,1.2 C0.228,1.248 0.156,1.308 0.096,1.368 C0.024,1.44 0,1.512 0,1.584 C0,1.68 0.024,1.776 0.072,1.872 C0.12,1.968 0.168,2.064 0.216,2.148 C0.228,2.172 0.24,2.208 0.252,2.232 C0.252,2.256 0.264,2.28 0.288,2.304 C0.432,2.808 0.552,3.312 0.672,3.84 C0.792,4.368 0.912,4.884 1.056,5.388 C1.116,5.628 1.2,5.904 1.296,6.24 C1.392,6.576 1.512,6.9 1.644,7.236 C1.764,7.572 1.908,7.896 2.064,8.196 C2.22,8.508 2.388,8.748 2.58,8.916 C2.652,8.988 2.76,9.048 2.88,9.084 C3,9.132 3.108,9.144 3.228,9.144 C3.336,9.144 3.444,9.132 3.552,9.084 C3.66,9.048 3.744,8.988 3.816,8.904 C3.972,8.736 4.128,8.484 4.296,8.16 C4.464,7.848 4.62,7.524 4.776,7.164 C4.92,6.816 5.064,6.468 5.184,6.132 C5.304,5.796 5.4,5.52 5.472,5.292 C5.628,4.788 5.772,4.272 5.904,3.744 C6.024,3.24 6.168,2.724 6.324,2.208 C6.336,2.148 6.36,2.088 6.384,2.016 C6.408,1.968 6.444,1.908 6.48,1.836 L6.552,1.632 C6.564,1.56 6.576,1.488 6.576,1.404 Z" id="路径"></path>
                        <path d="M9.708,8.916 C10.008,8.904 10.164,8.736 10.164,8.412 C10.164,8.268 10.092,8.136 9.948,8.004 C9.804,7.884 9.66,7.812 9.54,7.788 C9.372,7.836 9.24,7.872 9.12,7.884 C9.072,6.708 9.048,5.568 9.048,4.488 C9.048,3.648 9.084,2.88 9.168,2.16 L9.528,2.124 C9.888,2.088 10.08,1.956 10.08,1.716 C10.08,1.572 10.008,1.44 9.864,1.296 C9.72,1.152 9.576,1.08 9.432,1.056 C9.144,1.152 8.88,1.224 8.64,1.248 C8.388,1.284 7.992,1.332 7.464,1.38 C7.152,1.416 7.008,1.524 7.008,1.716 C7.008,1.896 7.068,2.04 7.2,2.16 C7.32,2.28 7.44,2.328 7.584,2.328 C7.608,2.328 7.716,2.328 7.884,2.304 C7.836,3.612 7.812,4.452 7.812,4.824 C7.812,5.196 7.836,6.276 7.908,8.052 L7.284,8.088 C7.044,8.136 6.936,8.28 6.936,8.496 C6.936,8.664 6.996,8.808 7.128,8.928 C7.248,9.06 7.368,9.12 7.512,9.12 C7.704,9.096 7.86,9.084 7.968,9.06 C8.712,8.988 9.3,8.94 9.708,8.916 Z" id="路径"></path>
                        <path d="M16.944,3.9 C16.944,3.636 16.896,3.348 16.812,3.048 C16.716,2.748 16.572,2.46 16.404,2.196 C16.224,1.932 16.008,1.704 15.768,1.488 C15.516,1.296 15.228,1.14 14.916,1.044 C14.76,1.008 14.604,0.984 14.448,0.96 C14.28,0.936 14.124,0.924 13.968,0.924 C13.584,0.924 13.26,0.972 12.996,1.056 C12.72,1.152 12.528,1.248 12.408,1.356 L12.408,1.272 C12.36,1.164 12.276,1.08 12.156,1.02 C12.036,0.972 11.928,0.936 11.82,0.936 C11.748,0.936 11.664,0.948 11.58,0.96 C11.484,0.984 11.4,1.008 11.328,1.032 C11.244,1.08 11.172,1.128 11.124,1.176 C11.076,1.236 11.052,1.308 11.052,1.392 C11.052,1.428 11.052,1.464 11.076,1.512 L11.124,1.656 C11.148,1.704 11.16,1.752 11.16,1.8 L11.16,1.884 C11.052,2.388 10.98,2.892 10.944,3.384 C10.896,3.888 10.884,4.392 10.884,4.896 C10.884,5.16 10.884,5.46 10.908,5.808 C10.908,6.168 10.932,6.528 10.968,6.888 C10.992,7.26 11.04,7.62 11.1,7.956 C11.148,8.304 11.208,8.592 11.292,8.832 C11.328,8.952 11.412,9.048 11.532,9.096 C11.64,9.156 11.76,9.192 11.892,9.192 C11.952,9.192 12.024,9.18 12.096,9.168 L12.3,9.096 C12.36,9.06 12.408,9.012 12.456,8.952 C12.492,8.904 12.516,8.844 12.516,8.76 C12.516,8.736 12.48,8.664 12.432,8.532 C12.408,8.484 12.396,8.448 12.384,8.4 C12.36,8.352 12.348,8.328 12.348,8.304 C12.276,8.052 12.228,7.776 12.18,7.464 C12.132,7.176 12.108,6.876 12.084,6.564 C12.336,6.66 12.6,6.732 12.876,6.78 C13.14,6.84 13.38,6.864 13.596,6.864 C14.124,6.864 14.592,6.792 15.012,6.648 C15.42,6.516 15.78,6.324 16.068,6.06 C16.344,5.808 16.56,5.496 16.716,5.124 C16.86,4.764 16.944,4.356 16.944,3.9 Z M15.756,4.008 C15.756,4.296 15.696,4.56 15.588,4.8 C15.468,5.04 15.3,5.232 15.108,5.4 C14.892,5.58 14.652,5.712 14.388,5.808 C14.112,5.904 13.824,5.94 13.512,5.94 C13.344,5.94 13.188,5.928 13.044,5.892 C12.9,5.868 12.756,5.82 12.636,5.772 C12.516,5.724 12.396,5.676 12.3,5.616 C12.204,5.568 12.108,5.508 12.024,5.46 L12.024,4.908 C12.024,4.704 12.024,4.536 12.036,4.416 L12.036,4.08 L12.06,3.804 C12.06,3.72 12.072,3.612 12.096,3.468 C12.132,3.3 12.192,3.144 12.276,2.976 C12.348,2.832 12.432,2.712 12.516,2.616 C12.768,2.364 13.008,2.184 13.236,2.064 C13.452,1.956 13.68,1.896 13.92,1.896 C14.136,1.896 14.364,1.932 14.58,2.004 C14.796,2.076 15,2.196 15.18,2.364 C15.348,2.532 15.48,2.76 15.588,3.024 C15.696,3.288 15.756,3.624 15.756,4.008 Z" id="形状"></path>
                        <path d="M23.316,0.3 C21.972,0.3 20.424,0.444 18.672,0.732 L18.648,0.816 C18.684,1.032 18.744,1.212 18.828,1.344 L18.804,1.56 C18.78,1.704 18.756,1.884 18.732,2.088 C18.312,5.4 18.108,7.788 18.108,9.228 C18.108,10.056 18.18,10.584 18.324,10.812 C18.444,11.028 18.672,11.136 19.008,11.136 C19.116,11.136 19.224,11.1 19.32,11.028 C19.392,10.956 19.44,10.86 19.44,10.74 C19.44,10.692 19.404,10.596 19.344,10.452 C19.272,10.308 19.212,10.092 19.176,9.792 C19.128,9.504 19.116,9.288 19.116,9.144 C19.116,7.02 19.224,5.304 19.452,3.984 C19.452,3.96 19.464,3.924 19.464,3.876 L19.5,3.876 L20.208,3.768 C20.616,3.708 21.084,3.648 21.624,3.588 C21.624,3.612 21.636,3.624 21.636,3.648 C21.66,3.804 21.672,3.972 21.672,4.164 L21.672,5.052 C21.432,5.088 21.192,5.124 20.94,5.16 C20.484,5.232 19.98,5.328 19.452,5.448 C19.38,5.46 19.344,5.496 19.344,5.568 C19.344,5.688 19.404,5.844 19.524,6.024 C19.62,6.216 19.752,6.312 19.896,6.312 C19.968,6.312 20.04,6.3 20.112,6.264 C20.172,6.24 20.256,6.192 20.376,6.144 C20.736,6.036 21.168,5.94 21.672,5.868 C21.672,6.036 21.66,6.324 21.66,6.732 C21.66,6.924 21.66,7.092 21.684,7.236 C21.684,7.26 21.684,7.272 21.696,7.296 C21.336,7.344 20.964,7.416 20.568,7.488 C20.448,7.44 20.34,7.416 20.232,7.416 C20.112,7.416 20.016,7.44 19.956,7.476 C19.872,7.524 19.836,7.584 19.836,7.632 C19.836,7.692 19.836,7.752 19.86,7.8 C19.884,7.848 19.896,7.92 19.896,8.016 C19.896,9.18 19.968,10.092 20.124,10.74 C20.148,10.824 20.184,10.896 20.244,10.944 C20.34,11.04 20.472,11.1 20.64,11.112 C20.748,11.112 20.856,11.064 20.964,10.98 C21.012,10.932 21.048,10.884 21.072,10.836 C21.096,10.824 21.12,10.812 21.168,10.812 C21.516,10.74 21.96,10.68 22.512,10.656 C23.052,10.62 23.436,10.608 23.676,10.608 C23.82,10.608 23.964,10.62 24.12,10.656 C24.264,10.68 24.42,10.704 24.564,10.704 C24.792,10.692 24.912,10.572 24.912,10.332 C24.912,10.248 24.828,10.14 24.684,10.02 C24.684,10.02 24.696,10.008 24.696,9.984 L24.696,9.78 L24.732,8.82 C24.744,8.496 24.756,8.244 24.756,8.076 C24.756,7.932 24.684,7.8 24.564,7.656 C24.432,7.512 24.276,7.392 24.108,7.308 C23.904,7.212 23.676,7.164 23.436,7.164 C23.22,7.164 22.992,7.176 22.752,7.188 L22.752,7.104 C22.68,6.816 22.656,6.408 22.656,5.88 L22.656,5.772 C23.16,5.724 23.544,5.7 23.808,5.7 C23.952,5.7 24.096,5.724 24.252,5.748 C24.42,5.784 24.576,5.796 24.72,5.796 C24.96,5.796 25.08,5.664 25.08,5.4 C25.08,5.304 24.936,5.16 24.672,4.968 C24.408,4.824 24.216,4.74 24.12,4.74 C23.796,4.8 23.58,4.836 23.472,4.836 L22.656,4.932 L22.656,4.272 C22.656,4.116 22.668,3.936 22.704,3.72 C22.716,3.636 22.728,3.552 22.74,3.48 C23.1,3.456 23.448,3.444 23.796,3.432 C24.036,3.42 24.216,3.384 24.336,3.312 C24.48,3.168 24.564,3 24.564,2.82 C24.564,2.748 24.516,2.688 24.432,2.616 C24.432,2.616 24.432,2.592 24.444,2.568 C24.552,2.136 24.612,1.68 24.612,1.224 C24.612,1.008 24.528,0.828 24.384,0.66 C24.216,0.516 24.048,0.408 23.88,0.36 C23.724,0.324 23.532,0.3 23.316,0.3 Z M19.992,1.44 C20.208,1.404 20.496,1.356 20.88,1.308 C21.6,1.212 22.356,1.152 23.16,1.152 C23.34,1.164 23.436,1.224 23.448,1.344 C23.448,1.68 23.4,2.04 23.328,2.424 C23.304,2.496 23.292,2.532 23.292,2.544 C23.268,2.556 23.232,2.556 23.196,2.556 C22.932,2.604 22.644,2.652 22.332,2.676 C22.008,2.724 21.528,2.784 20.904,2.868 C20.28,2.94 19.896,2.976 19.752,2.976 L19.62,2.976 C19.74,2.268 19.836,1.836 19.908,1.668 C19.932,1.596 19.968,1.512 19.992,1.44 Z M20.868,8.364 L20.868,8.328 C20.94,8.304 21.012,8.28 21.108,8.256 C21.816,8.064 22.488,7.956 23.124,7.956 C23.484,7.956 23.676,8.076 23.676,8.304 C23.676,8.472 23.664,8.712 23.64,9 C23.616,9.276 23.592,9.528 23.556,9.756 C23.46,9.768 23.388,9.78 23.34,9.78 C23.22,9.792 22.908,9.816 22.416,9.84 C22.116,9.852 21.804,9.876 21.468,9.912 C21.3,9.924 21.132,9.936 20.94,9.96 C20.94,9.912 20.928,9.864 20.928,9.816 C20.892,9.564 20.868,9.084 20.868,8.364 Z M28.356,6.924 L28.416,2.544 C28.416,2.088 28.416,1.704 28.44,1.404 C28.464,1.116 28.5,0.888 28.548,0.708 C28.596,0.528 28.62,0.408 28.62,0.36 C28.62,0.264 28.548,0.18 28.428,0.108 C28.284,0.036 28.164,0 28.068,0 C27.948,0 27.792,0.084 27.612,0.228 C27.408,0.372 27.312,0.504 27.312,0.624 C27.312,0.708 27.324,0.816 27.372,0.936 C27.396,1.092 27.408,1.26 27.432,1.428 C27.444,1.644 27.456,2.136 27.456,2.892 L27.456,7.128 C27.456,8.052 27.444,8.844 27.432,9.516 L27.432,10.368 C27.432,10.944 27.696,11.232 28.224,11.232 C28.332,11.232 28.44,11.196 28.536,11.136 C28.632,11.076 28.68,10.992 28.68,10.872 C28.68,10.788 28.656,10.704 28.632,10.632 C28.596,10.548 28.572,10.464 28.548,10.392 C28.5,10.176 28.464,9.984 28.44,9.792 C28.38,8.952 28.356,7.992 28.356,6.924 Z M26.556,7.932 C26.484,7.512 26.448,6.9 26.448,6.108 L26.448,3.684 C26.448,3.444 26.46,3.168 26.508,2.844 C26.532,2.604 26.556,2.436 26.556,2.34 C26.556,2.244 26.472,2.16 26.328,2.064 C26.184,1.98 26.04,1.932 25.92,1.932 C25.608,1.932 25.464,2.064 25.464,2.328 C25.464,2.364 25.476,2.496 25.5,2.736 C25.524,2.976 25.536,3.228 25.536,3.504 L25.536,6.048 C25.536,6.36 25.524,6.876 25.524,7.584 C25.524,7.764 25.536,7.92 25.56,8.052 C25.572,8.256 25.632,8.436 25.728,8.592 C25.824,8.688 25.932,8.724 26.052,8.724 C26.172,8.724 26.292,8.628 26.424,8.412 C26.508,8.244 26.556,8.076 26.556,7.932 Z" id="形状"></path>
                    </g>
                </g>
            </g>
        </g>
    </g>
</svg>