<?xml version="1.0" encoding="UTF-8"?>
<svg width="23px" height="21px" viewBox="0 0 23 21" version="1.1" xmlns="http://www.w3.org/2000/svg" xmlns:xlink="http://www.w3.org/1999/xlink">
    <title>季卡</title>
    <g id="页面-1" stroke="none" stroke-width="1" fill="none" fill-rule="evenodd">
        <g id="我的" transform="translate(-209, -351)">
            <g id="编组-8备份" transform="translate(133, 314)">
                <g id="季卡" transform="translate(76, 37)">
                    <path d="M12.1433566,8.84615385 L21.3461538,8.84615385 L21.3461538,8.84615385 L19.3461538,19.4615385 L12.1433566,19.4615385 C9.21199913,19.4615385 6.83566434,17.0852037 6.83566434,14.1538462 C6.83566434,11.2224886 9.21199913,8.84615385 12.1433566,8.84615385 Z" id="矩形" fill="#2E7FFF"></path>
                    <rect id="矩形" fill="#000000" x="7.96153846" y="15.0384615" width="7.07692308" height="1.76923077" rx="0.884615385"></rect>
                    <g id="会员" fill="#000000" fill-rule="nonzero">
                        <path d="M6.08528383,6.14069833 L10.398714,0.546890675 C10.6650987,0.201445679 11.0707014,0 11.4998562,0 C11.929011,0 12.3346138,0.201445679 12.6009985,0.546890675 L16.9144287,6.14069833 L21.0424184,4.32450402 C21.5234368,4.11292919 22.0791379,4.1934645 22.4843171,4.53347206 C22.8894962,4.87347961 23.0769503,5.41656555 22.9707112,5.94263779 L20.5599858,17.8675932 C20.2680912,19.311291 19.0291103,20.3461538 17.5929393,20.3461538 L5.40677317,20.3461538 C3.97060219,20.3461538 2.73162133,19.311291 2.43972664,17.8675932 L0.0292888409,5.94263779 C-0.0769502622,5.41656556 0.110503764,4.87347963 0.515682932,4.53347208 C0.9208621,4.19346452 1.47656315,4.1129292 1.95758157,4.32450402 L6.08557132,6.14069833 L6.08528383,6.14069833 Z M11.4998562,1.97227704 L7.28561515,7.43738963 C6.89203281,7.94779634 6.21414836,8.12414577 5.6313142,7.86775064 L1.84315479,6.20091346 L4.12881564,17.5074831 C4.25445299,18.129252 4.78797377,18.5751209 5.40648568,18.5751209 L17.5932268,18.5751209 C18.2117387,18.5751209 18.7452595,18.129252 18.8708968,17.5074831 L21.1565577,6.20091346 L17.3683983,7.86775064 C16.7855641,8.12414577 16.1076797,7.94779634 15.7140973,7.43738963 L11.4998562,1.97227704 Z" id="形状"></path>
                    </g>
                </g>
            </g>
        </g>
    </g>
</svg>