<?xml version="1.0" encoding="UTF-8"?>
<svg width="14px" height="14px" viewBox="0 0 14 14" version="1.1" xmlns="http://www.w3.org/2000/svg" xmlns:xlink="http://www.w3.org/1999/xlink">
    <title>右箭头</title>
    <g id="页面-1" stroke="none" stroke-width="1" fill="none" fill-rule="evenodd">
        <g id="画板" transform="translate(-755, -750)" fill="#999999" fill-rule="nonzero">
            <g id="标题" transform="translate(445.7673, 742.2396)">
                <g id="更多" transform="translate(278.2327, 4.7604)">
                    <g id="右箭头" transform="translate(31, 3)">
                        <path d="M6,10.5 C5.87203125,10.5 5.7440625,10.45125 5.6465625,10.3534375 C5.45125,10.158125 5.45125,9.84171875 5.6465625,9.64640625 L8.29296875,7 L5.6465625,4.3534375 C5.45125,4.158125 5.45125,3.84171875 5.6465625,3.64640625 C5.841875,3.45109375 6.15828125,3.45109375 6.35359375,3.64640625 L9.176875,6.4696875 C9.469375,6.7621875 9.469375,7.2378125 9.176875,7.5303125 L6.3534375,10.3534375 C6.2559375,10.45125 6.12796875,10.5 6,10.5 L6,10.5 Z M8.49879688,7.21890625 L8.52979688,7.21890625 L8.49879688,7.21890625 Z" id="形状"></path>
                        <path d="M7,1 C10.3084375,1 13,3.6915625 13,7 C13,10.3084375 10.3084375,13 7,13 C3.6915625,13 1,10.3084375 1,7 C1,3.6915625 3.6915625,1 7,1 M7,0 C3.1340625,0 0,3.1340625 0,7 C0,10.8659375 3.1340625,14 7,14 C10.8659375,14 14,10.8659375 14,7 C14,3.1340625 10.8659375,0 7,0 Z" id="形状"></path>
                    </g>
                </g>
            </g>
        </g>
    </g>
</svg>