<?xml version="1.0" encoding="UTF-8"?>
<svg width="20px" height="20px" viewBox="0 0 20 20" version="1.1" xmlns="http://www.w3.org/2000/svg" xmlns:xlink="http://www.w3.org/1999/xlink">
    <title>搜索</title>
    <g id="页面-1" stroke="none" stroke-width="1" fill="none" fill-rule="evenodd">
        <g id="首页" transform="translate(-26, -104)" fill="#000000" fill-rule="nonzero">
            <g id="搜索" transform="translate(26, 104)">
                <path d="M19.7337522,18.40625 L16.0131144,14.75 C19.1397008,11.21875 18.9208397,5.875 15.5441265,2.625 C11.979818,-0.875 6.25816498,-0.875 2.66259067,2.625 C-0.807920189,6 -0.90171778,11.5625 2.47499549,15.03125 L2.66259067,15.21875 C5.91424048,18.34375 10.9793104,18.6875 14.6061506,16 L18.3580542,19.6875 C18.5143835,19.875 18.7645104,19.96875 19.0146373,20 C19.2647642,20 19.5148911,19.90625 19.7024863,19.71875 C20.0776767,19.375 20.1089426,18.78125 19.7337522,18.40625 L19.7337522,18.40625 Z M1.91220994,8.90625 C1.97474167,5 5.19512562,1.875 9.13462443,1.90625 C13.0428574,1.875 16.2319755,5 16.3257731,8.90625 C16.2632413,12.8125 13.0428574,15.9375 9.13462443,15.90625 C5.19512562,15.96875 1.97474167,12.84375 1.91220994,8.90625 Z" id="形状"></path>
            </g>
        </g>
    </g>
</svg>