<?xml version="1.0" encoding="UTF-8"?>
<svg width="23px" height="21px" viewBox="0 0 23 21" version="1.1" xmlns="http://www.w3.org/2000/svg" xmlns:xlink="http://www.w3.org/1999/xlink">
    <title>月卡</title>
    <g id="页面-1" stroke="none" stroke-width="1" fill="none" fill-rule="evenodd">
        <g id="我的" transform="translate(-90, -350)">
            <g id="编组-8" transform="translate(15, 314)">
                <g id="月卡" transform="translate(75, 36)">
                    <path d="M1.6702506,9 L2.42999759,8.41890982 C8.07803868,4.0990227 15.9839302,4.34175536 21.3563179,9 L21.3563179,9 L21.3563179,9 L12,21 L1.6702506,9 Z" id="矩形" fill="#80DBB0"></path>
                    <path d="M22.4807377,6.80161943 L17.9779178,0.977732794 C17.5276358,0.382591093 16.7908107,0 16.0539856,0 L6.96647635,0 C6.22965127,0 5.53376092,0.340080972 5.0425442,0.977732794 L0.539724277,6.80161943 C-0.238035527,7.77935223 -0.156166074,9.22469636 0.662528457,10.159919 L9.79097248,20.1923077 L9.91377666,20.3198381 C10.3640586,20.7449393 10.9780795,21 11.5921004,21 L11.6739699,21 C12.3289255,20.9574899 12.9429464,20.7024291 13.3932284,20.1923077 L22.3169988,10.2024291 C23.1766281,9.22469636 23.2175628,7.77935223 22.4807377,6.80161943 Z M21.1298917,9.01214575 L12.2061213,19.0020243 C12.0423824,19.1720648 11.8377088,19.257085 11.6330352,19.257085 C11.4283615,19.257085 11.2236879,19.1720648 11.059949,19.0445344 L1.89057025,8.96963563 C1.60402717,8.67206478 1.60402717,8.20445344 1.84963553,7.86437247 L6.31152072,2.04048583 C6.47525963,1.82793522 6.72086799,1.70040486 6.96647635,1.70040486 L16.0539856,1.70040486 C16.299594,1.70040486 16.5452024,1.82793522 16.7089413,2.04048583 L21.2117612,7.86437247 C21.4164348,8.20445344 21.4164348,8.67206478 21.1298917,9.01214575 Z" id="形状" fill="#000000" fill-rule="nonzero"></path>
                    <path d="M16.5011331,9.37248897 L12.0639972,14.2234157 L7.49886687,9.28508489 C7.15754871,8.93546855 6.64557148,8.89176651 6.26158856,9.24138285 C5.92027041,9.54729714 5.92027041,10.1154237 6.21892379,10.46504 L10.8267189,15.4470729 L10.9120484,15.5344769 C11.5946847,16.1900076 12.6613039,16.1463055 13.3439402,15.4470729 L17.7810762,10.5087421 C18.0797296,10.1591257 18.0797296,9.59099919 17.7384114,9.28508489 C17.3544285,8.97917059 16.8424513,9.02287264 16.5011331,9.37248897 Z" id="路径" fill="#000000" fill-rule="nonzero"></path>
                </g>
            </g>
        </g>
    </g>
</svg>