<?xml version="1.0" encoding="UTF-8"?>
<svg width="24px" height="20px" viewBox="0 0 24 20" version="1.1" xmlns="http://www.w3.org/2000/svg" xmlns:xlink="http://www.w3.org/1999/xlink">
    <title>年卡</title>
    <g id="页面-1" stroke="none" stroke-width="1" fill="none" fill-rule="evenodd">
        <g id="我的" transform="translate(-325, -351)">
            <g id="编组-8备份-2" transform="translate(250, 314)">
                <g id="年卡" transform="translate(75, 37)">
                    <path d="M11,4 L23,4 L23,4 L23,16 C23,17.6568542 21.6568542,19 20,19 L5,19 L5,19 L5,10 C5,6.6862915 7.6862915,4 11,4 Z" id="矩形" fill="#FFBC2E"></path>
                    <g id="VIP" transform="translate(7, 10)" fill="#000000" fill-rule="nonzero">
                        <path d="M0.0754039497,0.653120464 C0.0251346499,0.590227383 0,0.520077407 0,0.442670537 C0,0.360425738 0.0287253142,0.285437833 0.0861759425,0.217706821 C0.143626571,0.14997581 0.229802513,0.0943396226 0.34470377,0.0507982583 C0.459605027,0.0169327528 0.556552962,0 0.635547576,0 C0.757630162,0 0.872531418,0.0217706821 0.980251346,0.0653120464 C1.08797127,0.108853411 1.17055655,0.169327528 1.22800718,0.246734398 L3.02692998,3.75181422 L4.77199282,0.239477504 C4.82944345,0.162070634 4.91202873,0.102805999 5.01974865,0.0616835994 C5.12746858,0.0205611998 5.24236984,0 5.36445242,0 C5.46499102,0 5.56193896,0.0145137881 5.65529623,0.0435413643 C5.76301616,0.0870827286 5.84739677,0.143928399 5.90843806,0.214078374 C5.96947935,0.28422835 6,0.360425738 6,0.442670537 C6,0.505563619 5.97845601,0.570875665 5.93536804,0.638606676 L3.75942549,4.7605225 C3.70197487,4.83792937 3.60502693,4.897194 3.46858169,4.9383164 C3.33213645,4.9794388 3.18491921,5 3.02692998,5 C2.86175943,5 2.71274686,4.9794388 2.57989228,4.9383164 C2.4470377,4.897194 2.34829443,4.83792937 2.28366248,4.7605225 L0.0754039497,0.653120464 Z M4.97666068,0.297532656 C4.98384201,0.316884373 5.005386,0.326560232 5.04129264,0.326560232 C5.06283662,0.326560232 5.10233393,0.315674891 5.15978456,0.293904209 C5.21723519,0.272133527 5.26032316,0.258829221 5.28904847,0.253991292 C5.31777379,0.249153362 5.3572711,0.245524915 5.40754039,0.243105951 C5.45780969,0.240686986 5.497307,0.234639574 5.52603232,0.224963716 C5.55475763,0.215287857 5.56552962,0.200774069 5.55834829,0.181422351 C5.51526032,0.137880987 5.44344704,0.116110305 5.34290844,0.116110305 C5.3070018,0.116110305 5.25314183,0.120948234 5.18132855,0.130624093 C5.10233393,0.15481374 5.04308797,0.181422351 5.00359066,0.210449927 C4.96409336,0.239477504 4.9551167,0.26850508 4.97666068,0.297532656 Z M0.26929982,0.515239478 C0.276481149,0.520077407 0.287253142,0.522496372 0.301615799,0.522496372 C0.330341113,0.522496372 0.359066427,0.499516207 0.387791741,0.453555878 C0.416517056,0.407595549 0.441651706,0.372520561 0.463195691,0.348330914 C0.47037702,0.333817126 0.490125673,0.313255926 0.522441652,0.286647315 C0.55475763,0.260038703 0.57989228,0.237058539 0.597845601,0.217706821 C0.615798923,0.198355104 0.610412926,0.183841316 0.581687612,0.174165457 C0.552962298,0.164489598 0.527827648,0.159651669 0.506283662,0.159651669 C0.434470377,0.159651669 0.351885099,0.203193033 0.258527828,0.290275762 C0.215439856,0.338655056 0.193895871,0.384615385 0.193895871,0.428156749 C0.193895871,0.471698113 0.219030521,0.500725689 0.26929982,0.515239478 Z" id="形状"></path>
                        <path d="M7.49609288,5 C7.35841334,5 7.24138573,4.95903558 7.14501005,4.87710674 C7.04863437,4.7951779 7.00044653,4.69569288 7.00044653,4.57865169 L7.00044653,0.428370787 C6.99493935,0.311329588 7.0403736,0.210674157 7.13674927,0.126404494 C7.23312495,0.0421348315 7.35015256,0 7.48783211,0 C7.62551165,0 7.74391605,0.0409644195 7.84304532,0.122893258 C7.94217459,0.204822097 7.99449282,0.304307116 8,0.421348315 L8,4.57162921 C8,4.68867041 7.95181216,4.78815543 7.85543648,4.87008427 C7.7590608,4.95201311 7.6392796,4.99531835 7.49609288,5 Z M7.27305202,0.498595506 C7.29508075,0.498595506 7.31986306,0.476357678 7.34739897,0.431882022 C7.37493488,0.387406367 7.39696361,0.358146067 7.41348515,0.344101124 C7.42449952,0.33005618 7.44928183,0.3125 7.48783211,0.291432584 C7.52638238,0.270365169 7.55116469,0.252808989 7.56217906,0.238764045 C7.57319342,0.224719101 7.56768624,0.208333333 7.54565751,0.189606742 C7.52362879,0.17088015 7.49333929,0.161516854 7.45478902,0.161516854 C7.38870284,0.161516854 7.32261666,0.19428839 7.25653048,0.259831461 C7.20696584,0.301966292 7.18218352,0.346441948 7.18218352,0.393258427 C7.18218352,0.426029963 7.20145866,0.456460674 7.24000893,0.484550562 L7.27305202,0.498595506 Z" id="形状"></path>
                        <path d="M13.4360087,0.564853556 C13.6240058,0.708972571 13.7650036,0.878661088 13.8590022,1.07391911 C13.9530007,1.26917713 14,1.47373315 14,1.68758717 C14,1.88749419 13.9295011,2.08042771 13.7885033,2.26638773 C13.6475054,2.45234775 13.4540853,2.61273826 13.208243,2.74755927 C12.9479393,2.89632729 12.6948662,3.0009298 12.4490239,3.06136681 C12.1670282,3.13110181 11.8561099,3.16596932 11.516269,3.16596932 C11.1619667,3.16596932 10.8040492,3.13807531 10.4425163,3.08228731 L10.4533623,4.53974895 C10.4533623,4.66527197 10.3864787,4.77336123 10.2527115,4.86401674 C10.1189443,4.95467225 9.95444685,5 9.75921909,5 C9.57122198,5 9.40853218,4.95699675 9.27114967,4.87099024 C9.13376717,4.78498373 9.05784526,4.67921897 9.04338395,4.55369596 L9,0.460251046 C9,0.334728033 9.06869125,0.226638773 9.20607375,0.135983264 C9.34345625,0.0453277545 9.50614606,0 9.69414317,0 C9.83152567,0 9.95625452,0.0220827522 10.0683297,0.0662482566 C10.1804049,0.110413761 10.2653651,0.169688517 10.3232104,0.244072524 C10.7281273,0.118549512 11.1185828,0.0557880056 11.494577,0.0557880056 C11.8416486,0.0557880056 12.1905278,0.0929800093 12.5412148,0.167364017 C12.8919017,0.241748024 13.1901663,0.374244537 13.4360087,0.564853556 Z M9.26030369,0.49511855 C9.28922632,0.50441655 9.31453362,0.50209205 9.3362256,0.488145049 C9.35791757,0.474198047 9.38503254,0.448628545 9.4175705,0.411436541 C9.45010846,0.374244537 9.47722343,0.348675035 9.4989154,0.334728033 C9.51337672,0.320781032 9.54591468,0.30102278 9.59652928,0.275453278 C9.64714389,0.249883775 9.68148952,0.228963273 9.69956616,0.212691771 C9.71764281,0.19642027 9.71221981,0.181311018 9.68329718,0.167364017 C9.65437455,0.158066016 9.62906725,0.153417015 9.60737527,0.153417015 C9.52060738,0.153417015 9.43022415,0.190609019 9.3362256,0.264993026 C9.2494577,0.330079033 9.20607375,0.383542538 9.20607375,0.425383543 C9.20607375,0.453277545 9.2241504,0.476522548 9.26030369,0.49511855 Z M12.2537961,2.25244073 C12.5357918,2.08042771 12.6767896,1.88981869 12.6767896,1.68061367 C12.6767896,1.39237564 12.5538684,1.15527662 12.308026,0.969316597 C12.054953,0.778707578 11.6970354,0.683403068 11.2342733,0.683403068 C10.945047,0.683403068 10.670282,0.736866574 10.4099783,0.843793584 L10.4316703,2.43375174 C10.670282,2.46629475 10.9305857,2.48256625 11.2125813,2.48256625 C11.4078091,2.48256625 11.5976139,2.462808 11.7819957,2.42329149 C11.9663774,2.38377499 12.1236443,2.32682473 12.2537961,2.25244073 Z" id="形状"></path>
                    </g>
                    <rect id="矩形" stroke="#000000" stroke-width="1.5" x="0.75" y="0.75" width="22.5" height="18.5" rx="5"></rect>
                    <rect id="矩形" fill="#101010" x="0" y="6" width="17" height="2" rx="1"></rect>
                    <rect id="矩形备份-7" fill="#101010" x="20" y="6" width="4" height="2" rx="1"></rect>
                </g>
            </g>
        </g>
    </g>
</svg>